<svg width="19" height="19" viewBox="0 0 19 19" fill="none" xmlns="http://www.w3.org/2000/svg">
<g clip-path="url(#clip0)">
<path d="M17.8732 3.12012L7.28415 3.12612C6.67715 3.12512 6.18315 3.61912 6.18415 4.22712V4.73212C5.95915 4.63512 5.68015 4.56712 5.32415 4.56712C4.87915 4.56712 4.51015 4.66712 4.46915 4.68012C4.38315 4.70412 4.30515 4.74612 4.23815 4.80512L0.202154 8.34112C0.0701542 8.45812 -0.00384582 8.62712 0.000154185 8.80312L0.0351542 14.6241C0.0431542 14.9341 0.399154 15.1871 0.710154 15.2011C0.726154 15.2011 2.23115 15.2641 3.56115 15.2641C4.37215 15.2641 4.94415 15.2431 5.30915 15.1971C6.37315 15.0631 6.83815 14.7491 7.03115 14.5491C7.23115 14.4031 7.40915 14.2591 7.59515 14.1151C7.44015 14.6831 7.69915 15.3021 8.24315 15.5771C8.41915 15.6671 8.61715 15.7151 8.81315 15.7151C9.16215 15.7151 9.48215 15.5701 9.71615 15.3301C9.83115 15.4861 9.97715 15.6221 10.1612 15.7171C10.3382 15.8041 10.5352 15.8521 10.7322 15.8521C11.2102 15.8521 11.6422 15.5851 11.8582 15.1591L12.6952 13.5111C12.8482 13.2091 12.8802 12.8661 12.7742 12.5461C12.7402 12.4421 12.6862 12.3451 12.6262 12.2551L17.8652 12.2581C18.4722 12.2581 18.9672 11.7641 18.9682 11.1581L18.9722 4.23412C18.9732 3.62512 18.4802 3.12012 17.8732 3.12012ZM10.0722 13.0121L9.23715 14.6621C9.12416 14.8901 8.83015 14.9871 8.60115 14.8721C8.36815 14.7531 8.27516 14.4671 8.39215 14.2351L9.07915 12.8821C9.07915 12.8821 9.30415 12.3331 9.66315 12.3271C9.73315 12.3291 9.80115 12.3441 9.86515 12.3771C9.97715 12.4351 10.0612 12.5301 10.1002 12.6511C10.1402 12.7721 10.1322 12.8991 10.0722 13.0121ZM8.75615 11.5611L8.00115 12.2531H8.00815C7.53515 12.6631 6.97215 13.1181 6.27915 13.6301C6.22715 13.6681 6.22315 13.6641 6.18615 13.7161C6.18415 13.7181 5.95515 13.9221 5.16515 14.0201C4.94915 14.0471 4.49715 14.0431 3.56215 14.0431C2.74915 14.0431 1.73715 14.0551 1.18415 14.0361L1.19315 9.05012L4.90715 5.79512C5.00715 5.77612 5.15915 5.75412 5.32415 5.75412C5.56615 5.75412 5.73315 5.79712 5.82315 5.88612V10.0021C5.82315 10.2111 5.93315 10.4031 6.11315 10.5111C6.13415 10.5231 6.15815 10.5211 6.18015 10.5311V10.5751L6.23515 10.5471C6.38815 10.5981 6.55315 10.6051 6.69915 10.5241C7.62215 10.0241 9.37115 9.22912 10.1332 9.22912C10.1672 9.22912 10.1962 9.22912 10.2162 9.23312C10.2192 9.24012 10.2222 9.24412 10.2262 9.25012C10.2422 9.32912 10.3182 10.0151 8.75615 11.5611ZM11.9892 13.1501L11.1542 14.8001C11.0402 15.0281 10.7452 15.1241 10.5172 15.0091C10.2852 14.8921 10.1932 14.6051 10.3102 14.3731L11.1462 12.7231C11.2272 12.5631 11.3882 12.4621 11.5682 12.4621C11.6432 12.4621 11.7152 12.4811 11.7832 12.5151C11.8972 12.5731 11.9802 12.6701 12.0182 12.7881C12.0582 12.9101 12.0492 13.0371 11.9892 13.1501ZM18.2362 11.1551C18.2352 11.3601 18.0712 11.5221 17.8692 11.5221L10.3932 11.5201C11.0042 10.7661 11.3552 10.0901 11.4132 9.50412C11.4562 9.04012 11.3192 8.74412 11.2182 8.59712C11.0932 8.36112 10.7992 8.04012 10.1332 8.04012C9.26215 8.04012 7.90415 8.61012 7.00915 9.03612V7.39312L18.2372 7.39012L18.2362 11.1551ZM18.2372 5.21412L6.91715 5.20912V4.22512C6.91715 4.02212 7.08115 3.85812 7.28315 3.85812L17.8732 3.85012C18.0732 3.85012 18.2402 4.02812 18.2402 4.23012L18.2372 5.21412Z" fill="white"/>
<path d="M8.75615 11.5611L8.00115 12.2531H8.00815C7.53515 12.6631 6.97215 13.1181 6.27915 13.6301C6.22715 13.6681 6.22315 13.6641 6.18615 13.7161C6.18415 13.7181 5.95515 13.9221 5.16515 14.0201C4.94915 14.0471 4.49715 14.0431 3.56215 14.0431C2.74915 14.0431 1.73715 14.0551 1.18415 14.0361L1.19315 9.05012L4.90715 5.79512C5.00715 5.77612 5.15915 5.75412 5.32415 5.75412C5.56615 5.75412 5.73315 5.79712 5.82315 5.88612V10.0021C5.82315 10.2111 5.93315 10.4031 6.11315 10.5111C6.13415 10.5231 6.15815 10.5211 6.18015 10.5311V10.5751L6.23515 10.5471C6.38815 10.5981 6.55315 10.6051 6.69915 10.5241C7.62215 10.0241 9.37115 9.22912 10.1332 9.22912C10.1672 9.22912 10.1962 9.22912 10.2162 9.23312C10.2192 9.24012 10.2222 9.24412 10.2262 9.25012C10.2422 9.32912 10.3182 10.0151 8.75615 11.5611Z" fill="white"/>
<path d="M10.0722 13.0121L9.23715 14.6621C9.12416 14.8901 8.83015 14.9871 8.60115 14.8721C8.36815 14.7531 8.27516 14.4671 8.39215 14.2351L9.07915 12.8821C9.07915 12.8821 9.30415 12.3331 9.66315 12.3271C9.73315 12.3291 9.80115 12.3441 9.86515 12.3771C9.97715 12.4351 10.0612 12.5301 10.1002 12.6511C10.1402 12.7721 10.1322 12.8991 10.0722 13.0121Z" fill="white"/>
<path d="M11.9892 13.1501L11.1542 14.8001C11.0402 15.0281 10.7452 15.1241 10.5172 15.0091C10.2852 14.8921 10.1932 14.6051 10.3102 14.3731L11.1462 12.7231C11.2272 12.5631 11.3882 12.4621 11.5682 12.4621C11.6432 12.4621 11.7152 12.4811 11.7832 12.5151C11.8972 12.5731 11.9802 12.6701 12.0182 12.7881C12.0582 12.9101 12.0492 13.0371 11.9892 13.1501Z" fill="white"/>
<path d="M17.4031 10.8422L17.3951 9.84721L14.4961 9.84521L14.5051 10.8422H17.4031Z" fill="white"/>
</g>
<defs>
<clipPath id="clip0">
<rect width="18.972" height="18.972" fill="white"/>
</clipPath>
</defs>
</svg>
