<svg width="18" height="14" viewBox="0 0 18 14" fill="none" xmlns="http://www.w3.org/2000/svg">
<path d="M11.88 1.15863C5.67 -0.821372 0 3.76863 0 9.70863C0 10.5186 0.09 12.0486 0.36 12.9486C0.36 13.1286 0.54 13.3086 0.72 13.3086H17.19C17.37 13.3086 17.55 13.1286 17.64 12.9486C17.82 12.0486 18 10.5186 18 9.70863C18 5.83863 15.57 2.32863 11.88 1.15863ZM9 2.50863C9.54 2.50863 9.9 2.86863 9.9 3.40863C9.9 3.94863 9.54 4.30863 9 4.30863C8.46 4.30863 8.1 3.94863 8.1 3.40863C8.1 2.86863 8.46 2.50863 9 2.50863ZM2.7 10.6086C2.16 10.6086 1.8 10.2486 1.8 9.70863C1.8 9.16863 2.16 8.80863 2.7 8.80863C3.24 8.80863 3.6 9.16863 3.6 9.70863C3.6 10.2486 3.24 10.6086 2.7 10.6086ZM5.22 5.92863C4.86 6.28863 4.32 6.28863 3.96 5.92863C3.6 5.56863 3.6 4.93863 3.87 4.57863C4.23 4.21863 4.77 4.21863 5.13 4.57863C5.49 4.93863 5.49 5.56863 5.22 5.92863ZM9 11.5086C8.01 11.5086 7.11 10.6086 7.38 9.70863C7.65 8.80863 9 6.10863 9 6.10863C9 6.10863 10.35 8.80863 10.62 9.70863C10.89 10.6086 9.99 11.5086 9 11.5086ZM14.13 5.92863C13.77 6.28863 13.23 6.28863 12.87 5.92863C12.51 5.56863 12.51 5.02863 12.87 4.66863C13.23 4.30863 13.77 4.30863 14.13 4.66863C14.4 4.93863 14.4 5.56863 14.13 5.92863ZM15.3 10.6086C14.76 10.6086 14.4 10.2486 14.4 9.70863C14.4 9.16863 14.76 8.80863 15.3 8.80863C15.84 8.80863 16.2 9.16863 16.2 9.70863C16.2 10.2486 15.84 10.6086 15.3 10.6086Z" fill="white"/>
</svg>
