<svg width="16" height="16" viewBox="0 0 16 16" fill="none" xmlns="http://www.w3.org/2000/svg">
<g clip-path="url(#clip0)">
<path d="M5.29053 8.46872H10.9155C11.1747 8.46872 11.3843 8.259 11.3843 7.99997V2.34374C11.3843 2.08471 11.1747 1.87499 10.9155 1.87499H9.50926V1.40624C9.50926 0.630857 8.8784 0 8.10302 0C7.32763 0 6.69677 0.630857 6.69677 1.40624V1.87499H5.29053C5.03149 1.87499 4.82178 2.08471 4.82178 2.34374V7.99997C4.82178 8.259 5.03149 8.46872 5.29053 8.46872ZM7.63427 1.40624C7.63427 1.14758 7.84484 0.937496 8.10302 0.937496C8.36119 0.937496 8.57176 1.14758 8.57176 1.40624V1.87499H7.63427V1.40624Z" fill="white"/>
<path d="M14.9317 7.75732C14.8475 7.61731 14.6945 7.53125 14.5307 7.53125C13.7048 7.53125 12.9471 7.98962 12.5637 8.72119L11.1258 11.4653C10.8814 11.9304 10.4044 12.2187 9.87985 12.2187H6.69651C6.43748 12.2187 6.22776 12.009 6.22776 11.75C6.22776 11.491 6.43748 11.2812 6.69651 11.2812H9.87973C10.0547 11.2812 10.214 11.1852 10.2955 11.0299C10.3767 10.8749 10.6219 10.4067 10.8327 10.0044C10.8991 9.87768 10.8945 9.72546 10.8204 9.60302C10.7462 9.48071 10.6135 9.40624 10.4704 9.40624H5.59788C4.97166 9.40624 4.3839 9.65026 3.94078 10.0929L1.16858 12.8651C0.985474 13.0482 0.985474 13.3448 1.16858 13.5279L3.51232 15.8626C3.60387 15.9542 3.72387 16.0001 3.84374 16.0001C3.96361 16.0001 4.08361 15.9542 4.17516 15.8626L5.9531 14.0937H9.87973C11.1038 14.0937 12.218 13.4199 12.7866 12.3354L14.9454 8.21789C15.0223 8.07275 15.0168 7.89795 14.9317 7.75732Z" fill="white"/>
</g>
<defs>
<clipPath id="clip0">
<rect width="16" height="16" fill="white"/>
</clipPath>
</defs>
</svg>
