<svg width="22" height="22" viewBox="0 0 22 22" fill="none" xmlns="http://www.w3.org/2000/svg">
<g clip-path="url(#clip0)">
<path d="M3.4142 11.9997H14.9999C15.5521 11.9997 15.9999 11.552 15.9999 10.9997C15.9999 10.4475 15.5521 9.99972 14.9999 9.99972H3.4142L4.70713 8.70686C5.09767 8.31639 5.09767 7.68319 4.70713 7.29266C4.31673 6.90212 3.68353 6.90212 3.29293 7.29266L0.293133 10.2925C0.269933 10.3156 0.248067 10.3398 0.227267 10.3651C0.2222 10.3713 0.217867 10.378 0.212933 10.3843C0.197667 10.4037 0.182667 10.4232 0.168933 10.4437C0.164933 10.4497 0.161667 10.4561 0.157733 10.4621C0.144 10.4836 0.130533 10.5053 0.1184 10.5279C0.116067 10.5323 0.114133 10.5371 0.1118 10.5415C0.0992 10.566 0.0870667 10.5908 0.0764667 10.6164C0.0751333 10.6195 0.0742 10.6229 0.0729333 10.6261C0.0620667 10.653 0.052 10.6803 0.0434667 10.7083C0.0423333 10.7119 0.0417333 10.7155 0.0407333 10.7191C0.0326667 10.7467 0.0252667 10.7745 0.0196 10.8029C0.0179333 10.8114 0.0172 10.8201 0.0156667 10.8287C0.0115333 10.8523 0.0074 10.8759 0.00506667 10.8999C0.00166667 10.9329 0 10.9663 0 10.9997C0 11.0332 0.00166667 11.0665 0.00506667 11.0996C0.0074 11.124 0.0116667 11.1478 0.0157333 11.1716C0.0172 11.1799 0.0179333 11.1883 0.0196 11.1965C0.0253333 11.2253 0.0326667 11.2533 0.0408 11.2811C0.0418 11.2844 0.0424 11.2879 0.0434 11.2911C0.052 11.3193 0.0620667 11.3469 0.0730667 11.3741C0.0742667 11.377 0.0751333 11.3801 0.0764 11.3831C0.0870667 11.4089 0.0992667 11.4338 0.112 11.4584C0.1142 11.4627 0.116067 11.4673 0.118333 11.4716C0.1306 11.4943 0.144133 11.5162 0.158067 11.5379C0.1618 11.5437 0.165 11.5499 0.168867 11.5557C0.182667 11.5763 0.1978 11.5959 0.213 11.6153C0.217867 11.6216 0.2222 11.6282 0.2272 11.6343C0.248067 11.6596 0.269933 11.6839 0.293067 11.707L3.29287 14.7068C3.48813 14.9021 3.74407 14.9997 4 14.9997C4.25593 14.9997 4.51187 14.9021 4.70707 14.7068C5.0976 14.3163 5.0976 13.6831 4.70707 13.2926L3.4142 11.9997Z" fill="white"/>
<path d="M13.8201 2.81982C11.0905 2.81982 8.55086 4.17396 7.02652 6.44202C6.71852 6.90036 6.84039 7.52169 7.29872 7.82976C7.75712 8.13775 8.37839 8.01602 8.68652 7.55755C9.83859 5.84322 11.7577 4.81976 13.8201 4.81976C17.2277 4.81982 20.0001 7.59216 20.0001 10.9999C20.0001 14.4076 17.2277 17.1799 13.8201 17.1799C11.7637 17.1799 9.84779 16.1611 8.69486 14.4546C8.38559 13.9969 7.76412 13.8766 7.30639 14.1858C6.84879 14.495 6.72839 15.1166 7.03759 15.5742C8.56299 17.832 11.0985 19.1799 13.8201 19.1799C18.3305 19.1799 22.0001 15.5104 22.0001 10.9999C22.0001 6.48936 18.3305 2.81982 13.8201 2.81982Z" fill="white"/>
</g>
<defs>
<clipPath id="clip0">
<rect width="22" height="22" fill="white" transform="matrix(1 0 0 -1 0 22)"/>
</clipPath>
</defs>
</svg>
