<svg width="14" height="14" viewBox="0 0 14 14" fill="none" xmlns="http://www.w3.org/2000/svg">
<g clip-path="url(#clip0)">
<path d="M2.30222 1.79988C2.16443 1.66209 1.9434 1.66209 1.80561 1.79701C1.66495 1.9348 1.66495 2.15583 1.80274 2.29362L2.64096 3.13758C2.70698 3.20361 2.79597 3.24093 2.8907 3.24093C2.98256 3.24093 3.07155 3.20361 3.13757 3.13758L5.68955 0.599959C5.82734 0.462169 5.82734 0.241132 5.69242 0.103342C5.55463 -0.0344474 5.3336 -0.0344474 5.19581 0.103342L4.42361 0.869797C4.01311 0.444946 3.44186 0.200943 2.8419 0.200943C1.62763 0.200943 0.640137 1.18844 0.640137 2.40271C0.640137 3.61698 1.62763 4.60447 2.8419 4.60447C3.82078 4.60447 4.66761 3.9758 4.9518 3.03998C5.00922 2.85339 4.903 2.65819 4.71641 2.60078C4.52982 2.54624 4.33462 2.64958 4.27721 2.83617C4.08775 3.46196 3.4964 3.90117 2.8419 3.90117C2.01516 3.90117 1.34344 3.22944 1.34344 2.40271C1.34344 1.57597 2.01516 0.904244 2.8419 0.904244C3.2524 0.904244 3.6428 1.07648 3.92412 1.36928L2.89357 2.39409L2.30222 1.79988Z" fill="white"/>
<path d="M2.8419 4.89722C1.62763 4.89722 0.640137 5.88471 0.640137 7.09898C0.640137 8.31325 1.62763 9.30074 2.8419 9.30074C4.05617 9.30074 5.04366 8.31325 5.04366 7.09898C5.04366 5.88471 4.05617 4.89722 2.8419 4.89722ZM2.8419 8.59744C2.01516 8.59744 1.34344 7.92572 1.34344 7.09898C1.34344 6.27224 2.01516 5.60052 2.8419 5.60052C3.66864 5.60052 4.34036 6.27224 4.34036 7.09898C4.34036 7.92572 3.66864 8.59744 2.8419 8.59744Z" fill="white"/>
<path d="M2.8419 8.59744C2.01516 8.59744 1.34344 7.92572 1.34344 7.09898C1.34344 6.27224 2.01516 5.60052 2.8419 5.60052C3.66864 5.60052 4.34036 6.27224 4.34036 7.09898C4.34036 7.92572 3.66864 8.59744 2.8419 8.59744Z" fill="white"/>
<path fill-rule="evenodd" clip-rule="evenodd" d="M5.04366 11.7982C5.04366 10.5839 4.05617 9.59644 2.8419 9.59644C1.62763 9.59644 0.640137 10.5839 0.640137 11.7982C0.640137 13.0125 1.62763 14 2.8419 14C4.05617 14 5.04366 13.0125 5.04366 11.7982ZM1.34344 11.8011C1.34344 12.6278 2.01516 13.2995 2.8419 13.2995C3.66864 13.2995 4.34036 12.6278 4.34036 11.8011C4.34036 10.9743 3.66864 10.3026 2.8419 10.3026C2.01516 10.3026 1.34344 10.9743 1.34344 11.8011Z" fill="white"/>
<path d="M2.8419 13.2995C2.01516 13.2995 1.34344 12.6278 1.34344 11.8011C1.34344 10.9743 2.01516 10.3026 2.8419 10.3026C3.66864 10.3026 4.34036 10.9743 4.34036 11.8011C4.34036 12.6278 3.66864 13.2995 2.8419 13.2995Z" fill="white"/>
<path d="M13.0068 6.74585H6.16607C5.97087 6.74585 5.81299 6.90373 5.81299 7.09894C5.81299 7.29414 5.97087 7.45202 6.16607 7.45202H13.0068C13.202 7.45202 13.3598 7.29414 13.3598 7.09894C13.3598 6.90373 13.202 6.74585 13.0068 6.74585Z" fill="white"/>
<path d="M13.0068 2.05249H6.16607C5.97087 2.05249 5.81299 2.21037 5.81299 2.40558C5.81299 2.60078 5.97087 2.75866 6.16607 2.75866H13.0068C13.202 2.75866 13.3598 2.60078 13.3598 2.40558C13.3598 2.21037 13.202 2.05249 13.0068 2.05249Z" fill="white"/>
<path d="M13.0068 11.448H6.16607C5.97087 11.448 5.81299 11.6059 5.81299 11.8011C5.81299 11.9963 5.97087 12.1542 6.16607 12.1542H13.0068C13.202 12.1542 13.3598 11.9963 13.3598 11.8011C13.3598 11.603 13.202 11.448 13.0068 11.448Z" fill="white"/>
</g>
<defs>
<clipPath id="clip0">
<rect width="14" height="14" fill="white"/>
</clipPath>
</defs>
</svg>
