<svg width="15" height="15" viewBox="0 0 15 15" fill="none" xmlns="http://www.w3.org/2000/svg">
<g clip-path="url(#clip0)">
<path d="M14.708 3.9775L7.73616 0.491586C7.58753 0.417193 7.41248 0.417193 7.26379 0.491586L0.29197 3.9775C0.11303 4.06699 0 4.24982 0 4.44992V14.0362C0 14.3278 0.236465 14.5644 0.528182 14.5644H2.27116C2.56283 14.5644 2.79934 14.3279 2.79934 14.0362V5.84957H12.2008V14.0362C12.2008 14.3278 12.4372 14.5644 12.7289 14.5644H14.4719C14.7636 14.5644 15.0001 14.3279 15.0001 14.0362V4.44992C15 4.24982 14.887 4.06699 14.708 3.9775ZM13.9437 13.508H13.2571V5.32138C13.2571 5.02972 13.0206 4.7932 12.7289 4.7932H2.27111C1.97944 4.7932 1.74293 5.02967 1.74293 5.32138V13.508H1.05631V4.77633L7.5 1.55452L13.9437 4.77633V13.508Z" fill="white"/>
<path d="M13.9437 13.508H13.2571V5.32138C13.2571 5.02972 13.0206 4.7932 12.7289 4.7932H2.27111C1.97944 4.7932 1.74293 5.02967 1.74293 5.32138V13.508H1.05631V4.77633L7.5 1.55452L13.9437 4.77633V13.508Z" fill="white"/>
<path d="M10.986 6.69458H7.50014C7.29595 6.69458 7.13044 6.86008 7.13044 7.06428V10.1805H4.01423C3.81004 10.1805 3.64453 10.346 3.64453 10.5502V14.0361C3.64453 14.2403 3.81004 14.4058 4.01423 14.4058H10.986C11.1902 14.4058 11.3557 14.2403 11.3557 14.0361V7.06433C11.3558 6.86009 11.1902 6.69458 10.986 6.69458ZM7.86983 11.4429L8.72019 12.2932L7.86983 13.1436V11.4429ZM7.13044 13.1435L6.28009 12.2932L7.13044 11.4428V13.1435ZM8.39276 10.9199H10.0934L9.24307 11.7703L8.39276 10.9199ZM8.39276 10.1805L9.24312 9.33014L10.0935 10.1805H8.39276ZM10.6163 9.65761L9.76605 8.80726L10.6163 7.9569V9.65761ZM9.24312 8.28438L8.39276 7.43402H10.0934L9.24312 8.28438ZM8.72019 8.80726L7.86983 9.65761V7.95695L8.72019 8.80726ZM5.75716 11.7703L4.9068 10.9199H6.60746L5.75716 11.7703ZM5.23428 12.2932L4.38393 13.1435V11.4429L5.23428 12.2932ZM5.75716 12.8161L6.60751 13.6664H4.90685L5.75716 12.8161ZM9.24307 12.8161L10.0934 13.6664H8.39276L9.24307 12.8161ZM9.766 12.2932L10.6163 11.4428V13.1435L9.766 12.2932Z" fill="white"/>
</g>
<defs>
<clipPath id="clip0">
<rect width="15" height="15" fill="white"/>
</clipPath>
</defs>
</svg>
