<svg width="37" height="28" viewBox="0 0 37 28" fill="none" xmlns="http://www.w3.org/2000/svg">
<path d="M36.1324 8.16509H31.8052L30.603 5.13529C30.0074 3.61663 28.9719 2.3143 27.6315 1.39824C26.2912 0.482182 24.7082 -0.00507741 23.0892 3.98973e-05H13.9111C12.292 -0.00500523 10.7089 0.482272 9.36838 1.39831C8.02788 2.31435 6.99215 3.61663 6.3963 5.13529L5.19311 8.16509H0.866915C0.735176 8.16501 0.605154 8.19524 0.486737 8.25347C0.368321 8.31171 0.264628 8.39641 0.183546 8.50115C0.102463 8.60589 0.0461256 8.7279 0.018818 8.85791C-0.00848962 8.98791 -0.00604834 9.12248 0.0259562 9.25139L0.459652 11.0013C0.506413 11.1906 0.614603 11.3587 0.766998 11.4787C0.919393 11.5988 1.10723 11.664 1.30061 11.664H2.75051C2.2513 12.0976 1.85042 12.6345 1.57508 13.2382C1.29974 13.8419 1.15638 14.4983 1.15474 15.1629V18.6647C1.15719 19.7932 1.56837 20.882 2.31094 21.7261V25.6674C2.3112 26.286 2.55491 26.8791 2.98851 27.3165C3.42211 27.7539 4.01013 27.9997 4.62333 28H6.9367C7.54991 27.9997 8.13792 27.7539 8.57152 27.3165C9.00513 26.8791 9.24884 26.286 9.2491 25.6674V23.3279H27.7522V25.6605C27.7524 26.2791 27.9961 26.8722 28.4297 27.3096C28.8633 27.747 29.4513 27.9928 30.0646 27.9931H32.3769C32.9902 27.9928 33.5782 27.747 34.0118 27.3096C34.4454 26.8722 34.6891 26.2791 34.6893 25.6605V21.7192C35.4321 20.8752 35.8434 19.7864 35.8455 18.6578V15.1629C35.8439 14.4984 35.7006 13.8421 35.4255 13.2384C35.1503 12.6347 34.7497 12.0978 34.2507 11.664H35.6997C35.893 11.664 36.0809 11.5988 36.2333 11.4787C36.3857 11.3587 36.4939 11.1906 36.5406 11.0013L36.9743 9.25139C37.0061 9.12242 37.0084 8.98783 36.981 8.85783C36.9535 8.72784 36.8971 8.60585 36.8159 8.50115C36.7348 8.39644 36.6311 8.31176 36.5126 8.25353C36.3942 8.1953 36.2641 8.16505 36.1324 8.16509ZM10.6892 6.86548C10.9468 6.21626 11.3913 5.65976 11.9654 5.26777C12.5395 4.87577 13.2169 4.66625 13.9101 4.66621H23.0882C23.7815 4.66625 24.4588 4.87577 25.0329 5.26777C25.607 5.65976 26.0515 6.21626 26.3091 6.86548L27.7502 10.4977H9.2491L10.6892 6.86548ZM6.9367 18.6479C6.63393 18.6479 6.33413 18.5878 6.05441 18.4709C5.77469 18.354 5.52053 18.1827 5.30644 17.9667C5.09235 17.7508 4.92253 17.4944 4.80666 17.2122C4.6908 16.9301 4.63116 16.6277 4.63116 16.3222C4.63116 16.0168 4.6908 15.7144 4.80666 15.4322C4.92253 15.1501 5.09235 14.8937 5.30644 14.6777C5.52053 14.4618 5.77469 14.2905 6.05441 14.1736C6.33413 14.0567 6.63393 13.9966 6.9367 13.9966C8.32394 13.9966 10.4053 16.0892 10.4053 17.4846C10.4053 18.88 8.32394 18.6479 6.9367 18.6479ZM30.0626 18.6479C28.6754 18.6479 26.594 18.88 26.594 17.4856C26.594 16.0912 28.6754 13.9976 30.0626 13.9976C30.6741 13.9976 31.2605 14.2426 31.6929 14.6787C32.1252 15.1149 32.3681 15.7064 32.3681 16.3232C32.3681 16.94 32.1252 17.5316 31.6929 17.9677C31.2605 18.4039 30.6741 18.6489 30.0626 18.6489V18.6479Z" fill="white"/>
</svg>
