<svg width="32" height="28" viewBox="0 0 32 28" fill="none" xmlns="http://www.w3.org/2000/svg">
<path d="M16.4446 25.3747H13.3337V18.5271L22.7074 9.29971C22.8991 9.11104 23.0296 8.87058 23.0822 8.60883C23.1349 8.34707 23.1075 8.07581 23.0033 7.82944C22.8992 7.58307 22.7231 7.37269 22.4973 7.22498C22.2715 7.07728 22.0063 6.9989 21.7352 6.99978H1.37189C1.10081 6.9989 0.835575 7.07728 0.609813 7.22498C0.38405 7.37269 0.207933 7.58307 0.103796 7.82944C-0.000341753 8.07581 -0.0278084 8.34707 0.0248788 8.60883C0.0775661 8.87058 0.208034 9.11104 0.399737 9.29971L9.77344 18.5271V25.3747H6.66688C6.07759 25.3747 5.51244 25.6052 5.09575 26.0154C4.67906 26.4256 4.44497 26.9819 4.44497 27.562C4.44497 27.6194 4.45645 27.6762 4.47876 27.7292C4.50107 27.7822 4.53377 27.8304 4.575 27.871C4.61622 27.9116 4.66516 27.9438 4.71903 27.9657C4.77289 27.9877 4.83062 27.999 4.88892 27.999H18.2225C18.2808 27.999 18.3386 27.9877 18.3924 27.9657C18.4463 27.9438 18.4952 27.9116 18.5364 27.871C18.5777 27.8304 18.6104 27.7822 18.6327 27.7292C18.655 27.6762 18.6665 27.6194 18.6665 27.562C18.6665 27.2747 18.609 26.9903 18.4973 26.725C18.3857 26.4596 18.222 26.2185 18.0157 26.0154C17.8094 25.8123 17.5644 25.6512 17.2949 25.5412C17.0253 25.4313 16.7364 25.3747 16.4446 25.3747ZM24.0003 4.76815e-05C22.3507 0.00307324 20.7426 0.509547 19.3975 1.4497C18.0524 2.38986 17.0366 3.71744 16.4899 5.24958H19.4064C19.9229 4.36923 20.688 3.65545 21.6087 3.19494C22.5294 2.73442 23.5661 2.54698 24.593 2.65538C25.6198 2.76379 26.5926 3.16337 27.3932 3.80559C28.1938 4.44782 28.7877 5.30507 29.1028 6.27321C29.4179 7.24135 29.4407 8.27874 29.1684 9.25937C28.896 10.24 28.3403 11.1217 27.5686 11.7974C26.7969 12.473 25.8426 12.9136 24.8214 13.0655C23.8003 13.2175 22.7563 13.0743 21.8162 12.6534L19.8579 14.5811C20.9122 15.2158 22.1015 15.6012 23.3326 15.7071C24.5637 15.8129 25.8029 15.6363 26.953 15.1912C28.1031 14.7461 29.1326 14.0445 29.9608 13.1417C30.789 12.2388 31.3932 11.1592 31.7261 9.98765C32.0589 8.81612 32.1112 7.58458 31.879 6.38978C31.6468 5.19498 31.1363 4.06945 30.3876 3.10162C29.639 2.13378 28.6726 1.35 27.5643 0.811846C26.456 0.273689 25.2361 -0.00418691 24.0003 4.76815e-05Z" fill="white"/>
</svg>
