<svg width="1440" height="230" viewBox="0 0 1440 230" fill="none" xmlns="http://www.w3.org/2000/svg">
<g clip-path="url(#clip0)">
<rect width="1440" height="230" fill="#C4C4C4" fill-opacity="0.09"/>
<circle cx="-36.5" cy="-71.5" r="186.5" fill="#92B1D6"/>
<circle cx="428.5" cy="276.5" r="130.5" fill="#6AB175"/>
<path d="M473.144 98.4C477.496 98.4 480.92 99.44 483.416 101.52C485.912 103.6 487.16 106.464 487.16 110.112C487.16 113.76 485.912 116.624 483.416 118.704C480.92 120.784 477.496 121.824 473.144 121.824H464.84V132H460.04V98.4H473.144ZM473 117.648C476.04 117.648 478.36 117.008 479.96 115.728C481.56 114.416 482.36 112.544 482.36 110.112C482.36 107.68 481.56 105.824 479.96 104.544C478.36 103.232 476.04 102.576 473 102.576H464.84V117.648H473ZM494.212 98.4H499.012V127.824H517.204V132H494.212V98.4ZM544.26 123.6H526.405L522.709 132H517.764L532.981 98.4H537.733L552.997 132H547.957L544.26 123.6ZM542.581 119.76L535.333 103.296L528.085 119.76H542.581ZM572.564 132.384C569.204 132.384 566.164 131.648 563.444 130.176C560.756 128.672 558.644 126.624 557.108 124.032C555.572 121.408 554.804 118.464 554.804 115.2C554.804 111.936 555.572 109.008 557.108 106.416C558.644 103.792 560.772 101.744 563.492 100.272C566.212 98.768 569.252 98.016 572.612 98.016C575.236 98.016 577.636 98.464 579.812 99.36C581.988 100.224 583.844 101.52 585.38 103.248L582.26 106.272C579.732 103.616 576.58 102.288 572.804 102.288C570.308 102.288 568.052 102.848 566.036 103.968C564.02 105.088 562.436 106.64 561.284 108.624C560.164 110.576 559.604 112.768 559.604 115.2C559.604 117.632 560.164 119.84 561.284 121.824C562.436 123.776 564.02 125.312 566.036 126.432C568.052 127.552 570.308 128.112 572.804 128.112C576.548 128.112 579.7 126.768 582.26 124.08L585.38 127.104C583.844 128.832 581.972 130.144 579.764 131.04C577.588 131.936 575.188 132.384 572.564 132.384ZM616.612 127.824V132H592.228V98.4H615.94V102.576H597.028V112.896H613.876V116.976H597.028V127.824H616.612ZM658.682 123.6H640.826L637.13 132H632.186L647.402 98.4H652.154L667.418 132H662.378L658.682 123.6ZM657.002 119.76L649.754 103.296L642.506 119.76H657.002ZM672.431 98.4H686.591C690.143 98.4 693.295 99.104 696.047 100.512C698.799 101.92 700.927 103.904 702.431 106.464C703.967 108.992 704.735 111.904 704.735 115.2C704.735 118.496 703.967 121.424 702.431 123.984C700.927 126.512 698.799 128.48 696.047 129.888C693.295 131.296 690.143 132 686.591 132H672.431V98.4ZM686.303 127.824C689.023 127.824 691.407 127.296 693.455 126.24C695.535 125.184 697.135 123.712 698.255 121.824C699.375 119.904 699.935 117.696 699.935 115.2C699.935 112.704 699.375 110.512 698.255 108.624C697.135 106.704 695.535 105.216 693.455 104.16C691.407 103.104 689.023 102.576 686.303 102.576H677.231V127.824H686.303ZM740.193 98.4L725.457 132H720.705L705.921 98.4H711.105L723.201 126L735.393 98.4H740.193ZM768.862 127.824V132H744.478V98.4H768.19V102.576H749.278V112.896H766.126V116.976H749.278V127.824H768.862ZM799.098 132L791.85 121.68C790.954 121.744 790.25 121.776 789.738 121.776H781.434V132H776.634V98.4H789.738C794.09 98.4 797.514 99.44 800.01 101.52C802.506 103.6 803.754 106.464 803.754 110.112C803.754 112.704 803.114 114.912 801.834 116.736C800.554 118.56 798.73 119.888 796.362 120.72L804.33 132H799.098ZM789.594 117.696C792.634 117.696 794.954 117.04 796.554 115.728C798.154 114.416 798.954 112.544 798.954 110.112C798.954 107.68 798.154 105.824 796.554 104.544C794.954 103.232 792.634 102.576 789.594 102.576H781.434V117.696H789.594ZM817.712 102.576H806.192V98.4H833.984V102.576H822.464V132H817.712V102.576ZM880.999 98.4V132H876.199V117.024H856.903V132H852.103V98.4H856.903V112.848H876.199V98.4H880.999ZM915.44 127.824V132H891.056V98.4H914.768V102.576H895.856V112.896H912.704V116.976H895.856V127.824H915.44ZM945.676 132L938.428 121.68C937.532 121.744 936.828 121.776 936.316 121.776H928.012V132H923.212V98.4H936.316C940.668 98.4 944.092 99.44 946.588 101.52C949.084 103.6 950.332 106.464 950.332 110.112C950.332 112.704 949.692 114.912 948.412 116.736C947.132 118.56 945.308 119.888 942.94 120.72L950.908 132H945.676ZM936.172 117.696C939.212 117.696 941.532 117.04 943.132 115.728C944.732 114.416 945.532 112.544 945.532 110.112C945.532 107.68 944.732 105.824 943.132 104.544C941.532 103.232 939.212 102.576 936.172 102.576H928.012V117.696H936.172ZM982.471 127.824V132H958.087V98.4H981.799V102.576H962.887V112.896H979.735V116.976H962.887V127.824H982.471Z" fill="black"/>
<path d="M1406.5 115L1556.76 375.25H1256.24L1406.5 115Z" fill="#B7B360"/>
<rect x="851" y="-56" width="355" height="83" fill="#CD97CB"/>
</g>
<defs>
<clipPath id="clip0">
<rect width="1440" height="230" fill="white"/>
</clipPath>
</defs>
</svg>
