<svg width="36" height="28" viewBox="0 0 36 28" fill="none" xmlns="http://www.w3.org/2000/svg">
<path d="M30.5025 17.5357V26.5002C30.5029 26.6977 30.4643 26.8933 30.3889 27.0758C30.3134 27.2583 30.2027 27.424 30.063 27.5635C29.9233 27.703 29.7574 27.8134 29.5749 27.8885C29.3924 27.9636 29.1969 28.0018 28.9995 28.001H21.7483C21.5495 28.0005 21.3589 27.9212 21.2183 27.7805C21.0777 27.6398 20.9984 27.4491 20.9979 27.2501V20.244C20.9973 20.045 20.9181 19.8544 20.7775 19.7137C20.6369 19.573 20.4463 19.4937 20.2475 19.4931H15.7471C15.5482 19.4937 15.3577 19.573 15.2171 19.7137C15.0765 19.8544 14.9972 20.045 14.9967 20.244V27.249C14.9961 27.448 14.9169 27.6387 14.7763 27.7794C14.6356 27.9201 14.4451 27.9994 14.2462 28H6.99924C6.80216 28.0004 6.60695 27.9618 6.4248 27.8866C6.24265 27.8113 6.07715 27.7008 5.9378 27.5613C5.79845 27.4219 5.68799 27.2563 5.61277 27.074C5.53755 26.8917 5.49904 26.6964 5.49946 26.4992V17.5346C5.49929 17.4233 5.52389 17.3132 5.57147 17.2125C5.61904 17.1118 5.68841 17.023 5.77454 16.9525L17.5262 7.26968C17.6616 7.16054 17.8302 7.10103 18.0041 7.10103C18.178 7.10103 18.3467 7.16054 18.4821 7.26968L30.2337 16.9525C30.3179 17.0243 30.3855 17.1135 30.4319 17.214C30.4783 17.3145 30.5024 17.4239 30.5025 17.5346V17.5357ZM35.728 13.7263L30.5025 9.41696V0.754031C30.5019 0.555047 30.4227 0.364374 30.2821 0.22367C30.1415 0.0829673 29.9509 0.00367604 29.7521 0.00311944H26.2498C26.0509 0.00367604 25.8604 0.0829673 25.7197 0.22367C25.5791 0.364374 25.4999 0.555047 25.4993 0.754031V5.29431L19.9049 0.68548C19.3681 0.242657 18.694 0.000488281 17.9983 0.000488281C17.3026 0.000488281 16.6286 0.242657 16.0917 0.68548L0.271831 13.7263C0.119688 13.8534 0.0238316 14.0355 0.00508408 14.233C-0.0136635 14.4305 0.0462125 14.6274 0.171705 14.7809L1.76529 16.7204C1.89236 16.8727 2.07434 16.9686 2.27168 16.9874C2.46902 17.0061 2.66579 16.9462 2.81924 16.8206L17.523 4.70687C17.6584 4.59773 17.8271 4.53822 18.001 4.53822C18.1748 4.53822 18.3435 4.59773 18.4789 4.70687L33.1816 16.8217C33.3351 16.9473 33.5318 17.0072 33.7292 16.9884C33.9265 16.9697 34.1085 16.8737 34.2356 16.7215L35.8292 14.782C35.9546 14.628 36.0142 14.4306 35.9948 14.2328C35.9755 14.0351 35.8788 13.853 35.7259 13.7263H35.728Z" fill="white"/>
</svg>
