<svg width="30" height="28" viewBox="0 0 30 28" fill="none" xmlns="http://www.w3.org/2000/svg">
<path d="M15.5252 14.9394C16.4196 14.5131 16.7115 13.2596 16.1799 12.146C15.6473 11.0287 14.4899 10.4663 13.5955 10.8925C12.701 11.3187 12.4091 12.5722 12.9417 13.6896C13.4742 14.8051 14.6317 15.3675 15.5252 14.9394Z" fill="white"/>
<path d="M18.2057 8.27173C19.0656 13.6542 15.2351 17.6889 15.2351 17.6889C15.2351 17.6889 12.0771 12.3456 6.76648 10.733C17.0967 18.2867 11.2172 27.7039 11.2172 27.7039H14.2073C14.2083 27.7039 21.1585 15.7088 18.2057 8.27173Z" fill="white"/>
<path d="M12.3756 8.88615C12.3178 8.80035 12.259 8.70894 12.2003 8.60821C11.927 8.13628 11.802 7.69793 11.802 7.69793C11.802 7.69793 12.1173 8.02809 12.3905 8.49723C12.4474 8.59702 12.4968 8.69495 12.5425 8.78822C12.5855 8.56345 12.6358 8.10178 12.4176 7.72125C12.1163 7.19988 11.4224 7.0376 11.4224 7.0376C11.4224 7.0376 11.2154 7.72031 11.5166 8.24261C11.7349 8.62314 12.1602 8.8106 12.3756 8.88615Z" fill="white"/>
<path d="M19.2335 12.8457C19.407 12.9949 19.7819 13.2691 20.2194 13.2691C20.8219 13.2691 21.3087 12.7477 21.3087 12.7477C21.3087 12.7477 20.8228 12.2273 20.2194 12.2273C19.7819 12.2273 19.407 12.5015 19.2335 12.6507C19.337 12.6433 19.4452 12.6377 19.5618 12.6377C20.1065 12.6377 20.5514 12.7459 20.5514 12.7459C20.5514 12.7459 20.1065 12.8559 19.5618 12.855C19.4443 12.8596 19.337 12.8531 19.2335 12.8457Z" fill="white"/>
<path d="M17.0456 8.49942C17.317 8.02749 17.6341 7.69826 17.6341 7.69826C17.6341 7.69826 17.5082 8.13848 17.2349 8.61041C17.1771 8.70928 17.1183 8.80254 17.0586 8.88835C17.2769 8.8128 17.7012 8.6244 17.9186 8.24667C18.2207 7.72344 18.0156 7.03979 18.0156 7.03979C18.0156 7.03979 17.3198 7.20488 17.0195 7.72437C16.8012 8.10304 16.8497 8.56378 16.8936 8.79135C16.9365 8.69715 16.9868 8.59922 17.0456 8.49942Z" fill="white"/>
<path d="M14.4742 5.65852C14.4742 4.44512 14.7177 3.46302 14.7177 3.46302C14.7177 3.46302 14.962 4.44698 14.962 5.65852C14.962 5.91501 14.9499 6.1575 14.9313 6.38694C15.2651 6.00175 15.8742 5.16701 15.8742 4.1933C15.8742 2.85398 14.7177 1.76929 14.7177 1.76929C14.7177 1.76929 13.5612 2.85398 13.5612 4.1933C13.5612 5.16701 14.1702 6.00081 14.5032 6.38694C14.4864 6.1575 14.4742 5.91594 14.4742 5.65852Z" fill="white"/>
<path d="M6.73099 9.47307C7.57506 9.95992 8.60099 9.84894 9.10184 9.75287C8.89479 9.65587 8.67747 9.54209 8.45643 9.41525C7.40624 8.80994 6.6769 8.10764 6.6769 8.10764C6.6769 8.10764 7.64967 8.38744 8.69986 8.99368C8.92183 9.12239 9.12609 9.25296 9.31635 9.38447C9.15034 8.90134 8.73343 7.95748 7.88843 7.47063C6.73006 6.80004 5.21167 7.25891 5.21167 7.25891C5.21167 7.25891 5.57168 8.80435 6.73099 9.47307Z" fill="white"/>
<path d="M22.703 16.0231C21.8599 15.5371 20.8339 15.6463 20.3331 15.7423C20.5411 15.8403 20.7575 15.954 20.9794 16.0809C22.0287 16.6871 22.759 17.3885 22.759 17.3885C22.759 17.3885 21.7862 17.1096 20.7351 16.5034C20.5131 16.3737 20.3088 16.2432 20.1195 16.1117C20.2855 16.5948 20.7024 17.5377 21.5456 18.0246C22.7039 18.6952 24.2233 18.2363 24.2233 18.2363C24.2233 18.2363 23.8614 16.6918 22.703 16.0231Z" fill="white"/>
<path d="M9.31448 16.1145C9.12421 16.2442 8.92089 16.3748 8.69892 16.5044C7.64873 17.1088 6.67502 17.3914 6.67502 17.3914C6.67502 17.3914 7.40437 16.6881 8.45456 16.0819C8.67746 15.9523 8.89384 15.8431 9.1009 15.7433C8.60099 15.6463 7.57318 15.5353 6.73005 16.0241C5.57074 16.6928 5.20886 18.2373 5.20886 18.2373C5.20886 18.2373 6.72725 18.6962 7.88656 18.0274C8.73156 17.5387 9.14846 16.5958 9.31448 16.1145Z" fill="white"/>
<path d="M20.1205 9.38074C20.3098 9.2511 20.5141 9.12053 20.7379 8.99182C21.7872 8.38558 22.7599 8.10578 22.7599 8.10578C22.7599 8.10578 22.0315 8.80808 20.9804 9.41339C20.7584 9.5421 20.5411 9.65402 20.3359 9.75101C20.8349 9.84801 21.8627 9.95993 22.704 9.47121C23.8642 8.80155 24.2252 7.25705 24.2252 7.25705C24.2252 7.25705 22.7077 6.79911 21.5493 7.46877C20.7034 7.95562 20.2856 8.89948 20.1205 9.38074Z" fill="white"/>
<path d="M10.2042 5.50642C10.0307 5.2518 9.85441 4.97759 9.68187 4.67914C8.86858 3.27267 8.49271 1.96693 8.49271 1.96693C8.49271 1.96693 9.43471 2.94437 10.2471 4.35457C10.4196 4.65116 10.5679 4.94122 10.7003 5.22009C10.8309 4.5495 10.9792 3.17381 10.3263 2.04341C9.42911 0.488651 7.35859 0.00366211 7.35859 0.00366211C7.35859 0.00366211 6.74396 2.03875 7.64119 3.59258C8.29405 4.72391 9.56062 5.28258 10.2042 5.50642Z" fill="white"/>
<path d="M19.2317 19.991C19.4052 20.2456 19.5833 20.5189 19.7549 20.8164C20.5691 22.2284 20.9441 23.5305 20.9441 23.5305C20.9441 23.5305 20.0021 22.5521 19.1879 21.1437C19.0162 20.8453 18.867 20.5552 18.7346 20.2782C18.6068 20.9488 18.4576 22.3217 19.1095 23.453C20.0077 25.0069 22.0773 25.4937 22.0773 25.4937C22.0773 25.4937 22.6947 23.4568 21.7965 21.9029C21.1418 20.7725 19.8762 20.2139 19.2317 19.991Z" fill="white"/>
<path d="M5.21176 13.0758C3.58612 13.0758 2.26825 12.7475 2.26825 12.7475C2.26825 12.7475 3.58612 12.4192 5.21176 12.4192C5.55685 12.4192 5.88235 12.4379 6.1892 12.4603C5.67344 12.0126 4.5561 11.1956 3.24849 11.1956C1.45497 11.1965 0 12.7475 0 12.7475C0 12.7475 1.4559 14.2995 3.24849 14.2986C4.55516 14.2986 5.6725 13.4825 6.18827 13.0357C5.88142 13.059 5.55499 13.0758 5.21176 13.0758Z" fill="white"/>
<path d="M26.1867 11.1995C24.881 11.1995 23.7636 12.0128 23.2469 12.4623C23.5547 12.439 23.8812 12.4213 24.2235 12.4222C25.85 12.4222 27.167 12.7496 27.167 12.7496C27.167 12.7496 25.85 13.0779 24.2253 13.0779C23.8812 13.0779 23.5547 13.0601 23.2469 13.0378C23.7627 13.4845 24.881 14.3006 26.1867 14.3006C27.9812 14.3006 29.4343 12.7514 29.4343 12.7514C29.4343 12.7514 27.9793 11.1976 26.1867 11.1995Z" fill="white"/>
<path d="M10.2483 21.1444C9.43506 22.5527 8.49306 23.5311 8.49306 23.5311C8.49306 23.5311 8.868 22.2254 9.68129 20.817C9.85476 20.5204 10.031 20.2472 10.2054 19.9897C9.56004 20.2136 8.29347 20.7732 7.6406 21.9045C6.74244 23.4583 7.358 25.4953 7.358 25.4953C7.358 25.4953 9.42946 25.0103 10.3267 23.4565C10.9805 22.3252 10.8322 20.9485 10.7026 20.2798C10.5673 20.5559 10.419 20.8431 10.2483 21.1444Z" fill="white"/>
<path d="M19.1879 4.35184C20.0002 2.94351 20.9422 1.96607 20.9422 1.96607C20.9422 1.96607 20.5673 3.27088 19.7531 4.67828C19.5815 4.97393 19.4052 5.25 19.2317 5.50462C19.8762 5.28171 21.1428 4.72211 21.7947 3.59171C22.6929 2.03789 22.0773 0 22.0773 0C22.0773 0 20.0077 0.485921 19.1095 2.03975C18.4539 3.17108 18.6031 4.54677 18.7327 5.21643C18.8671 4.94129 19.0144 4.65123 19.1879 4.35184Z" fill="white"/>
</svg>
