<svg width="29" height="28" viewBox="0 0 29 28" fill="none" xmlns="http://www.w3.org/2000/svg">
<path d="M15.5989 13.3704C15.8896 13.0837 16.0529 12.6954 16.0529 12.2905C16.0529 11.8857 15.8896 11.4973 15.5989 11.2106L14.5004 10.1306L13.4019 11.2106C13.2576 11.3524 13.1432 11.5208 13.0651 11.7062C12.9871 11.8915 12.9469 12.0902 12.947 12.2908C12.947 12.4914 12.9872 12.69 13.0653 12.8753C13.1435 13.0606 13.2579 13.229 13.4023 13.3708C13.5466 13.5127 13.7179 13.6251 13.9064 13.7019C14.095 13.7786 14.297 13.8181 14.5011 13.8181C14.7051 13.818 14.9072 13.7785 15.0957 13.7017C15.2842 13.6249 15.4555 13.5123 15.5997 13.3704H15.5989Z" fill="white"/>
<path d="M23.303 14.7639H26.4098V15.782H23.303V14.7639Z" fill="white"/>
<path d="M20.7138 18.8359H26.9289V21.8901H20.7138V18.8359Z" fill="white"/>
<path d="M22.2676 11.7088V13.745H27.4462V11.7088H26.8449L28.4738 2.63367L27.4551 2.4591L25.794 11.7112H25.3759V-0.000732422H24.3403V11.7088H23.9101L22.2611 1.44819L21.2385 1.60689L22.8608 11.7096L22.2676 11.7088Z" fill="white"/>
<path d="M20.7138 16.7998V17.8178H27.4462C27.5837 17.8178 27.7155 17.8715 27.8126 17.9671C27.9098 18.0626 27.9644 18.1922 27.9644 18.3273V22.4003C27.9644 22.5354 27.9098 22.665 27.8126 22.7605C27.7155 22.856 27.5837 22.9097 27.4462 22.9097H20.7138V23.9278H28.9992V16.7998H20.7138Z" fill="white"/>
<path d="M13.9822 17.8178C13.9822 17.6842 13.9554 17.5518 13.9034 17.4283C13.8513 17.3048 13.7751 17.1925 13.6789 17.098C13.5827 17.0035 13.4686 16.9285 13.3429 16.8773C13.2173 16.8261 13.0826 16.7998 12.9466 16.7998H2.58933C1.9026 16.7998 1.24399 17.068 0.758397 17.5454C0.272804 18.0228 0 18.6702 0 19.3453C0 20.0205 0.272804 20.6679 0.758397 21.1453C1.24399 21.6227 1.9026 21.8908 2.58933 21.8908H8.28537V19.8548H1.03557V18.8367H8.28537V18.3273C8.28544 18.2527 8.30217 18.179 8.33438 18.1115C8.36659 18.044 8.41349 17.9842 8.47177 17.9365C8.53005 17.8887 8.59828 17.8541 8.67165 17.8351C8.74502 17.8162 8.82174 17.8132 8.89638 17.8266C10.5319 18.1163 12.1883 18.2779 13.8498 18.3098C13.9356 18.1595 13.9811 17.9902 13.9822 17.8178Z" fill="white"/>
<path d="M9.32092 18.9343V28.0024H19.6782V18.9343C16.2484 19.4832 12.7508 19.4832 9.32092 18.9343Z" fill="white"/>
<path d="M17.7953 14.5122C18.668 13.6523 19.1581 12.4871 19.1581 11.2724C19.1581 10.0576 18.668 8.89251 17.7953 8.03256L14.4997 4.79272L11.2041 8.03573C10.3301 8.89499 9.83905 10.0604 9.83905 11.2756C9.83905 12.4907 10.3301 13.6561 11.2041 14.5154C12.0782 15.3747 13.2636 15.8574 14.4997 15.8574C15.7358 15.8574 16.9213 15.3747 17.7953 14.5154V14.5122ZM12.6651 10.49L14.13 9.05061C14.2272 8.9553 14.3588 8.90177 14.4961 8.90177C14.6333 8.90177 14.765 8.9553 14.8621 9.05061L16.3271 10.49C16.6892 10.846 16.9358 11.2996 17.0357 11.7934C17.1356 12.2871 17.0843 12.7989 16.8883 13.2641C16.6923 13.7292 16.3604 14.1267 15.9346 14.4064C15.5088 14.6861 15.0082 14.8354 14.4961 14.8354C13.984 14.8354 13.4834 14.6861 13.0576 14.4064C12.6317 14.1267 12.2999 13.7292 12.1039 13.2641C11.9079 12.7989 11.8566 12.2871 11.9565 11.7934C12.0564 11.2996 12.303 10.846 12.6651 10.49Z" fill="white"/>
<path d="M1.03557 15.781H11.1338C10.3898 15.2563 9.79194 14.5561 9.3952 13.7449H1.03557C0.76092 13.7449 0.497519 13.8521 0.303311 14.0431C0.109104 14.234 0 14.4929 0 14.7629C0 15.0329 0.109104 15.2919 0.303311 15.4828C0.497519 15.6737 0.76092 15.781 1.03557 15.781Z" fill="white"/>
</svg>
