<svg width="28" height="28" viewBox="0 0 28 28" fill="none" xmlns="http://www.w3.org/2000/svg">
<path d="M20.9995 10.4998C20.9995 4.70145 16.2983 0 10.4998 0C4.70145 0 0 4.70145 0 10.4998C0 16.2982 4.70145 20.9994 10.4998 20.9994C16.2983 20.9994 20.9995 16.2982 20.9995 10.4998ZM10.4998 18.3744C6.15736 18.3744 2.62503 14.8424 2.62503 10.4999C2.62503 6.15742 6.15736 2.62509 10.4998 2.62509C14.8422 2.62509 18.3748 6.15742 18.3748 10.4999C18.3748 14.8424 14.8422 18.3744 10.4998 18.3744Z" fill="white"/>
<path d="M27.23 23.5192L20.8065 17.0952C19.8494 18.5837 18.5828 19.8497 17.0942 20.8069L23.5183 27.2309C24.5438 28.2562 26.2066 28.2562 27.2299 27.2309C28.2556 26.2073 28.2555 24.5445 27.23 23.5192Z" fill="white"/>
</svg>
