<svg width="17" height="20" viewBox="0 0 17 20" fill="none" xmlns="http://www.w3.org/2000/svg">
<path d="M8.48402 2.29154C8.16317 2.29154 7.84543 2.3104 7.53121 2.34649L7.56991 0.469799C7.57323 0.305649 7.49186 0.151844 7.35697 0.06678C7.22187 -0.0185138 7.05337 -0.022422 6.91473 0.0568942L1.08801 3.38335C0.949588 3.46244 0.862246 3.61233 0.858708 3.77648C0.855391 3.94063 0.936763 4.09444 1.07165 4.1795L6.75597 7.76253C6.82629 7.8069 6.90589 7.8292 6.98527 7.8292C7.05846 7.8292 7.13165 7.81035 7.19821 7.77242C7.33663 7.69333 7.42397 7.54343 7.42751 7.37928L7.46399 5.6111C7.79722 5.54535 8.13752 5.51018 8.48402 5.51018C11.4729 5.51018 13.9043 8.03818 13.9043 11.146C13.9043 14.2534 11.4729 16.7814 8.48402 16.7814C5.67558 16.7814 3.35625 14.5934 3.0887 11.692C3.00733 10.8074 2.25353 10.1593 1.40023 10.2434C0.549141 10.3282 -0.074417 11.1143 0.00717619 11.9992C0.427525 16.5604 4.0718 20 8.48402 20C13.1799 20 17 16.028 17 11.146C17 6.26357 13.1799 2.29154 8.48402 2.29154Z" fill="#464646"/>
</svg>
