<svg width="14" height="14" viewBox="0 0 14 14" fill="none" xmlns="http://www.w3.org/2000/svg">
<g clip-path="url(#clip0)">
<path d="M6.1596 7.09603C8.13097 7.09592 8.84028 5.12206 9.02596 3.50066C9.2547 1.50328 8.31016 0 6.1596 0C4.00932 0 3.0643 1.50317 3.29322 3.50066C3.47908 5.12206 4.18819 7.09617 6.1596 7.09603Z" fill="white"/>
<path d="M10.4703 7.91786C10.5337 7.91786 10.5967 7.91976 10.6593 7.92324C10.5655 7.78941 10.4569 7.67137 10.3299 7.57648C9.95105 7.29376 9.46046 7.201 9.02675 7.03058C8.81563 6.94765 8.62659 6.86528 8.44912 6.77148C7.85014 7.42836 7.06904 7.77198 6.15945 7.77207C5.25016 7.77207 4.46914 7.42845 3.87022 6.77148C3.69275 6.8653 3.50366 6.94765 3.29259 7.03058C2.85888 7.20102 2.36831 7.29376 1.98949 7.57648C1.33437 8.06545 1.16507 9.16544 1.03204 9.91576C0.922263 10.5351 0.848512 11.1672 0.826986 11.7964C0.810309 12.2837 1.05092 12.352 1.45861 12.4991C1.96908 12.6832 2.49617 12.8199 3.02679 12.932C4.05156 13.1484 5.10787 13.3147 6.15964 13.3221C6.66926 13.3184 7.17992 13.2773 7.68756 13.2115C7.31169 12.6669 7.09123 12.0072 7.09123 11.2969C7.09125 9.43368 8.60707 7.91786 10.4703 7.91786Z" fill="white"/>
<path d="M10.4708 8.59375C8.97791 8.59375 7.76758 9.80409 7.76758 11.297C7.76758 12.7899 8.97789 14.0003 10.4708 14.0003C11.9638 14.0003 13.1741 12.7899 13.1741 11.297C13.1741 9.80406 11.9638 8.59375 10.4708 8.59375ZM11.6535 11.7608H10.9346V12.4796C10.9346 12.7358 10.727 12.9435 10.4709 12.9435C10.2147 12.9435 10.007 12.7358 10.007 12.4796V11.7608H9.28818C9.03202 11.7608 8.82435 11.5531 8.82435 11.297C8.82435 11.0408 9.03199 10.8331 9.28818 10.8331H10.007V10.1143C10.007 9.85812 10.2147 9.65045 10.4709 9.65045C10.727 9.65045 10.9346 9.85812 10.9346 10.1143V10.8331H11.6535C11.9097 10.8331 12.1173 11.0408 12.1173 11.297C12.1173 11.5532 11.9097 11.7608 11.6535 11.7608Z" fill="white"/>
</g>
<defs>
<clipPath id="clip0">
<rect width="14" height="14" fill="white"/>
</clipPath>
</defs>
</svg>
