<svg width="14" height="14" viewBox="0 0 14 14" fill="none" xmlns="http://www.w3.org/2000/svg">
<g clip-path="url(#clip0)">
<path d="M7.52866 3.01812C7.51078 2.68415 7.16946 2.74097 6.83643 2.74097C7.08243 2.80649 7.31516 2.89764 7.52866 3.01812Z" fill="white"/>
<path d="M3.96895 2.18115C2.67608 2.18115 2.08099 3.81759 3.11452 4.64062C3.46685 3.69985 4.16823 3.02434 5.0877 2.75771C4.83618 2.40999 4.42981 2.18115 3.96895 2.18115Z" fill="white"/>
<path d="M1.29779 4.38431C1.35048 4.55337 1.41874 4.71557 1.49984 4.86924L1.07515 5.29417C0.961099 5.40822 0.961099 5.59333 1.07515 5.70762L1.82373 6.45643C1.87825 6.51095 1.95294 6.54163 2.03079 6.54163C2.10779 6.54163 2.18199 6.51095 2.23745 6.45643L2.66167 6.03151C2.72533 6.0652 2.7959 6.08585 2.86183 6.1149C2.86183 6.11007 2.86136 6.10505 2.86136 6.10021C2.86136 5.75296 2.90124 5.42538 2.97225 5.11778C2.46006 4.78814 2.11829 4.21594 2.11829 3.56265C2.11829 2.54216 2.94841 1.71181 3.96867 1.71181C4.65951 1.71181 5.25599 2.09641 5.57439 2.65831C5.91433 2.61615 6.23364 2.61615 6.61801 2.68878C6.56856 2.53921 6.51039 2.39283 6.43752 2.25562L6.86221 1.83049C6.91761 1.77574 6.9483 1.70128 6.9483 1.62387C6.9483 1.54643 6.91761 1.472 6.86221 1.41724L6.11405 0.668899C6.05681 0.611638 5.98212 0.583229 5.90745 0.583229C5.83276 0.583229 5.75809 0.611638 5.70127 0.668899L5.27522 1.09403C5.12132 1.01249 4.95959 0.944229 4.79011 0.892691V0.292057C4.79011 0.130806 4.65999 0 4.49826 0H3.43954C3.27873 0 3.14722 0.130806 3.14722 0.292057V0.892662C2.97818 0.944199 2.81643 1.01246 2.66205 1.094L2.23745 0.669341C2.18016 0.61208 2.10549 0.583671 2.03079 0.583671C1.95613 0.583671 1.88102 0.612081 1.8242 0.669105L1.07515 1.41745C1.02063 1.47244 0.989951 1.54663 0.989951 1.62431C0.989951 1.70195 1.02063 1.77618 1.07515 1.83093L1.49984 2.25583C1.41871 2.40976 1.35048 2.57172 1.29873 2.74076H0.698572C0.53685 2.74076 0.40625 2.87177 0.40625 3.03326V4.09201C0.40625 4.25303 0.53685 4.38431 0.698572 4.38431H1.29779Z" fill="white"/>
<path d="M10.4692 10.0499C10.9374 9.79314 11.259 9.3016 11.259 8.73117C11.259 7.89875 10.5815 7.22168 9.74904 7.22168C9.45631 7.22168 9.18505 7.30918 8.95326 7.45394C8.81446 8.00643 8.59592 8.5349 8.31006 8.99393C9.12044 9.14627 9.86401 9.5153 10.4692 10.0499Z" fill="white"/>
<path d="M13.5937 8.15941C13.5937 7.98509 13.4521 7.84396 13.2785 7.84396H12.6308C12.5748 7.66138 12.5006 7.48638 12.4127 7.32032L12.8712 6.86176C12.9308 6.80264 12.9638 6.72249 12.9638 6.63888C12.9638 6.55525 12.9308 6.47507 12.8712 6.41577L12.064 5.60831C12.0026 5.54665 11.9215 5.51573 11.8409 5.51573C11.7603 5.51573 11.6797 5.54665 11.6183 5.60831L11.1588 6.0671C10.9929 5.97913 10.8184 5.90541 10.6351 5.84971V5.20193C10.6351 5.02785 10.4945 4.88672 10.3204 4.88672H9.1783C9.10177 4.88672 9.03442 4.9174 8.97949 4.96277C9.07566 5.31368 9.12835 5.69418 9.12835 6.10008C9.12835 6.35777 9.10823 6.61941 9.07065 6.87958C9.2832 6.80123 9.5095 6.75202 9.74913 6.75202C10.8404 6.75202 11.7282 7.63967 11.7282 8.73063C11.7282 9.42794 11.364 10.0391 10.8175 10.3916C11.2151 10.8277 11.5312 11.3452 11.7369 11.9249C11.7708 11.9366 11.8061 11.9451 11.8414 11.9451C11.922 11.9451 12.0027 11.9144 12.0645 11.8528L12.8722 11.0453C12.9313 10.9862 12.9638 10.906 12.9638 10.8224C12.9638 10.7388 12.9313 10.6587 12.8722 10.5993L12.4127 10.1405C12.5007 9.97471 12.5749 9.79965 12.6308 9.61689H13.2785C13.3619 9.61689 13.443 9.58391 13.5016 9.52432C13.5608 9.46544 13.5942 9.38507 13.5942 9.30144L13.5937 8.15941Z" fill="white"/>
<path d="M11.0933 12.2106C10.6036 10.7696 9.3094 9.77846 7.81543 9.64355C7.31516 10.1733 6.69576 10.5094 5.99432 10.5094C5.29341 10.5094 4.67354 10.1734 4.17374 9.64355C2.67888 9.77846 1.38466 10.7696 0.894888 12.2109L0.62416 13.0078C0.546721 13.2371 0.583803 13.4898 0.724935 13.6865C0.866037 13.8833 1.09328 14.0001 1.33516 14.0001H10.653C10.8954 14.0001 11.1226 13.8833 11.2638 13.6865C11.4044 13.4898 11.442 13.2371 11.3641 13.0078L11.0933 12.2106Z" fill="white"/>
<path d="M3.56494 6.09995C3.56494 7.88737 4.65301 9.80532 5.99438 9.80532C7.33628 9.80532 8.42429 7.88737 8.42429 6.09995C8.42432 2.39484 3.56494 2.38749 3.56494 6.09995Z" fill="white"/>
</g>
<defs>
<clipPath id="clip0">
<rect width="14" height="14" fill="white"/>
</clipPath>
</defs>
</svg>
