<svg width="93" height="93" viewBox="0 0 93 93" fill="none" xmlns="http://www.w3.org/2000/svg">
<g clip-path="url(#clip0)">
<path d="M50.0115 20.0486C49.8927 17.83 47.6254 18.2074 45.4131 18.2074C47.0473 18.6427 48.5933 19.2482 50.0115 20.0486Z" fill="#CAAA3B"/>
<path d="M26.3646 14.4888C17.7763 14.4888 13.8232 25.3594 20.6888 30.8267C23.0292 24.5772 27.6884 20.09 33.7963 18.3188C32.1255 16.0089 29.426 14.4888 26.3646 14.4888Z" fill="#CAAA3B"/>
<path d="M8.62062 29.1243C8.97062 30.2474 9.42409 31.3248 9.96281 32.3456L7.14164 35.1684C6.38403 35.926 6.38403 37.1557 7.14164 37.9149L12.1144 42.8892C12.4765 43.2513 12.9727 43.4551 13.4899 43.4551C14.0013 43.4551 14.4942 43.2513 14.8626 42.8892L17.6807 40.0664C18.1036 40.2902 18.5723 40.4274 19.0103 40.6204C19.0103 40.5883 19.0072 40.555 19.0072 40.5228C19.0072 38.2161 19.2721 36.0401 19.7438 33.9967C16.3414 31.8069 14.0711 28.0059 14.0711 23.6662C14.0711 16.8872 19.5855 11.3713 26.3629 11.3713C30.9521 11.3713 34.9144 13.9261 37.0295 17.6588C39.2876 17.3787 41.4088 17.3787 43.962 17.8612C43.6336 16.8676 43.2472 15.8952 42.7631 14.9838L45.5843 12.1597C45.9523 11.796 46.1561 11.3013 46.1561 10.7871C46.1561 10.2727 45.9523 9.77826 45.5843 9.41454L40.6143 4.4434C40.2341 4.06302 39.7379 3.87431 39.2419 3.87431C38.7457 3.87431 38.2497 4.06302 37.8723 4.4434L35.0421 7.26751C34.0198 6.72585 32.9455 6.27238 31.8196 5.93002V1.94009C31.8196 0.868926 30.9552 0 29.8809 0H22.848C21.7797 0 20.9061 0.868926 20.9061 1.94009V5.92982C19.7832 6.27218 18.7087 6.72565 17.6832 7.26731L14.8626 4.44634C14.482 4.06596 13.9861 3.87725 13.4899 3.87725C12.9939 3.87725 12.4949 4.06596 12.1175 4.44477L7.14164 9.41592C6.77949 9.7812 6.57568 10.2741 6.57568 10.79C6.57568 11.3058 6.77949 11.7989 7.14164 12.1626L9.96281 14.9852C9.4239 16.0077 8.97062 17.0836 8.62689 18.2065H4.6401C3.5658 18.2065 2.69824 19.0768 2.69824 20.1495V27.1827C2.69824 28.2523 3.5658 29.1243 4.6401 29.1243H8.62062Z" fill="#CAAA3B"/>
<path d="M69.5449 66.7599C72.6553 65.054 74.7916 61.7887 74.7916 57.9995C74.7916 52.4698 70.2908 47.9722 64.7611 47.9722C62.8165 47.9722 61.0146 48.5534 59.4749 49.515C58.5528 53.1851 57.1011 56.6957 55.2021 59.745C60.5854 60.757 65.5248 63.2083 69.5449 66.7599Z" fill="#CAAA3B"/>
<path d="M90.3006 54.2019C90.3006 53.044 89.3601 52.1064 88.2066 52.1064H83.9038C83.5322 50.8936 83.0393 49.7311 82.455 48.628L85.5011 45.5818C85.897 45.1891 86.1159 44.6567 86.1159 44.1013C86.1159 43.5457 85.8968 43.0131 85.5011 42.6192L80.1388 37.2553C79.7312 36.8457 79.1925 36.6404 78.6571 36.6404C78.1213 36.6404 77.5857 36.8457 77.1781 37.2553L74.1257 40.303C73.0238 39.7186 71.8644 39.2289 70.6471 38.8589V34.5558C70.6471 33.3994 69.7127 32.4619 68.5563 32.4619H60.9696C60.4612 32.4619 60.0138 32.6657 59.6489 32.9671C60.2878 35.2982 60.6378 37.8258 60.6378 40.5221C60.6378 42.2339 60.5041 43.972 60.2545 45.7002C61.6664 45.1797 63.1697 44.8528 64.7615 44.8528C72.0104 44.8528 77.9083 50.7493 77.9083 57.9965C77.9083 62.6286 75.4891 66.6883 71.8584 69.0301C74.5 71.9273 76.5998 75.3646 77.9663 79.2158C78.1913 79.2934 78.4257 79.3498 78.66 79.3498C79.1956 79.3498 79.7314 79.146 80.1421 78.7365L85.5076 73.3726C85.9003 72.9799 86.1162 72.4474 86.1162 71.8921C86.1162 71.3367 85.9003 70.8042 85.5076 70.4099L82.4552 67.3622C83.0395 66.2607 83.5324 65.0978 83.904 63.8838H88.2068C88.7606 63.8838 89.2994 63.6647 89.689 63.2688C90.0817 62.8777 90.3039 62.3439 90.3039 61.7883L90.3006 54.2019Z" fill="#CAAA3B"/>
<path d="M73.6912 81.1139C70.4378 71.5412 61.8408 64.9572 51.9165 64.061C48.5933 67.5802 44.4787 69.8129 39.8192 69.8129C35.1631 69.8129 31.0454 67.5804 27.7253 64.061C17.7952 64.9572 9.19785 71.5412 5.94437 81.1154L4.14596 86.4091C3.63155 87.9324 3.87788 89.6109 4.81539 90.9178C5.75271 92.2251 7.26226 93.0011 8.86901 93.0011H70.7664C72.3763 93.0011 73.8858 92.2251 74.8233 90.9178C75.7575 89.6109 76.0072 87.9324 75.4896 86.4091L73.6912 81.1139Z" fill="#CAAA3B"/>
<path d="M23.6812 40.5216C23.6812 52.3952 30.9091 65.1359 39.8196 65.1359C48.7336 65.1359 55.9611 52.3952 55.9611 40.5216C55.9613 15.9091 23.6812 15.8603 23.6812 40.5216Z" fill="#CAAA3B"/>
</g>
<defs>
<clipPath id="clip0">
<rect width="93" height="93" fill="white"/>
</clipPath>
</defs>
</svg>
