<svg id="afiaanyi_icon" data-name="afiaanyi icon" xmlns="http://www.w3.org/2000/svg" width="122.051" height="107.099" viewBox="0 0 122.051 107.099">
  <path id="Path_3" data-name="Path 3" d="M41.579-15.786a4,4,0,0,0-5.535,0L-12.81,31.022a4,4,0,0,0,2.767,6.888h97.71a4,4,0,0,0,2.767-6.888Z" transform="translate(14.051 61.824)" fill="#e6b712"/>
  <path id="Path_4" data-name="Path 4" d="M41.276-15.774a4,4,0,0,0-5.654.028L9.66,10.451A4,4,0,0,0,12.5,17.266H64.948a4,4,0,0,0,2.813-6.844Z" transform="translate(14.051 82.5)"/>
  <path id="Path_5" data-name="Path 5" d="M51.948,26.141a4,4,0,0,0-.018,5.639l49.224,49.859A4,4,0,0,0,108,78.828V-20.255a4,4,0,0,0-6.828-2.828Z" transform="translate(14.051 24.263)"/>
  <path id="Path_6" data-name="Path 6" d="M74.507,24.889a4,4,0,0,0,.009,5.638l26.622,26.714a4,4,0,0,0,6.833-2.824V.818A4,4,0,0,0,101.129-2Z" transform="translate(14.051 27.601)" fill="#e6b712"/>
</svg>
