<svg width="14" height="14" viewBox="0 0 14 14" fill="none" xmlns="http://www.w3.org/2000/svg">
<g clip-path="url(#clip0)">
<path d="M8.26185 8.59501C9.1081 8.25296 9.77616 7.78736 10.2657 7.19803C10.7552 6.60884 10.9999 5.9672 10.9999 5.2731C10.9999 4.57896 10.7552 3.93727 10.2655 3.34805C9.77602 2.75883 9.10808 2.29318 8.26171 1.95105C7.41535 1.60896 6.49481 1.43799 5.49995 1.43799C4.50517 1.43799 3.58462 1.60907 2.73821 1.95105C1.89187 2.29316 1.2239 2.75881 0.734388 3.34805C0.244823 3.93738 0 4.57896 0 5.27312C0 5.8673 0.18517 6.42682 0.554937 6.95113C0.924675 7.47534 1.43252 7.91735 2.0783 8.27683C2.02626 8.39678 1.97287 8.5065 1.91817 8.60651C1.86344 8.70636 1.7984 8.8024 1.72282 8.89486C1.6473 8.98734 1.58877 9.05969 1.54706 9.11196C1.50539 9.16437 1.43769 9.2382 1.34389 9.33291C1.25011 9.4278 1.19019 9.49022 1.16419 9.5201C1.16419 9.51509 1.15376 9.52639 1.13291 9.55386C1.11203 9.58133 1.10032 9.59374 1.09775 9.59141C1.09512 9.5887 1.0847 9.60119 1.06647 9.62866C1.04825 9.65615 1.03911 9.66988 1.03911 9.66988L1.01955 9.70721C1.01183 9.72229 1.00652 9.73704 1.00395 9.75212C1.00132 9.767 1.00001 9.78334 1.00001 9.80076C1.00001 9.81818 1.00258 9.83434 1.00789 9.8494C1.01831 9.91423 1.04825 9.96657 1.09772 10.0067C1.14717 10.0466 1.2005 10.0665 1.25786 10.0665H1.28131C1.54167 10.0316 1.76567 9.99163 1.95314 9.94663C2.75523 9.74698 3.47924 9.42725 4.12506 8.98786C4.59377 9.06778 5.05211 9.10771 5.5 9.10771C6.49487 9.10805 7.41552 8.93712 8.26185 8.59501Z" fill="white"/>
<path d="M13.4454 8.87209C13.8153 8.3503 14.0001 7.78996 14.0001 7.19067C14.0001 6.57639 13.8046 6.00179 13.4141 5.46753C13.0235 4.93333 12.4921 4.48882 11.8203 4.13428C11.94 4.50876 11.9999 4.88826 11.9999 5.27284C11.9999 5.94192 11.8257 6.57611 11.4765 7.1754C11.1275 7.77451 10.6275 8.30378 9.9765 8.76327C9.37231 9.18272 8.6848 9.5047 7.9139 9.72949C7.14323 9.95412 6.33849 10.0666 5.49993 10.0666C5.34374 10.0666 5.11454 10.0567 4.8125 10.0367C5.85933 10.6957 7.08853 11.0254 8.49993 11.0254C8.9479 11.0254 9.40619 10.9854 9.87498 10.9055C10.5208 11.3451 11.2448 11.6645 12.0468 11.8644C12.2343 11.9094 12.4583 11.9493 12.7187 11.9842C12.7812 11.9892 12.8386 11.9717 12.8907 11.9318C12.9427 11.8918 12.9766 11.8371 12.9922 11.7672C12.9897 11.7372 12.9922 11.7208 13 11.7184C13.0077 11.716 13.0064 11.6997 12.9961 11.6698C12.9858 11.6398 12.9805 11.6248 12.9805 11.6248L12.9611 11.5874C12.9556 11.5776 12.9468 11.5638 12.9337 11.5463C12.9207 11.529 12.9103 11.5164 12.9024 11.5089C12.8948 11.5015 12.8832 11.4889 12.8674 11.4715C12.8519 11.4542 12.8414 11.4429 12.8361 11.4379C12.8101 11.4079 12.7503 11.3455 12.6565 11.2506C12.5627 11.1558 12.4951 11.0822 12.4534 11.0297C12.4118 10.9773 12.3531 10.9049 12.2777 10.8125C12.2022 10.7202 12.137 10.624 12.0823 10.5241C12.0276 10.4243 11.9742 10.3144 11.9222 10.1946C12.568 9.83475 13.0757 9.39407 13.4454 8.87209Z" fill="white"/>
</g>
<defs>
<clipPath id="clip0">
<rect width="14" height="13.4227" fill="white"/>
</clipPath>
</defs>
</svg>
