<svg width="14" height="14" viewBox="0 0 14 14" fill="none" xmlns="http://www.w3.org/2000/svg">
<path d="M13.7782 1.47852H0.221814C0.0993282 1.47852 0 1.5778 0 1.70033V12.2994C0 12.4219 0.0993282 12.5212 0.221814 12.5212H13.7782C13.9008 12.5212 14 12.4219 14 12.2994V1.70033C14 1.5778 13.9008 1.47852 13.7782 1.47852ZM12.6691 10.7528L9.61847 7.59352C9.58475 7.5587 9.52961 7.55643 9.49323 7.58846L7.37735 9.45077L4.67291 6.12086C4.65534 6.09912 4.62965 6.0867 4.6006 6.08732C4.5726 6.08789 4.54647 6.10134 4.52975 6.12378L1.33088 10.4161V2.8094H12.6691V10.7528Z" fill="white"/>
<path d="M9.3186 6.01353C9.91918 6.01353 10.4068 5.52634 10.4068 4.92527C10.4068 4.32437 9.91918 3.83691 9.3186 3.83691C8.71753 3.83691 8.23047 4.32437 8.23047 4.92527C8.23047 5.52629 8.71757 6.01353 9.3186 6.01353Z" fill="white"/>
</svg>
