<svg width="14" height="14" viewBox="0 0 14 14" fill="none" xmlns="http://www.w3.org/2000/svg">
<path d="M2.25 1.30322H2.75V7.70166H2.25V1.30322Z" fill="white"/>
<path d="M2.75 0.592448C2.75 0.461577 2.63806 0.355469 2.5 0.355469C2.36194 0.355469 2.25 0.461577 2.25 0.592448V0.829427H2.75V0.592448Z" fill="white"/>
<path d="M6 11.9673H8V12.2043H6V11.9673Z" fill="white"/>
<path d="M0 11.9673V12.6782C0 12.8091 0.111938 12.9152 0.25 12.9152H13.75C13.8881 12.9152 14 12.8091 14 12.6782V11.9673H8.5V12.2043C8.5 12.466 8.27612 12.6782 8 12.6782H6C5.72388 12.6782 5.5 12.466 5.5 12.2043V11.9673H0Z" fill="white"/>
<path d="M2.73096 8.17578H2.26953L2.50024 8.72275L2.73096 8.17578Z" fill="white"/>
<path d="M11.25 1.54036H10.5C10.2239 1.54036 10 1.32815 10 1.06641V0.355469H4.25V10.0716H11.25V1.54036ZM6 0.829427H8V1.30339H6V0.829427ZM5 0.829427H5.5V1.30339H5V0.829427ZM5 1.77734H8V2.2513H5V1.77734ZM5 3.19922H9V3.67318H5V3.19922ZM10.5 9.36068H5V8.88672H10.5V9.36068ZM10.5 7.9388H5V7.46484H10.5V7.9388ZM10.5 6.51693H5V6.04297H10.5V6.51693ZM10.5 5.09505H5V4.62109H10.5V5.09505ZM10.5 3.67318H9.5V3.19922H10.5V3.67318Z" fill="white"/>
<path d="M10.5 1.06683H10.8955L10.5 0.692383V1.06683Z" fill="white"/>
<path d="M11.75 2.9624V10.0718H12.25V10.5457H2.25V10.0718H3.75V2.9624H3.25V8.17594L3.23206 8.26504L2.73206 9.44855C2.69434 9.53892 2.60205 9.5984 2.49951 9.5984C2.39685 9.5984 2.30469 9.53892 2.26697 9.44855L1.76697 8.26504L1.75 8.17594V2.9624C1.47388 2.9624 1.25 3.17462 1.25 3.43636V11.4937H12.75V3.43636C12.75 3.17462 12.5261 2.9624 12.25 2.9624H11.75Z" fill="white"/>
</svg>
