<svg width="96" height="91" viewBox="0 0 96 91" fill="none" xmlns="http://www.w3.org/2000/svg">
<path d="M15.4277 8.9375H18.8563V52.8125H15.4277V8.9375Z" fill="#CAAA3B"/>
<path d="M18.8563 4.0625C18.8563 3.1651 18.0887 2.4375 17.142 2.4375C16.1953 2.4375 15.4277 3.1651 15.4277 4.0625V5.6875H18.8563V4.0625Z" fill="#CAAA3B"/>
<path d="M41.1426 82.0625H54.8569V83.6875H41.1426V82.0625Z" fill="#CAAA3B"/>
<path d="M0 82.0625V86.9375C0 87.8349 0.767578 88.5625 1.71429 88.5625H94.2857C95.2324 88.5625 96 87.8349 96 86.9375V82.0625H58.2857V83.6875C58.2857 85.4823 56.7506 86.9375 54.8571 86.9375H41.1429C39.2494 86.9375 37.7143 85.4823 37.7143 83.6875V82.0625H0Z" fill="#CAAA3B"/>
<path d="M18.7246 56.0625H15.5605L17.1426 59.8132L18.7246 56.0625Z" fill="#CAAA3B"/>
<path d="M77.1426 10.5625H71.9997C70.1063 10.5625 68.5712 9.1073 68.5712 7.3125V2.4375H29.1426V69.0625H77.1426V10.5625ZM41.1426 5.6875H54.8569V8.9375H41.1426V5.6875ZM34.2854 5.6875H37.714V8.9375H34.2854V5.6875ZM34.2854 12.1875H54.8569V15.4375H34.2854V12.1875ZM34.2854 21.9375H61.714V25.1875H34.2854V21.9375ZM71.9997 64.1875H34.2854V60.9375H71.9997V64.1875ZM71.9997 54.4375H34.2854V51.1875H71.9997V54.4375ZM71.9997 44.6875H34.2854V41.4375H71.9997V44.6875ZM71.9997 34.9375H34.2854V31.6875H71.9997V34.9375ZM71.9997 25.1875H65.1426V21.9375H71.9997V25.1875Z" fill="#CAAA3B"/>
<path d="M72 7.31226H74.7121L72 4.74463V7.31226Z" fill="#CAAA3B"/>
<path d="M80.5723 20.3125V69.0625H84.0008V72.3125H15.4294V69.0625H25.7151V20.3125H22.2866V56.0625L22.1635 56.6735L18.7349 64.7889C18.4763 65.4086 17.8435 65.8165 17.1403 65.8165C16.4364 65.8165 15.8044 65.4086 15.5458 64.7889L12.1172 56.6735L12.0008 56.0625V20.3125C10.1074 20.3125 8.57227 21.7677 8.57227 23.5625V78.8125H87.4294V23.5625C87.4294 21.7677 85.8942 20.3125 84.0008 20.3125H80.5723Z" fill="#CAAA3B"/>
</svg>
