<svg width="14" height="14" viewBox="0 0 14 14" fill="none" xmlns="http://www.w3.org/2000/svg">
<path d="M0.565592 3.55073L6.88589 6.593C6.95921 6.62828 7.04465 6.62828 7.11797 6.593L13.4383 3.55069C13.6403 3.45353 13.6403 3.16585 13.4383 3.06865L7.11789 0.0264599C7.04461 -0.00881997 6.95917 -0.00881997 6.88585 0.0264599L0.565592 3.06869C0.363553 3.16589 0.363553 3.45353 0.565592 3.55073Z" fill="white"/>
<path d="M0.563644 7.24119L6.88395 10.2835C6.95727 10.3188 7.04271 10.3188 7.11602 10.2835L13.4363 7.24123C13.6384 7.14407 13.6384 6.85639 13.4363 6.75911L12.1029 6.11735L7.86766 8.15582C7.59862 8.28526 7.29854 8.35366 6.99999 8.35366C6.70143 8.35366 6.40143 8.28526 6.13191 8.15562L1.89716 6.11719L0.563604 6.75907C0.361605 6.85639 0.361605 7.14403 0.563644 7.24119Z" fill="white"/>
<path d="M13.4364 10.4485L12.1029 9.80664L7.8677 11.8452C7.59866 11.9747 7.29858 12.0431 7.00002 12.0431C6.70146 12.0431 6.40146 11.9747 6.13194 11.845L1.8972 9.80664L0.563639 10.4486C0.3616 10.5458 0.3616 10.8334 0.563639 10.9307L6.88394 13.9729C6.95726 14.0082 7.0427 14.0082 7.11602 13.9729L13.4363 10.9307C13.6384 10.8334 13.6384 10.5458 13.4364 10.4485Z" fill="white"/>
</svg>
