<svg width="93" height="93" viewBox="0 0 93 93" fill="none" xmlns="http://www.w3.org/2000/svg">
<path d="M3.75073 23.587L45.7356 43.7964C46.2226 44.0307 46.7902 44.0307 47.2773 43.7964L89.2621 23.5867C90.6042 22.9413 90.6042 21.0303 89.2621 20.3846L47.2767 0.175769C46.7899 -0.0585898 46.2224 -0.0585898 45.7353 0.175769L3.75073 20.3849C2.40861 21.0306 2.40861 22.9413 3.75073 23.587Z" fill="#CAAA3B"/>
<path d="M3.74393 48.1018L45.7288 68.3115C46.2158 68.5458 46.7834 68.5458 47.2705 68.3115L89.2553 48.1021C90.5974 47.4567 90.5974 45.5456 89.2553 44.8994L80.3975 40.6363L52.2635 54.1776C50.4763 55.0375 48.4829 55.4919 46.4996 55.4919C44.5163 55.4919 42.5235 55.0375 40.7331 54.1763L12.6023 40.6353L3.74366 44.8992C2.40181 45.5456 2.40181 47.4564 3.74393 48.1018Z" fill="#CAAA3B"/>
<path d="M89.2556 69.4114L80.3977 65.1475L52.2637 78.6895C50.4765 79.5494 48.4831 80.0037 46.4999 80.0037C44.5166 80.0037 42.5237 79.5494 40.7333 78.6882L12.6025 65.1475L3.74389 69.4116C2.40177 70.0578 2.40177 71.968 3.74389 72.6143L45.7288 92.8236C46.2158 93.058 46.7834 93.058 47.2704 92.8236L89.2553 72.6143C90.5977 71.9678 90.5977 70.0573 89.2556 69.4114Z" fill="#CAAA3B"/>
</svg>
