<svg width="14" height="14" viewBox="0 0 14 14" fill="none" xmlns="http://www.w3.org/2000/svg">
<g clip-path="url(#clip0)">
<path fill-rule="evenodd" clip-rule="evenodd" d="M1.13346 0C0.511443 0 0.000976562 0.512572 0.000976562 1.13491V5.26168C0.000976562 5.88402 0.511443 6.39659 1.13346 6.39659H5.24794C5.86997 6.39659 6.38042 5.88401 6.38042 5.26168V1.13491C6.38042 0.51258 5.86997 0 5.24794 0H1.13346ZM1.13346 0.636333H5.24794C5.52295 0.636333 5.74409 0.857537 5.74409 1.13491V5.26168C5.74409 5.53905 5.52295 5.76025 5.24794 5.76025H1.13346C0.858467 5.76025 0.63731 5.53904 0.63731 5.26168V1.13491C0.63731 0.857545 0.858467 0.636333 1.13346 0.636333Z" fill="white"/>
<path d="M1.13346 0.636333H5.24794C5.52295 0.636333 5.74409 0.857537 5.74409 1.13491V5.26168C5.74409 5.53905 5.52295 5.76025 5.24794 5.76025H1.13346C0.858467 5.76025 0.63731 5.53904 0.63731 5.26168V1.13491C0.63731 0.857545 0.858467 0.636333 1.13346 0.636333Z" fill="white"/>
<path fill-rule="evenodd" clip-rule="evenodd" d="M8.75307 0C8.13203 0 7.62061 0.511829 7.62061 1.13491V5.26168C7.62061 5.88476 8.13203 6.39659 8.75307 6.39659H12.8692C13.4902 6.39659 14.0001 5.88401 14.0001 5.26168V1.13491C14.0001 0.51258 13.4902 0 12.8692 0H8.75307ZM8.75307 0.636333H12.8692C13.142 0.636333 13.3637 0.857537 13.3637 1.13491V5.26168C13.3637 5.53905 13.142 5.76025 12.8692 5.76025H8.75307C8.48028 5.76025 8.25694 5.5383 8.25694 5.26168V1.13491C8.25694 0.858288 8.48028 0.636333 8.75307 0.636333Z" fill="white"/>
<path d="M8.75307 0.636333H12.8692C13.142 0.636333 13.3637 0.857537 13.3637 1.13491V5.26168C13.3637 5.53905 13.142 5.76025 12.8692 5.76025H8.75307C8.48028 5.76025 8.25694 5.5383 8.25694 5.26168V1.13491C8.25694 0.858288 8.48028 0.636333 8.75307 0.636333Z" fill="white"/>
<path fill-rule="evenodd" clip-rule="evenodd" d="M1.13248 7.60107C0.509703 7.60107 0 8.11464 0 8.73599V12.8643C0 13.4857 0.509703 13.9993 1.13248 13.9993H5.24696C5.86976 13.9993 6.37945 13.4857 6.37945 12.8643V8.73599C6.37945 8.11464 5.86976 7.60107 5.24696 7.60107H1.13248ZM1.13248 8.23741H5.24696C5.52122 8.23741 5.74311 8.46082 5.74311 8.73599V12.8643C5.74311 13.1395 5.52122 13.3629 5.24696 13.3629H1.13248C0.858254 13.3629 0.636333 13.1395 0.636333 12.8643V8.73599C0.636333 8.46084 0.858254 8.23741 1.13248 8.23741Z" fill="white"/>
<path d="M1.13248 8.23741H5.24696C5.52122 8.23741 5.74311 8.46082 5.74311 8.73599V12.8643C5.74311 13.1395 5.52122 13.3629 5.24696 13.3629H1.13248C0.858254 13.3629 0.636333 13.1395 0.636333 12.8643V8.73599C0.636333 8.46084 0.858254 8.23741 1.13248 8.23741Z" fill="white"/>
<path fill-rule="evenodd" clip-rule="evenodd" d="M8.75307 7.60107C8.13126 7.60107 7.62061 8.11389 7.62061 8.73599V12.8643C7.62061 13.4864 8.13126 13.9993 8.75307 13.9993H12.8692C13.491 13.9993 14.0001 13.4857 14.0001 12.8643V8.73599C14.0001 8.11464 13.491 7.60107 12.8692 7.60107H8.75307ZM8.75307 8.23741H12.8692C13.1412 8.23741 13.3637 8.46082 13.3637 8.73599V12.8643C13.3637 13.1395 13.1412 13.3629 12.8692 13.3629H8.75307C8.48102 13.3629 8.25694 13.1388 8.25694 12.8643V8.73599C8.25694 8.46159 8.48102 8.23741 8.75307 8.23741Z" fill="white"/>
</g>
<defs>
<clipPath id="clip0">
<rect width="14" height="13.9992" fill="white"/>
</clipPath>
</defs>
</svg>
