<svg width="93" height="93" viewBox="0 0 93 93" fill="none" xmlns="http://www.w3.org/2000/svg">
<g clip-path="url(#clip0)">
<path fill-rule="evenodd" clip-rule="evenodd" d="M7.52829 0C3.39633 0 0.00537109 3.40513 0.00537109 7.53943V34.9545C0.00537109 39.0889 3.39633 42.494 7.52829 42.494H34.8602C38.9923 42.494 42.3831 39.0888 42.3831 34.9545V7.53943C42.3831 3.40518 38.9923 0 34.8602 0H7.52829ZM7.52829 4.2273H34.8602C36.687 4.2273 38.156 5.69682 38.156 7.53943V34.9545C38.156 36.7972 36.687 38.2667 34.8602 38.2667H7.52829C5.70156 38.2667 4.23244 36.7971 4.23244 34.9545V7.53943C4.23244 5.69687 5.70156 4.2273 7.52829 4.2273Z" fill="#CAAA3B"/>
<path d="M7.52829 4.2273H34.8602C36.687 4.2273 38.156 5.69682 38.156 7.53943V34.9545C38.156 36.7972 36.687 38.2667 34.8602 38.2667H7.52829C5.70156 38.2667 4.23244 36.7971 4.23244 34.9545V7.53943C4.23244 5.69687 5.70156 4.2273 7.52829 4.2273Z" fill="#CAAA3B"/>
<path fill-rule="evenodd" clip-rule="evenodd" d="M58.1454 0C54.0199 0 50.6226 3.40019 50.6226 7.53943V34.9545C50.6226 39.0938 54.0199 42.494 58.1454 42.494H85.488C89.6135 42.494 93.0005 39.0888 93.0005 34.9545V7.53943C93.0005 3.40518 89.6135 0 85.488 0H58.1454ZM58.1454 4.2273H85.488C87.3001 4.2273 88.7734 5.69682 88.7734 7.53943V34.9545C88.7734 36.7972 87.3001 38.2667 85.488 38.2667H58.1454C56.3332 38.2667 54.8496 36.7922 54.8496 34.9545V7.53943C54.8496 5.7018 56.3332 4.2273 58.1454 4.2273Z" fill="#CAAA3B"/>
<path d="M58.1454 4.2273H85.488C87.3001 4.2273 88.7734 5.69682 88.7734 7.53943V34.9545C88.7734 36.7972 87.3001 38.2667 85.488 38.2667H58.1454C56.3332 38.2667 54.8496 36.7922 54.8496 34.9545V7.53943C54.8496 5.7018 56.3332 4.2273 58.1454 4.2273Z" fill="#CAAA3B"/>
<path fill-rule="evenodd" clip-rule="evenodd" d="M7.52292 50.4956C3.38588 50.4956 0 53.9074 0 58.0351V85.4607C0 89.5886 3.38588 93.0002 7.52292 93.0002H34.8548C38.992 93.0002 42.3778 89.5885 42.3778 85.4607V58.0351C42.3778 53.9074 38.992 50.4956 34.8548 50.4956H7.52292ZM7.52292 54.7229H34.8548C36.6767 54.7229 38.1507 56.2071 38.1507 58.0351V85.4607C38.1507 87.2887 36.6767 88.7729 34.8548 88.7729H7.52292C5.70126 88.7729 4.22707 87.2886 4.22707 85.4607V58.0351C4.22707 56.2072 5.70126 54.7229 7.52292 54.7229Z" fill="#CAAA3B"/>
<path d="M7.52292 54.7229H34.8548C36.6767 54.7229 38.1507 56.2071 38.1507 58.0351V85.4607C38.1507 87.2887 36.6767 88.7729 34.8548 88.7729H7.52292C5.70126 88.7729 4.22707 87.2886 4.22707 85.4607V58.0351C4.22707 56.2072 5.70126 54.7229 7.52292 54.7229Z" fill="#CAAA3B"/>
<path fill-rule="evenodd" clip-rule="evenodd" d="M58.1454 50.4956C54.0148 50.4956 50.6226 53.9024 50.6226 58.0351V85.4607C50.6226 89.5934 54.0148 93.0002 58.1454 93.0002H85.488C89.6185 93.0002 93.0005 89.5885 93.0005 85.4607V58.0351C93.0005 53.9074 89.6185 50.4956 85.488 50.4956H58.1454ZM58.1454 54.7229H85.488C87.295 54.7229 88.7734 56.2071 88.7734 58.0351V85.4607C88.7734 87.2887 87.295 88.7729 85.488 88.7729H58.1454C56.3382 88.7729 54.8496 87.2836 54.8496 85.4607V58.0351C54.8496 56.2122 56.3382 54.7229 58.1454 54.7229Z" fill="#CAAA3B"/>
</g>
<defs>
<clipPath id="clip0">
<rect width="93" height="93" fill="white"/>
</clipPath>
</defs>
</svg>
