<svg width="15" height="15" viewBox="0 0 15 15" fill="none" xmlns="http://www.w3.org/2000/svg">
<path d="M11.1808 3.16576C11.7557 3.16576 12.2213 2.7032 12.2213 2.12733V1.04049C12.2213 0.464098 11.7562 0 11.1808 0C10.6055 0 10.1409 0.463583 10.1409 1.04049V2.12785C10.1414 2.7032 10.606 3.16576 11.1808 3.16576Z" fill="#030104"/>
<path d="M14.8769 1.79971H12.7826V2.32871C12.7826 3.20179 12.0733 3.91313 11.1987 3.91313C10.323 3.91313 9.61526 3.20179 9.61526 2.32871V1.79971H5.38893V2.32871C5.38893 3.20179 4.67862 3.91313 3.80451 3.91313C2.9304 3.91313 2.2206 3.2023 2.2206 2.32871V1.79971L0.107178 1.77344V15H1.16415H13.8375L14.8929 14.9969L14.8769 1.79971ZM13.8364 13.9466H1.16415V5.49704H13.8375V13.9466H13.8364Z" fill="#030104"/>
<path d="M3.78799 3.16576C4.36283 3.16576 4.82899 2.7032 4.82899 2.12733V1.04049C4.82899 0.463583 4.36283 0 3.78799 0C3.21315 0 2.74854 0.463583 2.74854 1.04049V2.12785C2.74854 2.7032 3.21263 3.16576 3.78799 3.16576Z" fill="#030104"/>
<path d="M7.05635 6.63086H5.39209V8.0999H7.05635V6.63086Z" fill="#030104"/>
<path d="M9.74857 6.63086H8.08276V8.0999H9.74857V6.63086Z" fill="#030104"/>
<path d="M12.2426 6.63086H10.5784V8.0999H12.2426V6.63086Z" fill="#030104"/>
<path d="M7.05635 9.07031H5.39209V10.5383H7.05635V9.07031Z" fill="#030104"/>
<path d="M9.74857 9.07031H8.08276V10.5383H9.74857V9.07031Z" fill="#030104"/>
<path d="M12.2426 9.07031H10.5784V10.5383H12.2426V9.07031Z" fill="#030104"/>
<path d="M7.05635 11.5586H5.39209V13.0266H7.05635V11.5586Z" fill="#030104"/>
<path d="M4.41177 9.07031H2.74854V10.5383H4.41177V9.07031Z" fill="#030104"/>
<path d="M4.41177 11.5586H2.74854V13.0266H4.41177V11.5586Z" fill="#030104"/>
<path d="M9.74857 11.5586H8.08276V13.0266H9.74857V11.5586Z" fill="#030104"/>
<path d="M12.2426 11.5586H10.5784V13.0266H12.2426V11.5586Z" fill="#030104"/>
</svg>
