<svg width="97" height="93" viewBox="0 0 97 93" fill="none" xmlns="http://www.w3.org/2000/svg">
<path d="M57.2428 59.5499C63.1061 57.1799 67.7348 53.954 71.1266 49.8708C74.518 45.7885 76.2139 41.3429 76.2139 36.5337C76.2139 31.7244 74.518 27.2784 71.1253 23.1959C67.7339 19.1135 63.1059 15.8872 57.2419 13.5167C51.3778 11.1465 44.9998 9.96191 38.1068 9.96191C31.2144 9.96191 24.8363 11.1473 18.9719 13.5167C13.108 15.887 8.47986 19.1133 5.08826 23.1959C1.69628 27.2791 0 31.7244 0 36.5339C0 40.6507 1.28297 44.5274 3.84492 48.1601C6.40668 51.7922 9.92531 54.8547 14.3997 57.3453C14.0391 58.1764 13.6692 58.9366 13.2902 59.6295C12.911 60.3213 12.4603 60.9868 11.9367 61.6274C11.4134 62.2681 11.0079 62.7694 10.7189 63.1315C10.4302 63.4947 9.96114 64.0062 9.31122 64.6624C8.66149 65.3199 8.24629 65.7523 8.06617 65.9594C8.06617 65.9247 7.99394 66.003 7.84947 66.1933C7.70481 66.3836 7.62367 66.4696 7.60585 66.4535C7.58765 66.4347 7.51541 66.5213 7.38914 66.7116C7.26288 66.9021 7.19955 66.9971 7.19955 66.9971L7.06399 67.2558C7.01053 67.3603 6.97375 67.4625 6.95593 67.567C6.93773 67.6701 6.92862 67.7833 6.92862 67.904C6.92862 68.0247 6.94645 68.1367 6.98323 68.241C7.05546 68.6902 7.26288 69.0528 7.60566 69.3309C7.94825 69.6072 8.31776 69.7452 8.71515 69.7452H8.87763C10.6816 69.5031 12.2336 69.2264 13.5325 68.9147C19.0898 67.5314 24.1062 65.3161 28.5807 62.2718C31.8283 62.8254 35.0039 63.1021 38.1072 63.1021C45.0001 63.1045 51.3789 61.9202 57.2428 59.5499Z" fill="#CAAA3B"/>
<path d="M93.1557 61.4693C95.7186 57.854 96.9991 53.9717 96.9991 49.8195C96.9991 45.5634 95.6442 41.5822 92.9388 37.8806C90.232 34.1793 86.5507 31.0996 81.896 28.6431C82.7253 31.2377 83.1403 33.8671 83.1403 36.5317C83.1403 41.1674 81.933 45.5614 79.5136 49.7137C77.0959 53.8647 73.6315 57.5318 69.121 60.7153C64.9348 63.6215 60.1713 65.8524 54.8301 67.4099C49.4904 68.9662 43.9148 69.7453 38.1047 69.7453C37.0225 69.7453 35.4345 69.6768 33.3418 69.5386C40.5948 74.1046 49.1115 76.3888 58.8904 76.3888C61.9942 76.3888 65.1695 76.1114 68.4176 75.5579C72.8919 78.6035 77.9085 80.8168 83.4655 82.2015C84.7645 82.5138 86.3163 82.7899 88.1207 83.0318C88.5535 83.0666 88.9513 82.9453 89.3119 82.6685C89.6727 82.3918 89.9076 82.0123 90.0153 81.5284C89.9984 81.3206 90.0153 81.2067 90.0697 81.1901C90.123 81.1738 90.1139 81.0607 90.0424 80.8535C89.9711 80.6455 89.9347 80.5417 89.9347 80.5417L89.7997 80.2829C89.7622 80.2145 89.7011 80.1187 89.6103 79.998C89.5201 79.8781 89.4482 79.7903 89.3936 79.7387C89.3405 79.687 89.2599 79.6 89.1509 79.4798C89.0432 79.3598 88.9706 79.2813 88.9342 79.2466C88.7539 79.0388 88.3391 78.6066 87.6897 77.9489C87.0396 77.2922 86.5713 76.7819 86.2826 76.4187C85.9938 76.0554 85.5877 75.5541 85.0647 74.9133C84.5418 74.2738 84.0902 73.6076 83.7112 72.9154C83.3324 72.2236 82.9625 71.4622 82.6017 70.6324C87.0764 68.1392 90.5941 65.0859 93.1557 61.4693Z" fill="#CAAA3B"/>
</svg>
