<svg width="43" height="43" viewBox="0 0 43 43" fill="none" xmlns="http://www.w3.org/2000/svg">
<path d="M20.1726 6.19159C19.2846 6.42422 18.7415 6.74328 18.0346 7.4416C16.8276 8.63141 16.3103 10.3729 16.6981 11.9678C17.0086 13.2522 18.0432 14.5714 19.181 15.1489C21.9399 16.537 25.1898 15.0973 26.0692 12.0972C26.276 11.3731 26.2588 10.2005 26.0262 9.46776C25.7763 8.66581 25.2848 7.89009 24.6811 7.3212C24.0258 6.71791 23.4655 6.40745 22.6034 6.19202C21.776 5.97616 20.9913 5.97616 20.1726 6.19159Z" fill="white"/>
<path d="M33.9492 12.8301V17.1409H38.26H42.5703V12.8301V8.5198H38.2595H33.9492V12.8301Z" fill="white"/>
<path d="M2.70589 12.8384C1.43868 15.1574 0.412701 17.0799 0.429901 17.1061C0.455701 17.1233 2.56786 17.1319 5.1285 17.1233L9.77508 17.0975L7.44749 12.847C6.16308 10.5194 5.0941 8.60547 5.06787 8.60547C5.04164 8.60547 3.98213 10.5108 2.70589 12.8384Z" fill="white"/>
<path d="M18.9738 17.787C17.6288 18.0889 16.3358 18.856 15.4306 19.8734C15.1374 20.1924 13.9304 21.6235 12.741 23.0459C11.5426 24.4683 10.5424 25.6409 10.508 25.6581C10.4736 25.6667 9.9133 24.4855 9.25798 23.0287C8.61126 21.5633 7.89574 20.02 7.67171 19.5977L7.26665 18.822H4.48197H1.68869L1.43886 19.1067C1.1542 19.4257 1.1198 19.7706 1.32663 20.167C1.55066 20.6069 1.86112 20.6757 3.54242 20.6757H5.04269L5.14632 20.9084C5.20652 21.0464 6.05147 22.9431 7.01725 25.1413C7.9826 27.3308 8.83615 29.2276 8.92258 29.3484C9.24164 29.8399 10.1296 30.0467 10.7157 29.7625C10.8967 29.6765 11.5262 29.0035 12.4486 27.9088C13.2415 26.9692 13.9054 26.2017 13.914 26.2189C13.9312 26.2361 14.2933 28.5293 14.7246 31.3311C15.1554 34.1244 15.5265 36.5384 15.5523 36.6851L15.6039 36.9697H21.4136C24.612 36.9697 27.2242 36.9525 27.2242 36.9267C27.2242 36.7715 28.8707 26.2451 28.8969 26.2193C28.9141 26.2021 29.4486 26.7968 30.0777 27.5471C31.94 29.7715 32.0867 29.9005 32.7416 29.9005C33.2073 29.9005 33.6467 29.6851 33.897 29.3488C34.0092 29.2022 34.923 27.1937 35.9399 24.8833L37.785 20.6848L39.4229 20.659C41.1902 20.6332 41.3024 20.6074 41.5695 20.1503C41.8799 19.633 41.6297 19.0383 41.035 18.8659C40.8281 18.8057 39.7936 18.7794 38.1381 18.7971L35.5602 18.8229L35.3018 19.2886C35.1552 19.547 34.4482 21.0731 33.7327 22.6851C33.0172 24.2886 32.3877 25.6078 32.3447 25.6164C32.3017 25.625 31.1893 24.3492 29.8791 22.7888C28.5688 21.2197 27.241 19.7108 26.9219 19.418C26.2494 18.7885 25.3615 18.2712 24.4219 17.9439C23.7494 17.7113 23.6806 17.7113 21.62 17.6855C20.0514 17.6752 19.3703 17.701 18.9738 17.787Z" fill="white"/>
</svg>
