<svg width="172" height="172" viewBox="0 0 172 172" fill="none" xmlns="http://www.w3.org/2000/svg">
<g clip-path="url(#clip0)">
<path d="M136.253 91.291C138.751 88.4301 140 85.0469 140 81.1406C140 77.5982 138.704 74.533 136.121 71.9429C133.532 69.3531 130.467 68.0589 126.925 68.0589H108.055C108.236 67.4232 108.418 66.8782 108.599 66.4242C108.779 65.9701 109.032 65.47 109.348 64.925C109.665 64.3797 109.893 63.9708 110.029 63.6988C110.846 62.1554 111.472 60.8829 111.904 59.8846C112.335 58.8843 112.764 57.5224 113.197 55.7965C113.629 54.0716 113.844 52.345 113.844 50.6192C113.844 49.5297 113.831 48.6432 113.809 47.9625C113.788 47.2813 113.672 46.2591 113.47 44.8964C113.264 43.5344 112.991 42.3988 112.651 41.4909C112.31 40.5828 111.764 39.5601 111.016 38.4255C110.267 37.2888 109.359 36.3704 108.29 35.666C107.222 34.9621 105.861 34.3718 104.203 33.8953C102.544 33.4183 100.671 33.1799 98.5808 33.1799C97.4001 33.1799 96.3791 33.6116 95.5154 34.4746C94.6072 35.3828 93.8339 36.5181 93.1987 37.8801C92.5626 39.2428 92.1195 40.4236 91.8694 41.4232C91.6196 42.4222 91.3354 43.8078 91.0188 45.5785C90.6086 47.4869 90.3034 48.8599 90.0977 49.7C89.8937 50.5402 89.4953 51.6414 88.9054 53.0036C88.3144 54.3668 87.6112 55.456 86.7935 56.274C85.295 57.7724 83.0017 60.4976 79.9127 64.4485C77.6867 67.3547 75.3935 70.1023 73.0319 72.6912C70.6699 75.2806 68.9443 76.6202 67.8546 76.7111C66.72 76.8017 65.7434 77.2673 64.9257 78.1079C64.108 78.948 63.6992 79.9361 63.6992 81.0712V124.739C63.6992 125.92 64.1304 126.93 64.9934 127.77C65.856 128.611 66.878 129.054 68.0588 129.099C69.6482 129.145 73.2362 130.143 78.8227 132.098C82.3193 133.277 85.0552 134.175 87.0309 134.787C89.0061 135.4 91.7671 136.059 95.3068 136.764C98.8499 137.467 102.119 137.82 105.116 137.82H106.274H111.452H113.904C119.946 137.729 124.418 135.957 127.325 132.507C129.959 129.373 131.071 125.262 130.663 120.176C132.434 118.495 133.662 116.362 134.342 113.772C135.113 111.004 135.113 108.346 134.342 105.803C136.431 103.033 137.407 99.922 137.27 96.4703C137.276 95.0155 136.936 93.2901 136.253 91.291Z" fill="url(#paint0_linear)"/>
<path d="M54.9802 76.7805H35.3608C34.1792 76.7805 33.1573 77.2122 32.2945 78.0752C31.4316 78.9378 31 79.9597 31 81.1406V124.742C31 125.921 31.4316 126.944 32.2947 127.808C33.1582 128.669 34.1802 129.101 35.3611 129.101H54.9802C56.1609 129.101 57.1823 128.669 58.0456 127.808C58.9084 126.944 59.3398 125.922 59.3398 124.742V81.1406C59.3398 79.9597 58.9082 78.938 58.0456 78.0752C57.1826 77.2119 56.1611 76.7805 54.9802 76.7805ZM47.1455 119.12C46.2827 119.96 45.261 120.38 44.0801 120.38C42.8536 120.38 41.8202 119.96 40.9805 119.12C40.1404 118.28 39.7204 117.247 39.7204 116.021C39.7204 114.84 40.1402 113.818 40.9805 112.955C41.8204 112.092 42.8536 111.66 44.0801 111.66C45.261 111.66 46.2827 112.092 47.1455 112.955C48.0085 113.818 48.4402 114.84 48.4402 116.021C48.4402 117.247 48.0095 118.28 47.1455 119.12Z" fill="url(#paint1_linear)"/>
</g>
<circle cx="86" cy="86" r="85" stroke="url(#paint2_linear)" stroke-width="2"/>
<defs>
<linearGradient id="paint0_linear" x1="87.5434" y1="137.82" x2="130.993" y2="137.82" gradientUnits="userSpaceOnUse">
<stop stop-color="#E6B712"/>
<stop offset="1" stop-color="#CAAA3B"/>
</linearGradient>
<linearGradient id="paint1_linear" x1="39.8562" y1="129.101" x2="55.9942" y2="129.101" gradientUnits="userSpaceOnUse">
<stop stop-color="#E6B712"/>
<stop offset="1" stop-color="#CAAA3B"/>
</linearGradient>
<linearGradient id="paint2_linear" x1="53.75" y1="172" x2="151.694" y2="172" gradientUnits="userSpaceOnUse">
<stop stop-color="#E6B712"/>
<stop offset="1" stop-color="#CAAA3B"/>
</linearGradient>
<clipPath id="clip0">
<rect width="109" height="109" fill="white" transform="translate(31 31)"/>
</clipPath>
</defs>
</svg>
