<svg width="50" height="50" viewBox="0 0 50 50" fill="none" xmlns="http://www.w3.org/2000/svg">
<g clip-path="url(#clip0)">
<path d="M23.9336 13.8481C23.9336 7.24961 18.5653 1.88135 11.9668 1.88135C5.36826 1.88135 0 7.24961 0 13.8481C0 20.4467 5.36826 25.8149 11.9669 25.8149C18.5653 25.8149 23.9336 20.4467 23.9336 13.8481ZM15.039 9.47031C15.8618 9.47031 16.4711 10.1428 16.5066 10.938C16.5422 11.7307 15.8066 12.4057 15.039 12.4057C14.2161 12.4057 13.6068 11.7332 13.5713 10.938C13.5357 10.1454 14.2713 9.47031 15.039 9.47031ZM8.65957 9.47031C9.48242 9.47031 10.0917 10.1428 10.1272 10.938C10.1628 11.7307 9.42725 12.4057 8.65957 12.4057C7.83672 12.4057 7.22744 11.7332 7.19189 10.938C7.15635 10.1454 7.89189 9.47031 8.65957 9.47031ZM11.9669 20.2737C8.9415 20.2737 6.29639 18.127 5.67754 15.1693L8.55068 14.5681C8.88652 16.1732 10.3233 17.3383 11.9669 17.3383C13.6467 17.3383 15.0894 16.1427 15.3975 14.4954L18.2828 15.0351C17.715 18.0706 15.0588 20.2737 11.9669 20.2737Z" fill="url(#paint0_linear)"/>
<path d="M38.0332 1.88135C31.4348 1.88135 26.0664 7.24961 26.0664 13.8481C26.0664 20.4467 31.4347 25.8149 38.0332 25.8149C44.6317 25.8149 50.0001 20.4467 50.0001 13.8481C50.0001 7.24961 44.6318 1.88135 38.0332 1.88135ZM41.0952 9.27812C41.9181 9.27812 42.5273 9.95059 42.5629 10.7458C42.5984 11.5384 41.8629 12.2135 41.0952 12.2135C40.2724 12.2135 39.6631 11.541 39.6275 10.7458C39.592 9.95322 40.3274 9.27812 41.0952 9.27812ZM34.7158 9.27812C35.5387 9.27812 36.1479 9.95059 36.1835 10.7458C36.219 11.5384 35.4835 12.2135 34.7158 12.2135C33.893 12.2135 33.2837 11.541 33.2481 10.7458C33.2126 9.95322 33.948 9.27812 34.7158 9.27812ZM43.2555 17.7873H32.6742V14.8519H43.2555V17.7873Z" fill="url(#paint1_linear)"/>
<path d="M24.9513 24.1851C18.3527 24.1851 12.9844 29.5533 12.9844 36.1519C12.9844 42.7504 18.3526 48.1187 24.9513 48.1187C31.5498 48.1187 36.9182 42.7504 36.9182 36.1519C36.9182 29.5533 31.5498 24.1851 24.9513 24.1851ZM28.0622 31.4102C28.8851 31.4102 29.4943 32.0826 29.5299 32.8778C29.5654 33.6705 28.8299 34.3455 28.0622 34.3455C27.2394 34.3455 26.6301 33.6731 26.5945 32.8778C26.559 32.0852 27.2944 31.4102 28.0622 31.4102ZM21.6828 31.4102C22.5057 31.4102 23.1149 32.0826 23.1505 32.8778C23.186 33.6705 22.4505 34.3455 21.6828 34.3455C20.86 34.3455 20.2507 33.6731 20.2151 32.8778C20.1796 32.0852 20.915 31.4102 21.6828 31.4102ZM28.4268 41.2366C28.0909 39.6315 26.6541 38.4664 25.0105 38.4664C23.3308 38.4664 21.8881 39.662 21.58 41.3093L18.6946 40.7696C19.2623 37.7342 21.9187 35.5311 25.0105 35.5311C28.0359 35.5311 30.6811 37.6777 31.2999 40.6355L28.4268 41.2366Z" fill="url(#paint2_linear)"/>
</g>
<defs>
<linearGradient id="paint0_linear" x1="7.47925" y1="25.8149" x2="21.1081" y2="25.8149" gradientUnits="userSpaceOnUse">
<stop stop-color="#E6B712"/>
<stop offset="1" stop-color="#CAAA3B"/>
</linearGradient>
<linearGradient id="paint1_linear" x1="33.5457" y1="25.8149" x2="47.1746" y2="25.8149" gradientUnits="userSpaceOnUse">
<stop stop-color="#E6B712"/>
<stop offset="1" stop-color="#CAAA3B"/>
</linearGradient>
<linearGradient id="paint2_linear" x1="20.4637" y1="48.1187" x2="34.0926" y2="48.1187" gradientUnits="userSpaceOnUse">
<stop stop-color="#E6B712"/>
<stop offset="1" stop-color="#CAAA3B"/>
</linearGradient>
<clipPath id="clip0">
<rect width="50" height="50" fill="white"/>
</clipPath>
</defs>
</svg>
