<svg width="50" height="50" viewBox="0 0 50 50" fill="none" xmlns="http://www.w3.org/2000/svg">
<g clip-path="url(#clip0)">
<path d="M26.7932 33.1821H23.2056C15.2092 33.213 8.74321 39.7041 8.74321 47.7006V48.3172C8.71168 49.2144 9.41347 49.9673 10.3108 49.9989C10.3488 50.0002 10.3869 50.0002 10.4249 49.9989H39.5739C40.4711 50.0304 41.224 49.3286 41.2556 48.4313C41.2569 48.3933 41.2569 48.3552 41.2556 48.3172V47.7006C41.2557 39.7041 34.7897 33.213 26.7932 33.1821Z" fill="url(#paint0_linear)"/>
<path d="M41.4239 15.5808H39.6862V14.6839C39.6847 6.57265 33.1081 -0.00153251 24.9968 2.67971e-07C16.8878 0.00153304 10.3145 6.57484 10.313 14.6839V15.5808H8.57523C8.13029 15.5808 7.70483 15.7631 7.39806 16.0853C7.08614 16.3992 6.90571 16.8201 6.89355 17.2624V26.6798C6.89355 27.6086 7.64648 28.3615 8.57523 28.3615H14.1808C14.6145 28.3592 15.0327 28.1999 15.358 27.913C15.6834 27.5854 15.8649 27.1416 15.8625 26.6798V24.7739C17.4315 29.83 22.8022 32.6569 27.8583 31.0879C30.8348 30.1641 33.1766 27.8511 34.1367 24.886V26.6798C34.1051 27.577 34.8069 28.33 35.7043 28.3615C35.7422 28.3628 35.7803 28.3628 35.8183 28.3615H41.4239C42.3527 28.3615 43.1056 27.6086 43.1056 26.6798V17.2624C43.0765 16.3461 42.3404 15.6099 41.4239 15.5808ZM36.3228 15.5808H35.8183C34.8896 15.5808 34.1367 16.3337 34.1367 17.2624V19.0562C32.521 14.0148 27.1243 11.2378 22.083 12.8535C19.1155 13.8046 16.7954 16.1389 15.8625 19.1123V17.2624C15.8334 16.3461 15.0972 15.6099 14.1808 15.5808H13.6763V14.6839C13.6785 8.43026 18.7498 3.36236 25.0034 3.36444C31.2541 3.36652 36.3208 8.43322 36.3228 14.6839V15.5808Z" fill="url(#paint1_linear)"/>
</g>
<defs>
<linearGradient id="paint0_linear" x1="18.9029" y1="49.9999" x2="37.418" y2="49.9999" gradientUnits="userSpaceOnUse">
<stop stop-color="#E6B712"/>
<stop offset="1" stop-color="#CAAA3B"/>
</linearGradient>
<linearGradient id="paint1_linear" x1="18.2098" y1="31.5211" x2="38.8306" y2="31.5211" gradientUnits="userSpaceOnUse">
<stop stop-color="#E6B712"/>
<stop offset="1" stop-color="#CAAA3B"/>
</linearGradient>
<clipPath id="clip0">
<rect width="50" height="50" fill="white"/>
</clipPath>
</defs>
</svg>
