<svg width="16" height="16" viewBox="0 0 16 16" fill="none" xmlns="http://www.w3.org/2000/svg">
<g clip-path="url(#clip0)">
<path d="M14.7058 4.12916L12.7446 3.2567L11.8714 1.29469L9.73696 1.51759L8.0005 0.258301L6.26302 1.51759L4.12964 1.29469L3.25706 3.25582L1.29505 4.12916L1.51808 6.26354L0.258789 8.00001L1.51808 9.73748L1.29505 11.8709L3.25631 12.7433L4.12964 14.7053L6.26403 14.4824L8.0005 15.7417L9.73797 14.4824L11.8714 14.7053L12.7438 12.7441L14.7058 11.8709L14.4828 9.73648L15.7422 8.00001L14.4828 6.26254L14.7058 4.12916ZM6.45216 11.0967L4.26119 8.90573L4.99151 8.17805L6.45216 9.63605L10.8313 5.25689L11.5616 5.98709L6.45216 11.0967Z" fill="white"/>
<path d="M15.9526 7.84843L14.751 6.19085L14.964 4.15512C14.9756 4.04386 14.9143 3.93789 14.8121 3.8924L12.9418 3.06014L12.1096 1.18973C12.0638 1.0878 11.958 1.02668 11.8469 1.03777L9.81076 1.25059L8.1533 0.0491417C8.06295 -0.0163806 7.94073 -0.0163806 7.85039 0.0491417L6.1928 1.25059L4.15682 1.03777C4.04581 1.02719 3.94034 1.08817 3.8941 1.18948L3.06184 3.05989L1.19143 3.8924C1.08937 3.93776 1.02813 4.04373 1.03972 4.15487L1.25255 6.19085L0.0510948 7.84843C-0.0144274 7.93878 -0.0144274 8.061 0.0510948 8.15135L1.25255 9.80881L1.03972 11.8449C1.02801 11.956 1.08924 12.0621 1.19143 12.1076L3.06184 12.9399L3.8941 14.8103C3.94009 14.9119 4.04568 14.973 4.15682 14.9623L6.1928 14.7493L7.85039 15.9509C7.94073 16.0164 8.06295 16.0164 8.1533 15.9509L9.81076 14.7493L11.8469 14.9623C11.958 14.9735 12.0637 14.9124 12.1096 14.8106L12.9418 12.9401L14.8121 12.1076C14.9142 12.0621 14.9754 11.9563 14.964 11.8452L14.751 9.80906L15.9526 8.1516C16.0182 8.06125 16.0182 7.93878 15.9526 7.84843ZM14.2752 9.58591C14.2378 9.63744 14.2208 9.70095 14.2275 9.7642L14.4308 11.712L12.6412 12.5087C12.5827 12.5344 12.5359 12.581 12.51 12.6395L11.7139 14.4291L9.76565 14.2255C9.7024 14.219 9.63902 14.2361 9.58761 14.2735L8.00184 15.4229L6.41583 14.2735C6.37185 14.2414 6.31893 14.2241 6.26462 14.2243C6.25555 14.2243 6.24648 14.2243 6.23879 14.2255L4.29038 14.4291L3.49429 12.6395C3.46833 12.581 3.42171 12.5343 3.36324 12.5083L1.5726 11.712L1.77597 9.7642C1.78252 9.70095 1.76551 9.63744 1.72821 9.58591L0.578801 7.99989L1.72821 6.41387C1.76551 6.36234 1.78252 6.29883 1.77597 6.23558L1.5726 4.28768L3.36224 3.49108C3.4207 3.46537 3.46745 3.41875 3.49328 3.36028L4.28938 1.57064L6.23778 1.77427C6.30091 1.78057 6.36429 1.76343 6.41583 1.72626L8.00184 0.576848L9.58786 1.72626C9.63927 1.76356 9.70265 1.78057 9.7659 1.77427L11.7142 1.57064L12.5103 3.36028C12.5362 3.41875 12.583 3.46537 12.6414 3.49133L14.4311 4.28768L14.2277 6.23558C14.221 6.29883 14.238 6.36234 14.2755 6.41387L15.4248 7.99989L14.2752 9.58591Z" fill="white"/>
<path d="M11.0136 5.07414C10.9128 4.97333 10.7495 4.97333 10.6487 5.07414L6.45198 9.27084L5.17379 7.99504C5.07312 7.89462 4.91007 7.89462 4.80939 7.99504L4.07781 8.72221C4.0293 8.7706 4.00195 8.83637 4.00195 8.90492C4.00195 8.97347 4.0293 9.03924 4.07781 9.08763L6.26877 11.2786C6.36945 11.3793 6.53288 11.3793 6.63368 11.2786L11.7432 6.16899C11.8438 6.06831 11.8438 5.90488 11.7432 5.80408L11.0136 5.07414ZM6.45198 10.7315L4.62618 8.90568L4.99109 8.54165L6.26978 9.8177C6.37046 9.91825 6.53363 9.91825 6.63444 9.8177L10.8311 5.62137L11.1966 5.98679L6.45198 10.7315Z" fill="#1E81CE"/>
</g>
<defs>
<clipPath id="clip0">
<rect width="16" height="16" fill="white"/>
</clipPath>
</defs>
</svg>
