<svg width="30" height="30" viewBox="0 0 30 30" fill="none" xmlns="http://www.w3.org/2000/svg">
<g clip-path="url(#clip0)">
<path d="M22.712 19.6847L16.966 14.8347L21.8161 9.08864C22.037 8.82688 22.1606 7.95929 21.4498 7.35928C20.7389 6.75928 19.9044 7.02687 19.6835 7.28859L14.8334 13.0347L9.08733 8.18462C8.82563 7.96367 7.95801 7.84002 7.35803 8.55083C6.75805 9.26165 7.02561 10.0962 7.28734 10.3171L13.0334 15.1672L8.18334 20.9133C7.96245 21.175 7.83874 22.0426 8.54962 22.6427C9.2605 23.2427 10.095 22.9751 10.3159 22.7134L15.166 16.9673L20.9121 21.8174C21.1738 22.0383 22.0414 22.162 22.6415 21.4511C23.2415 20.7402 22.9738 19.9057 22.712 19.6847Z" fill="#F30000"/>
</g>
<defs>
<clipPath id="clip0">
<rect width="20" height="20" fill="white" transform="translate(13.8086 0.908203) rotate(40.1666)"/>
</clipPath>
</defs>
</svg>
