<svg width="94" height="94" viewBox="0 0 94 94" fill="none" xmlns="http://www.w3.org/2000/svg">
<path d="M30.1786 94H16.3919C14.3154 94 12.6318 92.3167 12.6318 90.2399V3.76006C12.6318 1.68331 14.3154 0 16.3919 0H30.1786V94Z" fill="#CAAA3B"/>
<path d="M82.6197 93.5H30.6782V0.5H82.6197C84.4201 0.5 85.8797 1.95947 85.8797 3.76006V90.2399C85.8797 92.0403 84.4201 93.5 82.6197 93.5Z" fill="white" stroke="#CAAA3B"/>
<path d="M15.1391 14.6159H10.1258C8.74142 14.6159 7.61914 13.4937 7.61914 12.1092C7.61914 10.7248 8.74142 9.60254 10.1258 9.60254H15.1393C16.5237 9.60254 17.646 10.7248 17.646 12.1092C17.6458 13.4939 16.5235 14.6159 15.1391 14.6159Z" fill="white"/>
<path d="M15.1391 28.572H10.1258C8.74142 28.572 7.61914 27.4497 7.61914 26.0653C7.61914 24.6809 8.74142 23.5586 10.1258 23.5586H15.1393C16.5237 23.5586 17.646 24.6809 17.646 26.0653C17.6458 27.4497 16.5235 28.572 15.1391 28.572Z" fill="white"/>
<path d="M15.1391 42.5285H10.1258C8.74142 42.5285 7.61914 41.4063 7.61914 40.0218C7.61914 38.6374 8.74142 37.5151 10.1258 37.5151H15.1393C16.5237 37.5151 17.646 38.6374 17.646 40.0218C17.6458 41.4063 16.5235 42.5285 15.1391 42.5285Z" fill="white"/>
<path d="M15.1391 56.4851H10.1258C8.74142 56.4851 7.61914 55.3628 7.61914 53.9784C7.61914 52.594 8.74142 51.4717 10.1258 51.4717H15.1393C16.5237 51.4717 17.646 52.594 17.646 53.9784C17.6458 55.3628 16.5235 56.4851 15.1391 56.4851Z" fill="white"/>
<path d="M15.1391 70.4382H10.1258C8.74142 70.4382 7.61914 69.3159 7.61914 67.9315C7.61914 66.5471 8.74142 65.4248 10.1258 65.4248H15.1393C16.5237 65.4248 17.646 66.5471 17.646 67.9315C17.6458 69.3159 16.5235 70.4382 15.1391 70.4382Z" fill="white"/>
<path d="M15.1391 84.3948H10.1258C8.74142 84.3948 7.61914 83.2725 7.61914 81.8881C7.61914 80.5036 8.74142 79.3813 10.1258 79.3813H15.1393C16.5237 79.3813 17.646 80.5036 17.646 81.8881C17.6458 83.2725 16.5235 84.3948 15.1391 84.3948Z" fill="white"/>
<path d="M75.4365 44.2275H41.1268C39.7424 44.2275 38.6201 43.1052 38.6201 41.7208V28.5736C38.6201 27.1892 39.7424 26.0669 41.1268 26.0669H75.4367C76.8211 26.0669 77.9434 27.1892 77.9434 28.5736V41.7208C77.9432 43.1052 76.8209 44.2275 75.4365 44.2275Z" fill="#E1E6E9"/>
<path d="M45.1739 14.4186L41.897 11.9119L38.6201 14.4186V0H45.1739V14.4186Z" fill="#FCD462"/>
<path d="M72.0663 36.3998H44.4931C43.801 36.3998 43.2397 35.8385 43.2397 35.1464C43.2397 34.4543 43.8008 33.8931 44.4931 33.8931H72.0665C72.7586 33.8931 73.3198 34.4541 73.3198 35.1464C73.3196 35.8387 72.7586 36.3998 72.0663 36.3998Z" fill="#CAAA3B"/>
</svg>
