<svg width="14" height="14" viewBox="0 0 14 14" fill="none" xmlns="http://www.w3.org/2000/svg">
<path d="M4.49469 14H2.44136C2.13208 14 1.88135 13.7493 1.88135 13.44V0.560008C1.88135 0.250706 2.13208 0 2.44136 0H4.49469V14Z" fill="#F30000"/>
<path d="M12.3051 14H4.49463V0H12.3051C12.6143 0 12.8651 0.250706 12.8651 0.560008V13.44C12.8651 13.7493 12.6143 14 12.3051 14Z" fill="white"/>
<path d="M2.25475 2.17685H1.5081C1.30191 2.17685 1.13477 2.00971 1.13477 1.80351C1.13477 1.59732 1.30191 1.43018 1.5081 1.43018H2.25478C2.46097 1.43018 2.62812 1.59732 2.62812 1.80351C2.62809 2.00974 2.46094 2.17685 2.25475 2.17685Z" fill="white"/>
<path d="M2.25475 4.25546H1.5081C1.30191 4.25546 1.13477 4.08832 1.13477 3.88213C1.13477 3.67594 1.30191 3.50879 1.5081 3.50879H2.25478C2.46097 3.50879 2.62812 3.67594 2.62812 3.88213C2.62809 4.08832 2.46094 4.25546 2.25475 4.25546Z" fill="white"/>
<path d="M2.25475 6.33408H1.5081C1.30191 6.33408 1.13477 6.16693 1.13477 5.96074C1.13477 5.75455 1.30191 5.5874 1.5081 5.5874H2.25478C2.46097 5.5874 2.62812 5.75455 2.62812 5.96074C2.62809 6.16693 2.46094 6.33408 2.25475 6.33408Z" fill="white"/>
<path d="M2.25475 8.41269H1.5081C1.30191 8.41269 1.13477 8.24555 1.13477 8.03935C1.13477 7.83316 1.30191 7.66602 1.5081 7.66602H2.25478C2.46097 7.66602 2.62812 7.83316 2.62812 8.03935C2.62809 8.24555 2.46094 8.41269 2.25475 8.41269Z" fill="white"/>
<path d="M2.25475 10.4908H1.5081C1.30191 10.4908 1.13477 10.3237 1.13477 10.1175C1.13477 9.91129 1.30191 9.74414 1.5081 9.74414H2.25478C2.46097 9.74414 2.62812 9.91129 2.62812 10.1175C2.62809 10.3237 2.46094 10.4908 2.25475 10.4908Z" fill="white"/>
<path d="M2.25475 12.5694H1.5081C1.30191 12.5694 1.13477 12.4023 1.13477 12.1961C1.13477 11.9899 1.30191 11.8228 1.5081 11.8228H2.25478C2.46097 11.8228 2.62812 11.9899 2.62812 12.1961C2.62809 12.4023 2.46094 12.5694 2.25475 12.5694Z" fill="white"/>
<path d="M11.2352 6.58709H6.12529C5.9191 6.58709 5.75195 6.41994 5.75195 6.21375V4.25566C5.75195 4.04947 5.9191 3.88232 6.12529 3.88232H11.2353C11.4415 3.88232 11.6086 4.04947 11.6086 4.25566V6.21375C11.6086 6.41994 11.4414 6.58709 11.2352 6.58709Z" fill="#E1E6E9"/>
<path d="M6.72805 2.14745L6.24 1.77411L5.75195 2.14745V0H6.72805V2.14745Z" fill="#FCD462"/>
<path d="M10.7333 5.42119H6.62661C6.52353 5.42119 6.43994 5.3376 6.43994 5.23452C6.43994 5.13144 6.5235 5.04785 6.62661 5.04785H10.7333C10.8364 5.04785 10.92 5.13141 10.92 5.23452C10.9199 5.33763 10.8364 5.42119 10.7333 5.42119Z" fill="#CAAA3B"/>
</svg>
