<svg width="14" height="14" viewBox="0 0 14 14" fill="none" xmlns="http://www.w3.org/2000/svg">
<path d="M10.5353 8.55055C9.03056 8.55055 7.81064 9.77049 7.81064 11.2753C7.81064 12.7801 9.03054 14 10.5353 14C12.0401 14 13.2601 12.7801 13.2601 11.2753C13.2601 9.77049 12.0402 8.55055 10.5353 8.55055ZM6.11614 7.1524C8.10316 7.15228 8.81812 5.16275 9.00529 3.52848C9.23583 1.51523 8.28381 0 6.11614 0C3.94877 0 2.99624 1.51511 3.22699 3.52848C3.41437 5.16275 4.12908 7.15256 6.11614 7.1524ZM10.461 7.98057C10.5249 7.98057 10.5885 7.98249 10.6515 7.98599C10.557 7.85109 10.4475 7.73212 10.3194 7.63654C9.93761 7.35158 9.44313 7.25809 9.006 7.08626C8.79321 7.00268 8.60265 6.91964 8.42376 6.82511C7.82 7.48721 7.03271 7.83357 6.11591 7.83364C5.19935 7.83364 4.41217 7.48728 3.8085 6.82511C3.62961 6.91968 3.43901 7.00268 3.22626 7.08626C2.7891 7.25806 2.29464 7.35156 1.91282 7.63654C1.25249 8.1294 1.08186 9.23812 0.947761 9.99438C0.837088 10.6187 0.762787 11.2558 0.741055 11.8899C0.724241 12.3811 0.966771 12.45 1.37771 12.5983C1.89223 12.7838 2.4235 12.9216 2.95836 13.0345C3.99127 13.2526 5.05598 13.4203 6.11609 13.4278C6.62977 13.4241 7.1445 13.3827 7.65614 13.3163C7.27727 12.7674 7.05505 12.1025 7.05505 11.3865C7.0551 9.50842 8.58298 7.98057 10.461 7.98057Z" fill="white"/>
<path d="M11.1445 9.96075L11.406 9.69922L12.0123 10.3055L11.7508 10.5671L11.1445 9.96075Z" fill="white"/>
<path d="M9.42188 11.6823L10.985 10.1191L11.5914 10.7255L10.0282 12.2886L9.42188 11.6823Z" fill="white"/>
<path d="M9.05859 12.6532L9.81913 12.3997L9.31211 11.8926L9.05859 12.6532Z" fill="white"/>
</svg>
