<svg width="14" height="11" viewBox="0 0 14 11" fill="none" xmlns="http://www.w3.org/2000/svg">
<path d="M13.7348 3.63229C13.8414 3.54349 14 3.62656 14 3.76693V9.625C14 10.3841 13.4121 11 12.6875 11H1.3125C0.587891 11 0 10.3841 0 9.625V3.76979C0 3.62656 0.155859 3.54635 0.265234 3.63516C0.877734 4.13359 1.68984 4.76667 4.47891 6.88932C5.05586 7.33047 6.0293 8.25859 7 8.25286C7.97617 8.26146 8.96875 7.31328 9.52383 6.88932C12.3129 4.76667 13.1223 4.13073 13.7348 3.63229ZM7 7.33333C7.63438 7.34479 8.54766 6.49688 9.00703 6.1474C12.6355 3.3888 12.9117 3.14818 13.7484 2.46068C13.907 2.33177 14 2.13125 14 1.91927V1.375C14 0.615885 13.4121 0 12.6875 0H1.3125C0.587891 0 0 0.615885 0 1.375V1.91927C0 2.13125 0.0929687 2.32891 0.251563 2.46068C1.08828 3.14531 1.36445 3.3888 4.99297 6.1474C5.45234 6.49688 6.36562 7.34479 7 7.33333Z" fill="url(#paint0_linear)"/>
<defs>
<linearGradient id="paint0_linear" x1="4.375" y1="11" x2="12.3472" y2="11" gradientUnits="userSpaceOnUse">
<stop stop-color="#E6B712"/>
<stop offset="1" stop-color="#CAAA3B"/>
</linearGradient>
</defs>
</svg>
