<svg width="14" height="14" viewBox="0 0 14 14" fill="none" xmlns="http://www.w3.org/2000/svg">
<g clip-path="url(#clip0)">
<path d="M13.2297 0.770112C12.7164 0.256736 12.0981 0 11.375 0H2.62498C1.90196 0 1.28358 0.256736 0.770112 0.770112C0.256736 1.28358 0 1.90193 0 2.62498V11.3749C0 12.0979 0.256736 12.7163 0.770112 13.2298C1.28358 13.7433 1.90196 14 2.62498 14H11.375C12.098 14 12.7164 13.7433 13.2296 13.2298C13.7431 12.7163 13.9998 12.098 13.9998 11.3749V2.62498C13.9998 1.90193 13.743 1.28349 13.2297 0.770112ZM11.6666 7.29159C11.6666 7.5468 11.548 7.72596 11.3111 7.82933C11.2322 7.85969 11.156 7.87489 11.0832 7.87489C10.9193 7.87489 10.7826 7.81707 10.6731 7.70173L9.36068 6.38925L4.49371 11.2565C4.37811 11.3719 4.24151 11.4297 4.08348 11.4297C3.92539 11.4297 3.78866 11.3719 3.67322 11.2565L2.74355 10.3267C2.62808 10.2114 2.57033 10.0744 2.57033 9.91655C2.57033 9.75871 2.62808 9.62191 2.74355 9.50654L7.61081 4.63922L6.2983 3.32674C6.10988 3.15052 6.06739 2.93797 6.17064 2.68874C6.27388 2.45183 6.45323 2.33323 6.70843 2.33323H11.0833C11.2412 2.33323 11.378 2.39101 11.4936 2.50651C11.609 2.62189 11.6667 2.75865 11.6667 2.91664V7.29159H11.6666Z" fill="white"/>
</g>
<defs>
<clipPath id="clip0">
<rect width="14" height="14" fill="white" transform="translate(14 14) rotate(-180)"/>
</clipPath>
</defs>
</svg>
