<svg width="20" height="20" viewBox="0 0 20 20" fill="none" xmlns="http://www.w3.org/2000/svg">
<g clip-path="url(#clip0)">
<path d="M19.9804 9.51664C19.927 9.34887 19.7781 9.23603 19.5719 9.20696L19.1296 9.14424L18.9332 8.75468C18.8412 8.57357 18.6889 8.46973 18.5153 8.46973C18.3411 8.46973 18.1888 8.57402 18.0976 8.75529L17.901 9.14417L17.4585 9.20689C17.2526 9.23603 17.1038 9.34887 17.0502 9.51648C16.9971 9.68318 17.0522 9.85989 17.2008 10.0007L17.5167 10.3015L17.4428 10.7235C17.4146 10.8825 17.4477 11.0282 17.5361 11.1336C17.6682 11.2914 17.8984 11.3282 18.1175 11.2158L18.5153 11.0117L18.9128 11.2157C18.9987 11.2598 19.0847 11.2822 19.1688 11.2822C19.2984 11.2822 19.4139 11.2294 19.4943 11.1338C19.5828 11.0284 19.616 10.8829 19.5881 10.724L19.5138 10.3014L19.8287 10.0015C19.9783 9.86019 20.0335 9.68342 19.9804 9.51664Z" fill="#464646"/>
<path d="M16.9354 15.0587L16.481 15.0695L16.235 14.7189C16.0977 14.5225 15.9303 14.4932 15.8428 14.4932C15.6887 14.4932 15.4941 14.5863 15.4099 14.8478L15.2727 15.2735L14.8475 15.4103C14.6511 15.4735 14.5236 15.609 14.4973 15.7821C14.4714 15.9538 14.5516 16.1192 14.7176 16.2356L15.069 16.4819L15.0583 16.9168C15.053 17.1078 15.1262 17.2243 15.1885 17.2883C15.2663 17.3684 15.3716 17.4126 15.4848 17.4125C15.5916 17.4125 15.7013 17.3724 15.8016 17.2968L16.1588 17.0284L16.5733 17.1651C16.7897 17.2353 16.9999 17.177 17.1128 17.0206C17.1638 16.9502 17.2379 16.7985 17.1636 16.5737L17.0275 16.1596L17.2959 15.8025C17.4195 15.6383 17.4459 15.4552 17.3686 15.2997C17.2921 15.1466 17.1342 15.0587 16.9354 15.0587Z" fill="#464646"/>
<path d="M17.6549 3.62899C17.6288 3.45586 17.5012 3.3203 17.3047 3.25697L16.879 3.11994L16.7423 2.69475C16.6584 2.43306 16.4635 2.33984 16.3091 2.33984C16.2217 2.33984 16.0543 2.36906 15.9171 2.56483L15.6709 2.91616L15.2362 2.90564L15.2163 2.90533C15.0175 2.90533 14.8598 2.99322 14.7833 3.14643C14.7058 3.30175 14.7324 3.48494 14.8558 3.64882L15.1243 4.0061L14.9878 4.42023C14.9141 4.64598 14.9885 4.79751 15.0395 4.86778C15.1527 5.0241 15.3646 5.08209 15.579 5.01082L15.993 4.87487L16.3503 5.14357C16.4509 5.21911 16.5604 5.25901 16.6671 5.25901C16.7803 5.25901 16.8854 5.21492 16.9634 5.13487C17.0256 5.07095 17.0989 4.95459 17.0937 4.76446L17.083 4.32829L17.4338 4.08216C17.6001 3.96598 17.6807 3.8008 17.6549 3.62899Z" fill="#464646"/>
<path d="M11.4647 1.04691C11.4113 0.879144 11.2624 0.7663 11.0562 0.737237L10.6139 0.674518L10.4175 0.284954C10.3255 0.103844 10.1732 0 9.99962 0C9.82551 0 9.67324 0.104219 9.58185 0.285564L9.38533 0.674518L8.943 0.737159C8.73701 0.7663 8.58809 0.879144 8.53454 1.04675C8.48144 1.21346 8.53652 1.39016 8.68514 1.53093L9.00098 1.83182L8.92698 2.25404C8.89891 2.41304 8.93217 2.55868 9.02051 2.66404C9.15264 2.82182 9.38304 2.85776 9.60184 2.74606L9.99962 2.54198L10.3971 2.74598C10.483 2.79007 10.569 2.81243 10.6531 2.81243C10.7826 2.81243 10.8982 2.75971 10.9786 2.66404C11.0671 2.55868 11.1003 2.41318 11.0724 2.25426L10.9981 1.83168L11.313 1.53176C11.4625 1.39046 11.5178 1.21369 11.4647 1.04691Z" fill="#464646"/>
<path d="M1.08707 11.2158L1.48485 11.0117L1.88231 11.2157C1.96822 11.2598 2.05427 11.2822 2.13834 11.2822C2.26788 11.2822 2.38339 11.2294 2.46379 11.1338C2.55229 11.0284 2.58555 10.8829 2.55763 10.724L2.48332 10.3014L2.79826 10.0015C2.94778 9.86019 3.00301 9.68342 2.94992 9.51664C2.89652 9.34887 2.74759 9.23603 2.54146 9.20696L2.09912 9.14424L1.90276 8.75468C1.81075 8.57357 1.65848 8.46973 1.48485 8.46973C1.31074 8.46973 1.15847 8.57395 1.06708 8.75529L0.870564 9.14424L0.428227 9.20689C0.222238 9.23603 0.0733243 9.34887 0.019767 9.51648C-0.0333263 9.68318 0.0217489 9.85989 0.170366 10.0007L0.486209 10.3015L0.412213 10.7238C0.384136 10.8828 0.417402 11.0284 0.505739 11.1338C0.637873 11.2916 0.868267 11.3276 1.08707 11.2158Z" fill="#464646"/>
<path d="M11.4647 18.2344C11.4113 18.0666 11.2624 17.9538 11.0562 17.9247L10.6139 17.862L10.4175 17.4725C10.3255 17.2913 10.1732 17.1875 9.99962 17.1875C9.82551 17.1875 9.67324 17.2917 9.58185 17.4731L9.38533 17.862L8.943 17.9247C8.73701 17.9538 8.58809 18.0666 8.53454 18.2343C8.48144 18.401 8.53652 18.5777 8.68514 18.7184L9.00098 19.0193L8.92698 19.4415C8.89891 19.6005 8.93217 19.7462 9.02051 19.8515C9.15264 20.0092 9.38304 20.0454 9.60184 19.9336L9.99962 19.7295L10.3971 19.9335C10.483 19.9776 10.569 19.9999 10.6531 19.9999C10.7826 19.9999 10.8982 19.9472 10.9786 19.8515C11.0671 19.7462 11.1003 19.6007 11.0724 19.4418L10.9981 19.0192L11.313 18.7193C11.4625 18.578 11.5178 18.4012 11.4647 18.2344Z" fill="#464646"/>
<path d="M3.03644 5.13496C3.1144 5.21515 3.2197 5.25925 3.33291 5.25925C3.43971 5.25925 3.54941 5.21918 3.64981 5.14357L4.007 4.87503L4.4211 5.01151C4.63792 5.08254 4.84802 5.02365 4.96109 4.8674C5.0119 4.79698 5.08621 4.64523 5.0119 4.42017L4.8758 4.00634L5.14433 3.64913C5.26778 3.48494 5.29416 3.30169 5.21665 3.14643C5.14022 2.99316 4.98213 2.90527 4.78318 2.90527L4.32909 2.91617L4.08313 2.56544C3.94597 2.36914 3.77859 2.33984 3.69101 2.33984C3.53705 2.33984 3.34252 2.43292 3.25799 2.69461L3.12097 3.12025L2.69572 3.25697C2.49951 3.31999 2.3718 3.45541 2.34555 3.62846C2.31946 3.80027 2.39972 3.96568 2.56573 4.08218L2.91712 4.32845L2.9066 4.7631C2.9011 4.95437 2.97419 5.07087 3.03644 5.13496Z" fill="#464646"/>
<path d="M2.6305 15.2997C2.55299 15.455 2.57955 15.6383 2.70298 15.8021L2.97137 16.1593L2.83482 16.5738C2.76127 16.7995 2.83572 16.9511 2.88669 17.0213C3.0002 17.1774 3.21169 17.2351 3.42605 17.1641L3.84015 17.0281L4.1972 17.2965C4.29774 17.3723 4.40745 17.4123 4.51426 17.4123C4.62747 17.4123 4.73275 17.3682 4.81071 17.2881C4.87297 17.224 4.94606 17.1077 4.94072 16.9179L4.93019 16.4816L5.28081 16.2355C5.44713 16.1193 5.52769 15.954 5.50191 15.7822C5.47597 15.6092 5.3484 15.4736 5.15188 15.4103L4.72619 15.2732L4.58948 14.8479C4.50526 14.5863 4.31041 14.4932 4.15615 14.4932C4.06872 14.4932 3.90149 14.5223 3.76417 14.718L3.5179 15.0694L3.08305 15.0588L3.06384 15.0585C2.86486 15.0585 2.70695 15.1464 2.6305 15.2997Z" fill="#464646"/>
<path d="M8.08579 4.69171C8.08534 4.69269 8.08504 4.69375 8.08457 4.69475C8.08274 4.69369 8.08076 4.69261 8.07893 4.69163C7.8293 4.55399 7.57115 4.41171 7.27499 4.41171C7.12592 4.41171 6.98204 4.45008 6.8589 4.52271C6.41918 4.7831 6.41399 5.29793 6.41016 5.67384C6.41016 5.67674 6.41016 5.67963 6.41016 5.68268C6.40864 5.68238 6.40711 5.68215 6.40558 5.68193C6.25286 5.65857 6.09479 5.63432 5.93579 5.63432C5.6163 5.63432 5.36865 5.73846 5.1999 5.9437C4.87719 6.33531 5.0458 6.81962 5.16877 7.17325C5.1703 7.17729 5.17168 7.18148 5.17319 7.18576C5.17152 7.18614 5.16985 7.18645 5.16816 7.18675C4.79939 7.26045 4.29419 7.36139 4.12147 7.84533C3.95149 8.32261 4.27268 8.71889 4.50734 9.00819C4.51054 9.01232 4.51406 9.01652 4.51757 9.02086C4.51634 9.02155 4.51528 9.02224 4.51421 9.02293C4.19181 9.21832 3.7504 9.48596 3.7504 10C3.7504 10.5141 4.19181 10.7817 4.51421 10.9771C4.51528 10.9778 4.51649 10.9785 4.51757 10.9793C4.51406 10.9836 4.51054 10.988 4.5072 10.9922C4.27268 11.2815 3.95134 11.6779 4.12147 12.1547C4.29419 12.6388 4.79939 12.7398 5.16816 12.8135C5.16985 12.8138 5.17152 12.8141 5.17319 12.8144C5.17168 12.8186 5.17015 12.8228 5.16877 12.8269C5.04564 13.1804 4.87704 13.6647 5.20005 14.0569C5.36865 14.2618 5.6163 14.3658 5.93564 14.3658C6.09479 14.3658 6.25286 14.3415 6.40558 14.3181C6.40711 14.3179 6.40864 14.3177 6.41002 14.3174C6.41016 14.3206 6.41016 14.3236 6.41016 14.3266C6.41399 14.7027 6.41918 15.2176 6.85845 15.4772C6.98204 15.5501 7.12608 15.5886 7.27515 15.5886C7.5713 15.5886 7.82946 15.4462 8.07909 15.3085C8.08092 15.3075 8.08274 15.3065 8.08457 15.3055C8.08504 15.3065 8.08534 15.3075 8.08579 15.3085C8.2193 15.6624 8.40224 16.1473 8.90881 16.2378C8.95414 16.2459 9.00066 16.25 9.0469 16.25C9.47701 16.25 9.76083 15.9215 9.98892 15.6575C9.99244 15.6534 9.99625 15.6492 9.99991 15.6447C10.0037 15.6492 10.0075 15.6535 10.0112 15.6577C10.2392 15.9216 10.5231 16.25 10.9531 16.25C10.9993 16.25 11.0459 16.2459 11.0913 16.2378C11.5977 16.1473 11.7808 15.6624 11.9145 15.3083C11.9148 15.3074 11.9151 15.3064 11.9156 15.3055C11.9174 15.3066 11.9192 15.3076 11.921 15.3087C12.1707 15.4463 12.4288 15.5886 12.7248 15.5886C12.8741 15.5886 13.0181 15.55 13.1414 15.4772C13.5807 15.2177 13.586 14.7026 13.5898 14.3264C13.59 14.3235 13.59 14.3205 13.59 14.3174C13.5915 14.3177 13.5929 14.3179 13.5944 14.3181C13.7473 14.3416 13.9052 14.3658 14.0643 14.3658C14.3837 14.3658 14.6313 14.2618 14.8001 14.0567C15.1229 13.6648 14.9543 13.1805 14.8312 12.8269C14.8298 12.8228 14.8285 12.8186 14.8269 12.8144C14.8286 12.8141 14.8301 12.8138 14.8318 12.8135C15.2006 12.7398 15.7056 12.6388 15.8785 12.1552C16.0488 11.6779 15.7274 11.2815 15.4929 10.992C15.4896 10.9879 15.4861 10.9836 15.4826 10.9793C15.4836 10.9786 15.4847 10.9779 15.4859 10.9772C15.8082 10.7817 16.2497 10.5141 16.2497 10C16.2497 9.48596 15.8082 9.21832 15.4859 9.02285C15.4847 9.02216 15.4836 9.02155 15.4826 9.02086C15.4861 9.0166 15.4894 9.0124 15.4928 9.00827C15.7273 8.71897 16.0486 8.32269 15.8787 7.84563C15.7056 7.36139 15.2006 7.26045 14.8318 7.18675C14.8303 7.18645 14.8286 7.18614 14.8269 7.18584C14.8285 7.18156 14.8298 7.17744 14.8314 7.1734C14.9545 6.81962 15.1232 6.33507 14.7995 5.94285C14.631 5.7383 14.3835 5.63432 14.0642 5.63432C13.9052 5.6344 13.7471 5.65857 13.5944 5.68199C13.5929 5.68223 13.5915 5.68238 13.59 5.68262C13.59 5.67963 13.59 5.67659 13.59 5.67368C13.586 5.29787 13.5808 4.78318 13.1423 4.52332C13.0181 4.45008 12.8742 4.41171 12.7251 4.41171C12.429 4.41171 12.1708 4.55399 11.9212 4.69163C11.9192 4.69261 11.9174 4.69369 11.9156 4.69468C11.9151 4.69375 11.9148 4.69285 11.9145 4.69193C11.7808 4.33777 11.5977 3.85277 11.0912 3.7622C11.0457 3.75412 10.9993 3.75 10.9531 3.75C10.5231 3.75 10.2393 4.07852 10.0112 4.3425C10.0075 4.34669 10.0037 4.35097 9.99991 4.35539C9.99625 4.35105 9.99244 4.34677 9.98892 4.34258C9.76083 4.07852 9.47687 3.75 9.0469 3.75C9.00066 3.75 8.95428 3.75405 8.90912 3.76213C8.40224 3.85277 8.2193 4.33769 8.08579 4.69171ZM8.80201 9.73712C8.92514 9.66013 9.06444 9.57049 9.13081 9.52418C9.16058 9.47207 9.92713 8.20452 9.97429 8.00516V7.74972C9.97429 7.70395 9.97183 7.65703 9.96955 7.60987C9.95735 7.35475 9.94041 7.00525 10.2408 6.75164C10.3766 6.63682 10.533 6.57175 10.6928 6.56343C10.8174 6.55709 10.9468 6.58387 11.0732 6.64315C11.6144 6.89676 11.6958 7.68861 11.7306 8.02675C11.7456 8.16842 11.6487 8.66189 11.5459 9.05252L12.8541 9.0539C13.2703 9.0539 13.5741 9.32521 13.5924 9.7137C13.6051 9.98729 13.5105 10.1603 13.4217 10.261C13.4789 10.3542 13.5131 10.4612 13.5131 10.5794C13.5131 10.804 13.413 11.0055 13.2552 11.1415C13.2938 11.2316 13.3152 11.3308 13.3152 11.4351C13.3152 11.6827 13.1936 11.9023 13.0071 12.0369C13.0358 12.1161 13.0514 12.2016 13.0514 12.2907C13.0514 12.6993 12.72 13.0317 12.3126 13.0317L9.72741 13.0307C9.69872 13.0307 9.67004 13.0268 9.64241 13.0189C9.51348 12.9824 9.414 12.9149 9.33405 12.8607C9.29545 12.8344 9.25868 12.8095 9.22968 12.7959C9.20192 12.796 9.1804 12.7983 9.15905 12.8003C9.05621 12.8093 8.96298 12.8073 8.88105 12.7861C8.79621 12.8633 8.69139 12.9183 8.57664 12.9341C8.57664 12.9341 7.17612 13.125 7.15384 13.125C6.9091 13.125 6.71899 12.9392 6.71899 12.6848V9.85163C6.71899 9.60109 6.90299 9.42118 7.14179 9.42118C7.16726 9.42118 7.8136 9.52243 7.81405 9.52243C7.84563 9.52243 8.57817 9.64541 8.57817 9.64541C8.65889 9.6583 8.73426 9.69173 8.80201 9.73712Z" fill="#464646"/>
<path d="M9.68461 12.3435C9.72063 12.3679 9.75525 12.3914 9.78364 12.4057L9.91363 12.4058C9.92157 12.4058 9.92966 12.4061 9.93744 12.4067L11.4835 12.4076C11.4915 12.407 11.4994 12.4067 11.5073 12.4067H12.3122C12.3749 12.4067 12.426 12.3547 12.426 12.2907C12.426 12.2289 12.3784 12.1784 12.3177 12.1758C12.2963 12.1748 12.2757 12.1717 12.2557 12.1668H11.9925C11.82 12.1668 11.6801 12.0268 11.6801 11.8543C11.6801 11.6817 11.82 11.5418 11.9925 11.5418H12.4997C12.5247 11.5418 12.5488 11.5455 12.5722 11.5511H12.5763C12.6389 11.5511 12.6898 11.499 12.6898 11.4351C12.6898 11.3732 12.6421 11.3228 12.5812 11.3201C12.549 11.3188 12.5188 11.3112 12.4898 11.3008H12.0472C11.8746 11.3008 11.7347 11.1609 11.7347 10.9883C11.7347 10.8157 11.8746 10.6758 12.0472 10.6758H12.8334C12.8653 10.6552 12.8877 10.6207 12.8877 10.5794C12.878 10.563 12.798 10.5039 12.7057 10.4888H12.0472C11.8746 10.4888 11.7347 10.3489 11.7347 10.1763C11.7347 10.0037 11.8746 9.86382 12.0472 9.86382H12.9172C12.9359 9.85879 12.9478 9.8526 12.9524 9.84789C12.9578 9.84223 12.9709 9.81248 12.9677 9.74298C12.9665 9.71596 12.9646 9.67888 12.8534 9.67888L11.1224 9.67706C11.0047 9.6769 10.8972 9.61076 10.8439 9.50577C10.7969 9.41301 10.7995 9.30382 10.8488 9.21418C10.9104 9.05809 11.1097 8.24333 11.108 8.08213C11.0424 7.44759 10.9083 7.25623 10.8074 7.20902C10.7779 7.19513 10.7501 7.1875 10.7292 7.1875C10.7031 7.18872 10.6736 7.20383 10.6437 7.22908C10.5856 7.27822 10.5838 7.37847 10.5935 7.57974C10.5963 7.63703 10.5989 7.6941 10.5989 7.74971V8.02041C10.5989 8.23533 10.4167 8.60215 9.81904 9.59017C9.75098 9.70277 9.67379 9.83042 9.65897 9.85971C9.62648 9.93271 9.6126 9.96392 9.2554 10.1903V12.1711C9.32177 12.1736 9.38129 12.1848 9.43636 12.2054C9.53707 12.2433 9.61549 12.2966 9.68461 12.3435Z" fill="#464646"/>
<path d="M7.5014 10.5285V10.1054L7.34378 10.0801V12.4725L8.45441 12.3198V10.2584L8.12636 10.2057V10.5285C8.12636 10.7011 7.98645 10.841 7.81388 10.841C7.64131 10.841 7.5014 10.7011 7.5014 10.5285Z" fill="#464646"/>
</g>
<defs>
<clipPath id="clip0">
<rect width="20" height="20" fill="white"/>
</clipPath>
</defs>
</svg>
