<svg width="42" height="34" viewBox="0 0 42 34" fill="none" xmlns="http://www.w3.org/2000/svg">
<path d="M25.3351 15.1736C25.4554 15.8172 25.5413 16.4608 25.5413 17.2956C25.5413 24.5839 20.711 29.75 13.4398 29.75C6.47805 29.75 0.839813 24.0447 0.839813 17C0.839813 9.95529 6.47805 4.25 13.4398 4.25C16.8434 4.25 19.6796 5.50236 21.8799 7.5897L18.4591 10.912C17.5309 10.0075 15.8979 8.94645 13.4398 8.94645C9.14243 8.94645 5.63569 12.5471 5.63569 17C5.63569 21.4529 9.14243 25.0536 13.4398 25.0536C18.4248 25.0536 20.2985 21.4181 20.5906 19.5569H13.4398V15.1735H25.3351V15.1736ZM37.5023 15.601V11.9H33.8273V15.601H30.1698V19.3198H33.8273V23.0209H37.5023V19.3198H41.1598V15.601H37.5023Z" fill="white" fill-opacity="0.2"/>
</svg>
