<svg width="32" height="26" viewBox="0 0 32 26" fill="none" xmlns="http://www.w3.org/2000/svg">
<path d="M19.3028 11.6033C19.3945 12.0955 19.46 12.5877 19.46 13.2261C19.46 18.7995 15.7797 22.75 10.2398 22.75C4.93557 22.75 0.639771 18.3871 0.639771 13C0.639771 7.61287 4.93557 3.25 10.2398 3.25C12.833 3.25 14.9939 4.20768 16.6703 5.80389L14.064 8.34448C13.3568 7.65279 12.1126 6.8414 10.2398 6.8414C6.96557 6.8414 4.29377 9.59481 4.29377 13C4.29377 16.4052 6.96557 19.1586 10.2398 19.1586C14.0378 19.1586 15.4654 16.3786 15.688 14.9553H10.2398V11.6033H19.3028V11.6033ZM28.5731 11.9302V9.1H25.7731V11.9302H22.9864V14.774H25.7731V17.6042H28.5731V14.774H31.3598V11.9302H28.5731Z" fill="white"/>
</svg>
