<svg width="39" height="49" viewBox="0 0 39 49" fill="none" xmlns="http://www.w3.org/2000/svg">
<path d="M14.95 9.04575C17.3731 9.04575 19.3375 7.0814 19.3375 4.65825C19.3375 2.2351 17.3731 0.270752 14.95 0.270752C12.5269 0.270752 10.5625 2.2351 10.5625 4.65825C10.5625 7.0814 12.5269 9.04575 14.95 9.04575Z" fill="white"/>
<path d="M16.1962 29.1956C16.6837 27.6248 17.5504 26.2165 18.7421 25.1331C18.7962 25.079 18.7962 25.079 18.7962 25.0248V24.429V16.1415C18.7962 15.8165 19.0129 15.5456 19.2837 15.5456C19.5546 15.5456 19.7712 15.8165 19.7712 16.1415V24.0498C19.7712 24.1581 19.9337 24.2665 20.0421 24.1581C20.8004 23.6706 21.6671 23.2915 22.5879 23.0206C22.6421 23.0206 22.6962 22.9665 22.6962 22.8581V12.5123C22.6962 11.4831 22.0462 10.6165 21.2337 10.6165H18.8504H16.9546C16.9004 10.6165 16.8462 10.6165 16.8462 10.6706C16.6296 10.8873 15.8171 11.754 15.8171 11.754C15.7087 11.8623 15.6546 11.9706 15.7087 12.079L16.2504 19.9331C16.2504 20.0415 16.1962 20.204 16.0879 20.3123L15.1671 21.1248C15.0046 21.2873 14.7337 21.2873 14.5171 21.1248L13.7587 20.3665C13.6504 20.2581 13.5962 20.1498 13.5962 19.9873L14.1379 12.1331C14.1379 12.0248 14.0837 11.8623 14.0296 11.8081C14.0296 11.8081 13.2171 10.9415 13.0004 10.7248C12.9462 10.6706 12.9462 10.6706 12.8921 10.6706H10.9962H8.61289C7.80039 10.6706 7.15039 11.5373 7.15039 12.5665V24.9165C7.15039 25.8373 7.63789 26.6498 8.28789 26.8123C9.20872 27.0831 10.0212 26.1081 10.0212 24.9706V16.1415C10.0212 15.8165 10.2379 15.5456 10.5087 15.5456C10.7796 15.5456 10.9962 15.8165 10.9962 16.1415V24.429V25.404V36.779C10.9962 37.6998 11.4837 38.5123 12.1337 38.6748C13.0546 38.9456 13.8671 37.9706 13.8671 36.8331V26.704C13.8671 25.9998 14.3004 25.404 14.8421 25.404C15.3837 25.404 15.8171 25.9998 15.8171 26.704V29.1956C15.8712 29.3581 16.1421 29.3581 16.1962 29.1956Z" fill="white"/>
<path d="M16.1961 34.3957C16.1419 34.2332 15.8711 34.2874 15.8711 34.4499V36.7791C15.8711 37.6999 16.3586 38.5124 17.0086 38.6749C17.4961 38.7832 17.9836 38.6207 18.2544 38.1874C18.3086 38.1332 18.3086 38.0249 18.2544 37.9707C17.2794 36.9957 16.5753 35.7499 16.1961 34.3957Z" fill="white"/>
<path d="M24.9167 24.8625C21.0709 24.8625 17.9834 27.95 17.9834 31.7959C17.9834 35.6417 21.0709 38.7292 24.9167 38.7292C28.7626 38.7292 31.8501 35.6417 31.8501 31.7959C31.8501 27.95 28.7084 24.8625 24.9167 24.8625ZM29.3042 30.7667L23.1292 34.6667C22.9667 34.7751 22.7501 34.8292 22.5334 34.8292C22.4251 34.8292 22.3167 34.8292 22.2626 34.775C21.9917 34.6667 21.7209 34.5042 21.5584 34.1792L20.0417 31.0917C19.8251 30.6042 19.9334 30.0084 20.3667 29.6834C20.9084 29.3042 21.6667 29.5209 21.9917 30.1167L22.8584 31.9042C22.9126 32.0667 23.1292 32.1209 23.2917 32.0125L28.2209 28.8709C28.7626 28.5459 29.4667 28.7084 29.7917 29.3042C30.0084 29.8459 29.7917 30.4417 29.3042 30.7667Z" fill="white"/>
</svg>
