<svg width="17" height="16" viewBox="0 0 17 16" fill="none" xmlns="http://www.w3.org/2000/svg">
<path d="M10.4342 12.7227H6.5437V13.5056H10.4342V12.7227Z" fill="white"/>
<path d="M14.6762 8.17596L9.16011 3.61323C8.78217 3.27996 8.21857 3.27996 7.84063 3.61323L2.32705 8.17374C2.0623 8.40719 1.9104 8.74481 1.9104 9.09978V15.4698C1.9104 15.7612 2.14647 15.9996 2.43498 15.9996H14.5657C14.8543 15.9996 15.0903 15.7612 15.0903 15.4698V9.09642C15.0903 8.7436 14.9393 8.408 14.6762 8.17596ZM6.5088 9.29476V7.39917H10.4919V9.29476V9.73805H6.5088V9.29476ZM12.1143 11.8724C12.1117 12.3478 11.7293 12.7318 11.2586 12.7318H11.1948L11.1908 13.675C11.1893 14.0329 10.9016 14.3223 10.5472 14.3223H6.44667C6.09117 14.3223 5.803 14.0312 5.803 13.6722V12.7318H5.73248C5.25984 12.7318 4.87668 12.3449 4.87668 11.8675V10.1346C4.87668 9.65725 5.25984 9.27028 5.73248 9.27028H5.803V9.74336V10.4865H6.51493H10.4981H11.2683V9.74336V9.27028C11.7428 9.27028 12.1267 9.66023 12.124 10.1395L12.1143 11.8724Z" fill="white"/>
<path d="M16.7349 6.65629L8.96397 0.160736C8.82892 0.0478591 8.6634 -0.00415732 8.5 0.000258939C8.3366 -0.00415732 8.17109 0.047859 8.03604 0.160736L5.18222 2.54618C5.04979 2.65686 4.84958 2.56174 4.84958 2.38813V1.19996C4.84958 0.908542 4.61351 0.670109 4.32497 0.670109H2.92603C2.63751 0.670109 2.40144 0.908542 2.40144 1.19996V4.64057C2.40144 4.78624 2.33712 4.92432 2.22601 5.0172L0.26508 6.65629C-0.0098559 6.88609 -0.085611 7.29007 0.107507 7.59317C0.337725 7.95445 0.824757 8.02249 1.14278 7.75666L7.92742 2.08555C8.25964 1.80786 8.74037 1.80786 9.07259 2.08555L15.8572 7.75666C16.1753 8.02249 16.6623 7.95445 16.8925 7.59317C17.0856 7.29007 17.0099 6.88609 16.7349 6.65629Z" fill="white"/>
</svg>
