<svg width="92" height="92" viewBox="0 0 92 92" fill="none" xmlns="http://www.w3.org/2000/svg">
<path d="M90.5424 9.7168H1.45763C0.652728 9.7168 0 10.3692 0 11.1744V80.8254C0 81.6306 0.652728 82.283 1.45763 82.283H90.5424C91.3479 82.283 92 81.6306 92 80.8254V11.1744C92 10.3692 91.3479 9.7168 90.5424 9.7168ZM83.2542 70.6619L63.2071 49.9011C62.9855 49.6723 62.6231 49.6574 62.3841 49.8679L48.4797 62.1059L30.7077 40.2236C30.5922 40.0808 30.4234 39.9991 30.2325 40.0032C30.0485 40.007 29.8768 40.0953 29.7669 40.2428L8.7458 68.4495V18.4626H83.2542V70.6619Z" fill="#CAAA3B"/>
<path d="M61.2385 39.5178C65.1851 39.5178 68.3893 36.3163 68.3893 32.3664C68.3893 28.4177 65.1851 25.2144 61.2385 25.2144C57.2886 25.2144 54.0879 28.4177 54.0879 32.3664C54.0879 36.316 57.2889 39.5178 61.2385 39.5178Z" fill="#CAAA3B"/>
</svg>
