<svg width="14" height="14" viewBox="0 0 14 14" fill="none" xmlns="http://www.w3.org/2000/svg">
<g clip-path="url(#clip0)">
<path d="M0.949219 10.4226V12.692C0.949219 12.83 1.06139 12.9451 1.20233 12.9451H2.95685C3.09491 12.9451 3.20996 12.8329 3.20996 12.692V8.69971L1.93578 9.97389C1.66541 10.2414 1.32026 10.3967 0.949219 10.4226Z" fill="white"/>
<path d="M4.08447 8.67139V12.6924C4.08447 12.8305 4.19665 12.9455 4.33758 12.9455H6.09211C6.23017 12.9455 6.34522 12.8333 6.34522 12.6924V10.3252C5.94542 10.3166 5.5715 10.1584 5.28963 9.87654L4.08447 8.67139Z" fill="white"/>
<path d="M7.21924 10.0746V12.6921C7.21924 12.8301 7.33141 12.9452 7.47235 12.9452H9.22687C9.36494 12.9452 9.47999 12.833 9.47999 12.6921V7.86279L7.46947 9.87331C7.39181 9.95097 7.3084 10.0171 7.21924 10.0746Z" fill="white"/>
<path d="M12.4455 4.89453L10.3545 6.98558V12.6921C10.3545 12.8301 10.4667 12.9452 10.6076 12.9452H12.3621C12.5002 12.9452 12.6152 12.833 12.6152 12.6921V5.05273C12.5577 5.00383 12.5146 4.96069 12.4829 4.93192L12.4455 4.89453Z" fill="white"/>
<path d="M13.8809 1.18987C13.7974 1.10071 13.6709 1.05469 13.5098 1.05469C13.4954 1.05469 13.4782 1.05469 13.4638 1.05469C12.6469 1.09208 11.833 1.13235 11.0161 1.16974C10.9068 1.17549 10.7572 1.18124 10.6393 1.29917C10.6019 1.33656 10.5732 1.37971 10.5501 1.43148C10.4293 1.69322 10.599 1.86292 10.6796 1.94345L10.8838 2.15055C11.0247 2.29436 11.1685 2.43817 11.3124 2.57911L6.37668 7.51766L4.15908 5.30006C4.02677 5.16775 3.84844 5.09297 3.65861 5.09297C3.46878 5.09297 3.29332 5.16775 3.16102 5.30006L0.207091 8.25111C-0.0690304 8.52723 -0.0690304 8.97305 0.207091 9.24917L0.339399 9.38148C0.471708 9.51379 0.650036 9.58857 0.83987 9.58857C1.0297 9.58857 1.20516 9.51379 1.33746 9.38148L3.65861 7.06033L5.87621 9.27794C6.00852 9.41024 6.18685 9.48503 6.37668 9.48503C6.56652 9.48503 6.74197 9.41024 6.87715 9.27794L12.4456 3.70948L13.0755 4.33651C13.1503 4.41129 13.2538 4.51484 13.412 4.51484C13.4782 4.51484 13.5443 4.49758 13.6134 4.46019C13.6594 4.4343 13.6997 4.40554 13.7342 4.37102C13.8579 4.24734 13.8809 4.08915 13.8866 3.96547C13.9096 3.43624 13.9355 2.907 13.9614 2.37489L13.9988 1.57817C14.0074 1.41134 13.97 1.28191 13.8809 1.18987Z" fill="white"/>
</g>
<defs>
<clipPath id="clip0">
<rect width="14" height="14" fill="white"/>
</clipPath>
</defs>
</svg>
