<svg width="100" height="100" viewBox="0 0 100 100" fill="none" xmlns="http://www.w3.org/2000/svg">
<g clip-path="url(#clip0)">
<path d="M6.78027 74.4469V90.6568C6.78027 91.6429 7.58152 92.4647 8.58821 92.4647H21.1205C22.1067 92.4647 22.9285 91.6635 22.9285 90.6568V62.1406L13.8271 71.242C11.8959 73.1526 9.43055 74.262 6.78027 74.4469Z" fill="#CAAA3B"/>
<path d="M29.1748 61.938V90.6596C29.1748 91.6457 29.9761 92.4675 30.9827 92.4675H43.5151C44.5012 92.4675 45.323 91.6663 45.323 90.6596V73.7512C42.4673 73.6896 39.7964 72.5596 37.7831 70.5462L29.1748 61.938Z" fill="#CAAA3B"/>
<path d="M51.5659 71.9615V90.6573C51.5659 91.6434 52.3672 92.4652 53.3739 92.4652H65.9062C66.8923 92.4652 67.7141 91.664 67.7141 90.6573V56.1626L53.3533 70.5234C52.7986 71.0781 52.2028 71.5506 51.5659 71.9615Z" fill="#CAAA3B"/>
<path d="M88.897 34.9604L73.9609 49.8965V90.6573C73.9609 91.6434 74.7622 92.4652 75.7689 92.4652H88.3012C89.2874 92.4652 90.1092 91.664 90.1092 90.6573V36.0904C89.6983 35.7412 89.3901 35.433 89.1641 35.2275L88.897 34.9604Z" fill="#CAAA3B"/>
<path d="M99.149 8.49881C98.5532 7.86192 97.6492 7.5332 96.4987 7.5332C96.396 7.5332 96.2727 7.5332 96.17 7.5332C90.3353 7.80029 84.5211 8.08791 78.6864 8.35499C77.9057 8.39608 76.8374 8.43717 75.9951 9.27951C75.728 9.54659 75.5225 9.85476 75.3582 10.2246C74.4953 12.0941 75.7074 13.3063 76.2827 13.8815L77.7414 15.3608C78.7481 16.388 79.7753 17.4152 80.8025 18.4219L45.5477 53.6973L29.7077 37.8573C28.7627 36.9122 27.4889 36.3781 26.1329 36.3781C24.777 36.3781 23.5237 36.9122 22.5787 37.8573L1.47922 58.9362C-0.493074 60.9085 -0.493074 64.0929 1.47922 66.0652L2.42428 67.0103C3.36934 67.9554 4.64312 68.4895 5.99907 68.4895C7.35502 68.4895 8.60825 67.9554 9.55331 67.0103L26.1329 50.4307L41.9729 66.2707C42.918 67.2157 44.1918 67.7499 45.5477 67.7499C46.9037 67.7499 48.1569 67.2157 49.1225 66.2707L88.8972 26.496L93.3965 30.9748C93.9306 31.5089 94.6702 32.2486 95.8002 32.2486C96.2727 32.2486 96.7453 32.1253 97.2383 31.8582C97.567 31.6733 97.8547 31.4679 98.1012 31.2213C98.9846 30.3379 99.149 29.2079 99.1901 28.3245C99.3544 24.5443 99.5393 20.764 99.7243 16.9632L99.9913 11.2723C100.053 10.0808 99.7859 9.15624 99.149 8.49881Z" fill="#CAAA3B"/>
</g>
<defs>
<clipPath id="clip0">
<rect width="100" height="100" fill="white"/>
</clipPath>
</defs>
</svg>
