<svg width="34" height="31" viewBox="0 0 34 31" fill="none" xmlns="http://www.w3.org/2000/svg">
<path d="M34 19.0061V31H26.7127V19.8094C26.7127 16.9982 25.6587 15.0797 23.0209 15.0797C21.0073 15.0797 19.809 16.3726 19.2818 17.6233C19.0896 18.0704 19.0401 18.6928 19.0401 19.3186V31H11.7504C11.7504 31 11.8485 12.0467 11.7504 10.083H19.0394V13.0479C19.0246 13.0701 19.0054 13.094 18.9915 13.1155H19.0394V13.0479C20.0078 11.6247 21.7373 9.59163 25.6085 9.59163C30.4046 9.59155 34 12.5812 34 19.0061ZM4.12498 0C1.63116 0 0 1.56078 0 3.61326C0 5.621 1.58397 7.22915 4.02822 7.22915H4.07691C6.61903 7.22915 8.19999 5.62131 8.19999 3.61326C8.15209 1.56078 6.61903 0 4.12498 0ZM0.432947 31H7.71993V10.083H0.432947V31Z" fill="white" fill-opacity="0.2"/>
</svg>
