<svg width="98" height="98" viewBox="0 0 98 98" fill="none" xmlns="http://www.w3.org/2000/svg">
<g clip-path="url(#clip0)">
<path d="M16.119 12.5991C15.1545 11.6346 13.6072 11.6346 12.6427 12.579C11.658 13.5436 11.658 15.0908 12.6226 16.0554L18.4901 21.9631C18.9523 22.4253 19.5752 22.6865 20.2383 22.6865C20.8813 22.6865 21.5043 22.4253 21.9664 21.9631L39.8303 4.19971C40.7948 3.23519 40.7948 1.68792 39.8504 0.723396C38.8859 -0.241132 37.3386 -0.241132 36.3741 0.723396L30.9687 6.08858C28.0952 3.11462 24.0964 1.4066 19.8967 1.4066C11.3968 1.4066 4.48438 8.31905 4.48438 16.8189C4.48438 25.3188 11.3968 32.2313 19.8967 32.2313C26.7489 32.2313 32.6767 27.8306 34.666 21.2799C35.0679 19.9738 34.3244 18.6073 33.0183 18.2055C31.7122 17.8237 30.3458 18.5471 29.9439 19.8532C28.6177 24.2337 24.4782 27.3082 19.8967 27.3082C14.1096 27.3082 9.40748 22.6061 9.40748 16.8189C9.40748 11.0318 14.1096 6.32971 19.8967 6.32971C22.7702 6.32971 25.503 7.53537 27.4723 9.58499L20.2584 16.7587L16.119 12.5991Z" fill="#CAAA3B"/>
<path d="M19.8967 34.2822C11.3968 34.2822 4.48438 41.1947 4.48438 49.6946C4.48438 58.1945 11.3968 65.1069 19.8967 65.1069C28.3966 65.1069 35.3091 58.1945 35.3091 49.6946C35.3091 41.1947 28.3966 34.2822 19.8967 34.2822ZM19.8967 60.1838C14.1096 60.1838 9.40748 55.4817 9.40748 49.6946C9.40748 43.9074 14.1096 39.2053 19.8967 39.2053C25.6839 39.2053 30.386 43.9074 30.386 49.6946C30.386 55.4817 25.6839 60.1838 19.8967 60.1838Z" fill="#CAAA3B"/>
<path d="M19.8967 60.1838C14.1096 60.1838 9.40748 55.4817 9.40748 49.6946C9.40748 43.9074 14.1096 39.2053 19.8967 39.2053C25.6839 39.2053 30.386 43.9074 30.386 49.6946C30.386 55.4817 25.6839 60.1838 19.8967 60.1838Z" fill="#CAAA3B"/>
<path fill-rule="evenodd" clip-rule="evenodd" d="M35.3091 82.5891C35.3091 74.0892 28.3966 67.1768 19.8967 67.1768C11.3968 67.1768 4.48438 74.0892 4.48438 82.5891C4.48438 91.089 11.3968 98.0015 19.8967 98.0015C28.3966 98.0015 35.3091 91.089 35.3091 82.5891ZM9.40748 82.6092C9.40748 88.3964 14.1096 93.0984 19.8967 93.0984C25.6839 93.0984 30.386 88.3964 30.386 82.6092C30.386 76.822 25.6839 72.12 19.8967 72.12C14.1096 72.12 9.40748 76.822 9.40748 82.6092Z" fill="#CAAA3B"/>
<path d="M19.8967 93.0984C14.1096 93.0984 9.40748 88.3964 9.40748 82.6092C9.40748 76.822 14.1096 72.12 19.8967 72.12C25.6839 72.12 30.386 76.822 30.386 82.6092C30.386 88.3964 25.6839 93.0984 19.8967 93.0984Z" fill="#CAAA3B"/>
<path d="M91.0507 47.2227H43.1659C41.7995 47.2227 40.6943 48.3278 40.6943 49.6943C40.6943 51.0607 41.7995 52.1659 43.1659 52.1659H91.0507C92.4171 52.1659 93.5223 51.0607 93.5223 49.6943C93.5223 48.3278 92.4171 47.2227 91.0507 47.2227Z" fill="#CAAA3B"/>
<path d="M91.0507 14.3691H43.1659C41.7995 14.3691 40.6943 15.4743 40.6943 16.8407C40.6943 18.2072 41.7995 19.3123 43.1659 19.3123H91.0507C92.4171 19.3123 93.5223 18.2072 93.5223 16.8407C93.5223 15.4743 92.4171 14.3691 91.0507 14.3691Z" fill="#CAAA3B"/>
<path d="M91.0507 80.1377H43.1659C41.7995 80.1377 40.6943 81.2429 40.6943 82.6093C40.6943 83.9757 41.7995 85.0809 43.1659 85.0809H91.0507C92.4171 85.0809 93.5223 83.9757 93.5223 82.6093C93.5223 81.2228 92.4171 80.1377 91.0507 80.1377Z" fill="#CAAA3B"/>
</g>
<defs>
<clipPath id="clip0">
<rect width="98" height="98" fill="white"/>
</clipPath>
</defs>
</svg>
