<svg width="32" height="32" viewBox="0 0 32 32" fill="none" xmlns="http://www.w3.org/2000/svg">
<path d="M19.6363 3.72751C19.6363 5.78615 18.0082 7.45501 15.9999 7.45501C13.9916 7.45501 12.3635 5.78615 12.3635 3.72751C12.3635 1.66886 13.9916 0 15.9999 0C18.0082 0 19.6363 1.66886 19.6363 3.72751Z" fill="url(#paint0_linear)"/>
<path d="M6.54545 16.4007C6.54545 18.2534 5.0802 19.7554 3.27273 19.7554C1.46525 19.7554 0 18.2534 0 16.4007C0 14.5479 1.46525 13.0459 3.27273 13.0459C5.0802 13.0459 6.54545 14.5479 6.54545 16.4007Z" fill="url(#paint1_linear)"/>
<path d="M9.09086 24.2288C9.09086 26.0816 7.62561 27.5835 5.81814 27.5835C4.01066 27.5835 2.54541 26.0816 2.54541 24.2288C2.54541 22.376 4.01066 20.874 5.81814 20.874C7.62561 20.874 9.09086 22.376 9.09086 24.2288Z" fill="url(#paint2_linear)"/>
<path d="M14.3763 29.0181C14.3763 30.6651 13.0738 32.0001 11.4672 32.0001C9.86055 32.0001 8.55811 30.6651 8.55811 29.0181C8.55811 27.3712 9.86055 26.0361 11.4672 26.0361C13.0738 26.0361 14.3763 27.3712 14.3763 29.0181Z" fill="url(#paint3_linear)"/>
<path d="M23.2689 29.0006C23.2689 30.6475 21.9664 31.9826 20.3598 31.9826C18.7531 31.9826 17.4507 30.6475 17.4507 29.0006C17.4507 27.3536 18.7531 26.0186 20.3598 26.0186C21.9664 26.0186 23.2689 27.3536 23.2689 29.0006Z" fill="url(#paint4_linear)"/>
<path d="M29.8182 23.8563C29.8182 25.2974 28.6786 26.4656 27.2727 26.4656C25.8669 26.4656 24.7273 25.2974 24.7273 23.8563C24.7273 22.4153 25.8669 21.2471 27.2727 21.2471C28.6786 21.2471 29.8182 22.4153 29.8182 23.8563Z" fill="url(#paint5_linear)"/>
<path d="M32.0001 16.7733C32.0001 18.2144 30.8605 19.3826 29.4546 19.3826C28.0488 19.3826 26.9092 18.2144 26.9092 16.7733C26.9092 15.3323 28.0488 14.1641 29.4546 14.1641C30.8605 14.1641 32.0001 15.3323 32.0001 16.7733Z" fill="url(#paint6_linear)"/>
<path d="M26.5455 4.84618C26.5455 5.8755 25.7315 6.70993 24.7274 6.70993C23.7232 6.70993 22.9092 5.8755 22.9092 4.84618C22.9092 3.81685 23.7232 2.98242 24.7274 2.98242C25.7315 2.98242 26.5455 3.81685 26.5455 4.84618Z" fill="url(#paint7_linear)"/>
<path d="M10.5454 7.82809C10.5454 9.88674 8.91738 11.5556 6.90907 11.5556C4.90076 11.5556 3.27271 9.88674 3.27271 7.82809C3.27271 5.76945 4.90076 4.10059 6.90907 4.10059C8.91738 4.10059 10.5454 5.76945 10.5454 7.82809Z" fill="url(#paint8_linear)"/>
<path d="M30.5455 10.0646C30.5455 11.2998 29.5687 12.3011 28.3637 12.3011C27.1587 12.3011 26.1819 11.2998 26.1819 10.0646C26.1819 8.82944 27.1587 7.82812 28.3637 7.82812C29.5687 7.82812 30.5455 8.82944 30.5455 10.0646Z" fill="url(#paint9_linear)"/>
<defs>
<linearGradient id="paint0_linear" x1="14.6363" y1="7.45501" x2="18.7777" y2="7.45501" gradientUnits="userSpaceOnUse">
<stop stop-color="#E6B712"/>
<stop offset="1" stop-color="#CAAA3B"/>
</linearGradient>
<linearGradient id="paint1_linear" x1="2.04545" y1="19.7554" x2="5.77273" y2="19.7554" gradientUnits="userSpaceOnUse">
<stop stop-color="#E6B712"/>
<stop offset="1" stop-color="#CAAA3B"/>
</linearGradient>
<linearGradient id="paint2_linear" x1="4.59086" y1="27.5835" x2="8.31814" y2="27.5835" gradientUnits="userSpaceOnUse">
<stop stop-color="#E6B712"/>
<stop offset="1" stop-color="#CAAA3B"/>
</linearGradient>
<linearGradient id="paint3_linear" x1="10.3763" y1="32.0001" x2="13.6894" y2="32.0001" gradientUnits="userSpaceOnUse">
<stop stop-color="#E6B712"/>
<stop offset="1" stop-color="#CAAA3B"/>
</linearGradient>
<linearGradient id="paint4_linear" x1="19.2689" y1="31.9826" x2="22.582" y2="31.9826" gradientUnits="userSpaceOnUse">
<stop stop-color="#E6B712"/>
<stop offset="1" stop-color="#CAAA3B"/>
</linearGradient>
<linearGradient id="paint5_linear" x1="26.3182" y1="26.4656" x2="29.2172" y2="26.4656" gradientUnits="userSpaceOnUse">
<stop stop-color="#E6B712"/>
<stop offset="1" stop-color="#CAAA3B"/>
</linearGradient>
<linearGradient id="paint6_linear" x1="28.5001" y1="19.3826" x2="31.3991" y2="19.3826" gradientUnits="userSpaceOnUse">
<stop stop-color="#E6B712"/>
<stop offset="1" stop-color="#CAAA3B"/>
</linearGradient>
<linearGradient id="paint7_linear" x1="24.0455" y1="6.70993" x2="26.1162" y2="6.70993" gradientUnits="userSpaceOnUse">
<stop stop-color="#E6B712"/>
<stop offset="1" stop-color="#CAAA3B"/>
</linearGradient>
<linearGradient id="paint8_linear" x1="5.54543" y1="11.5556" x2="9.68685" y2="11.5556" gradientUnits="userSpaceOnUse">
<stop stop-color="#E6B712"/>
<stop offset="1" stop-color="#CAAA3B"/>
</linearGradient>
<linearGradient id="paint9_linear" x1="27.5455" y1="12.3011" x2="30.0304" y2="12.3011" gradientUnits="userSpaceOnUse">
<stop stop-color="#E6B712"/>
<stop offset="1" stop-color="#CAAA3B"/>
</linearGradient>
</defs>
</svg>
