<svg width="14" height="14" viewBox="0 0 14 14" fill="none" xmlns="http://www.w3.org/2000/svg">
<g clip-path="url(#clip0)">
<path d="M2.17267 7.63639H9.54537C9.89681 7.63639 10.1817 7.35147 10.1817 7.00002C10.1817 6.64858 9.89681 6.36366 9.54537 6.36366H2.17267L2.99545 5.54093C3.24397 5.29245 3.24397 4.8895 2.99545 4.64098C2.74701 4.39246 2.34407 4.39246 2.0955 4.64098L0.186539 6.54994C0.171776 6.56467 0.157861 6.58007 0.144624 6.59619C0.1414 6.60013 0.138642 6.60437 0.135503 6.6084C0.125788 6.62075 0.116242 6.63314 0.107503 6.6462C0.104958 6.65002 0.102879 6.65405 0.100376 6.65791C0.0916364 6.67157 0.0830667 6.68536 0.0753455 6.69974C0.0738606 6.70259 0.0726303 6.7056 0.0711455 6.70844C0.0631273 6.72401 0.0554061 6.73979 0.0486606 6.75608C0.0478121 6.75808 0.0472182 6.7602 0.0464121 6.76224C0.039497 6.77937 0.0330909 6.79673 0.0276606 6.81459C0.0269394 6.81683 0.0265576 6.81917 0.0259212 6.82146C0.0207879 6.83898 0.0160788 6.85667 0.0124727 6.87479C0.0114121 6.88017 0.0109455 6.88573 0.0099697 6.89116C0.00733939 6.90618 0.00470909 6.9212 0.00322424 6.93651C0.00106061 6.95751 0 6.97873 0 7.00002C0 7.02132 0.00106061 7.04253 0.00322424 7.06357C0.00470909 7.0791 0.00742424 7.09425 0.0100121 7.10939C0.0109455 7.11465 0.0114121 7.12004 0.0124727 7.12526C0.0161212 7.14354 0.0207879 7.1614 0.0259636 7.1791C0.0266 7.18117 0.0269818 7.18338 0.0276182 7.18546C0.0330909 7.2034 0.039497 7.22093 0.046497 7.23824C0.0472606 7.2401 0.0478121 7.2421 0.0486182 7.24396C0.0554061 7.26038 0.0631697 7.27625 0.0712727 7.2919C0.0726727 7.29466 0.0738606 7.29754 0.075303 7.3003C0.0831091 7.31477 0.0917212 7.32868 0.100588 7.34247C0.102964 7.3462 0.105 7.35015 0.107461 7.3538C0.116242 7.36691 0.125873 7.37938 0.135545 7.39177C0.138642 7.39576 0.1414 7.39996 0.144582 7.40386C0.157861 7.41994 0.171776 7.43538 0.186497 7.4501L2.09546 9.35907C2.21972 9.48337 2.38259 9.54548 2.54545 9.54548C2.70832 9.54548 2.87119 9.48337 2.99541 9.35907C3.24393 9.11054 3.24393 8.70764 2.99541 8.45912L2.17267 7.63639Z" fill="#F30000"/>
<path d="M8.79467 1.79443C7.05765 1.79443 5.44154 2.65615 4.47151 4.09947C4.27551 4.39114 4.35306 4.78653 4.64473 4.98257C4.93644 5.17857 5.33179 5.1011 5.52788 4.80935C6.26101 3.71841 7.48223 3.06712 8.79467 3.06712C10.9632 3.06716 12.7274 4.83137 12.7274 6.99993C12.7274 9.16849 10.9632 10.9327 8.79467 10.9327C7.48609 10.9327 6.26686 10.2843 5.53318 9.19835C5.33637 8.90711 4.94089 8.83058 4.64961 9.0273C4.35841 9.22406 4.28179 9.61962 4.47856 9.91082C5.44926 11.3476 7.06274 12.2054 8.79467 12.2054C11.665 12.2054 14.0002 9.87027 14.0002 6.99993C14.0002 4.12959 11.665 1.79443 8.79467 1.79443Z" fill="#F30000"/>
</g>
<defs>
<clipPath id="clip0">
<rect width="14" height="14" fill="white" transform="matrix(1 0 0 -1 0 14)"/>
</clipPath>
</defs>
</svg>
