<svg width="96" height="96" viewBox="0 0 96 96" fill="none" xmlns="http://www.w3.org/2000/svg">
<path d="M60.782 41.4733C58.2254 33.8036 47.999 36.3604 47.999 41.4733C47.999 36.3604 37.7727 33.8036 35.2162 41.4733C32.6594 49.1432 47.999 59.3696 47.999 59.3696C47.999 59.3696 63.3386 49.1432 60.782 41.4733Z" fill="#CAAA3B"/>
<path d="M88.8686 66.7221C87.249 64.0326 83.7559 63.1656 81.0666 64.7849L62.7154 74.1608C63.7676 73.1294 64.4209 71.6924 64.4209 70.1027C64.4209 66.9632 61.8759 64.4185 58.7366 64.4185H41.5046C34.6151 64.4185 31.2336 59.7246 20.2103 59.3867V56.8394H0V94.7341H20.2104V85.4933C21.5499 86.4036 23.8404 87.9436 26.5262 89.6815C30.3583 92.161 32.1574 92.2079 35.0745 92.2079L53.8948 92.2011C56.2526 92.2011 58.6106 91.1974 61.2212 89.9342C63.8316 88.6711 86.9317 74.5236 86.9317 74.5236C89.6212 72.9044 90.4883 69.4116 88.8686 66.7221ZM12.6315 87.1555H7.57894V64.4187H12.6315V87.1555Z" fill="#CAAA3B"/>
<path d="M75.7889 1.26221V10.503C74.4494 9.59264 72.1589 8.05271 69.4731 6.31477C65.6408 3.83527 63.8418 3.78839 60.9246 3.78839L42.1045 3.79514C39.7467 3.79514 37.3887 4.79883 34.7781 6.06202C32.1674 7.32521 9.06758 21.4725 9.06758 21.4725C6.37808 23.0921 5.51109 26.5846 7.13071 29.2741C8.75033 31.9636 12.2433 32.8306 14.9324 31.2114L33.2836 21.8355C32.2313 22.8669 31.5781 24.3037 31.5781 25.8935C31.5781 29.033 34.123 31.5778 37.2623 31.5778H54.4943C61.3838 31.5778 64.7654 36.2716 75.7887 36.6095V39.1569H95.9993V1.26221H75.7889ZM88.4204 31.578H83.3678V8.84114H88.4204V31.578Z" fill="#CAAA3B"/>
</svg>
