<svg width="14" height="15" viewBox="0 0 14 15" fill="none" xmlns="http://www.w3.org/2000/svg">
<g clip-path="url(#clip0)">
<path d="M8.86402 6.93345C8.49119 5.81495 6.99983 6.18781 6.99983 6.93345C6.99983 6.18781 5.5085 5.81495 5.13567 6.93345C4.76281 8.05197 6.99983 9.54333 6.99983 9.54333C6.99983 9.54333 9.23685 8.05197 8.86402 6.93345Z" fill="white"/>
<path d="M12.96 10.6156C12.7238 10.2233 12.2144 10.0969 11.8222 10.333L9.14599 11.7004C9.29944 11.5499 9.39471 11.3404 9.39471 11.1086C9.39471 10.6507 9.02357 10.2796 8.56576 10.2796H6.05276C5.04804 10.2796 4.55489 9.59508 2.94733 9.54581V9.17432H0V14.7006H2.94736V13.353C3.1427 13.4858 3.47673 13.7103 3.8684 13.9638C4.42725 14.3254 4.68962 14.3322 5.11503 14.3322L7.85966 14.3312C8.20351 14.3312 8.54738 14.1849 8.92809 14.0007C9.30877 13.8164 12.6775 11.7533 12.6775 11.7533C13.0698 11.5171 13.1962 11.0078 12.96 10.6156ZM1.84209 13.5954H1.10526V10.2796H1.84209V13.5954Z" fill="white"/>
<path d="M11.0525 1.06934V2.41695C10.8572 2.28419 10.5231 2.05962 10.1315 1.80617C9.57259 1.44457 9.31023 1.43774 8.88481 1.43774L6.14021 1.43872C5.79636 1.43872 5.45249 1.58509 5.07178 1.76931C4.69105 1.95352 1.32233 4.01666 1.32233 4.01666C0.930107 4.25286 0.803669 4.76219 1.03986 5.15441C1.27606 5.54663 1.78545 5.67307 2.17761 5.43693L4.85383 4.0696C4.70037 4.22002 4.60511 4.42955 4.60511 4.6614C4.60511 5.11925 4.97624 5.49036 5.43406 5.49036H7.94706C8.95178 5.49036 9.44492 6.17488 11.0525 6.22415V6.59564H13.9999V1.06934H11.0525ZM12.8946 5.49038H12.1578V2.1746H12.8946V5.49038Z" fill="white"/>
</g>
<defs>
<clipPath id="clip0">
<rect width="14" height="14" fill="white" transform="translate(0 0.885254)"/>
</clipPath>
</defs>
</svg>
