<svg width="99" height="99" viewBox="0 0 99 99" fill="none" xmlns="http://www.w3.org/2000/svg">
<g clip-path="url(#clip0)">
<path d="M41.8503 89.5216C40.5545 90.8179 40.5545 92.9187 41.8503 94.2129C42.4981 94.8609 43.3472 95.1849 44.1957 95.1849C45.0446 95.1849 45.8935 94.8609 46.5413 94.2129L56.6977 84.055L52.0063 79.3638L41.8503 89.5216Z" fill="#CAAA3B"/>
<path d="M64.8481 66.5156L61.3882 69.977L66.079 74.668L74.2304 66.5156H64.8481Z" fill="#CAAA3B"/>
<path d="M53.24 66.5156H43.8579L71.5478 94.2098C72.1956 94.8578 73.0445 95.1818 73.893 95.1818C74.7419 95.1818 75.5906 94.8578 76.2384 94.2098C77.5347 92.9156 77.5347 90.8148 76.2384 89.5186L53.24 66.5156Z" fill="#CAAA3B"/>
<path d="M20.8854 21.9787C25.269 21.9787 28.8228 17.9128 28.8228 12.898C28.8228 7.88295 25.269 3.81543 20.8854 3.81543C16.4988 3.81543 12.9482 7.88295 12.9482 12.898C12.9482 17.9128 16.4988 21.9787 20.8854 21.9787Z" fill="#CAAA3B"/>
<path d="M17.7856 25.2157V31.8038C17.7856 32.4972 18.3493 33.0609 19.0427 33.0609H22.7229C23.4162 33.0609 23.9797 32.4972 23.9797 31.8038V25.2157C22.0036 25.2028 19.7619 25.2028 17.7856 25.2157Z" fill="#CAAA3B"/>
<path d="M15.8761 60.4615H14.4116C13.009 60.4615 11.8719 59.3243 11.8719 57.9213V49.5388H8.42784L8.98194 46.8724H15.215V25.2441C13.7732 25.2703 12.7785 25.3058 12.6752 25.3542C11.5413 25.6329 10.5305 26.365 10.0446 27.5297L0.29015 51.1149C-0.513636 53.0588 0.409789 55.2878 2.35362 56.0928C2.82972 56.2884 3.32543 56.3827 3.81133 56.3827C5.30478 56.3827 6.72391 55.4967 7.33292 54.0273L7.66673 53.2176L5.3697 64.2764C5.19494 65.1153 5.4089 65.9885 5.94646 66.6527C6.48749 67.3168 7.2974 67.7023 8.1559 67.7023H10.8255V90.6084C10.8255 93.1337 12.8729 95.1813 15.3965 95.1813C17.9202 95.1813 19.9677 93.1337 19.9677 90.6084V67.7021H21.8015V90.6082C21.8015 93.1335 23.849 95.1811 26.3727 95.1811C28.8963 95.1811 30.9439 93.1335 30.9439 90.6082V67.7021H33.6135C34.472 67.7021 35.2817 67.3166 35.8227 66.6525C35.8552 66.6121 35.8615 66.5569 35.8909 66.5149H22.8676C19.3101 66.5149 16.3851 63.8775 15.8761 60.4615Z" fill="#CAAA3B"/>
<path d="M26.5557 46.8725H32.7857L33.3398 49.5388H29.906V52.3281H41.7143C41.6884 51.9214 41.643 51.5116 41.4779 51.1149L31.7234 27.5299C31.2406 26.3652 30.2298 25.6331 29.0961 25.353C28.9923 25.3058 27.9979 25.2686 26.5561 25.2441V46.8725H26.5557Z" fill="#CAAA3B"/>
<path d="M95.2234 55.646H92.3386C93.1733 54.6482 93.6763 53.3634 93.6763 51.9609C93.6763 48.7863 91.1031 46.2129 87.9285 46.2129C84.754 46.2129 82.1806 48.7863 82.1806 51.9609C82.1806 53.3634 82.6836 54.6482 83.5184 55.646H79.0001C79.8349 54.6482 80.338 53.3634 80.338 51.9609C80.338 48.7863 77.7647 46.2129 74.59 46.2129C71.4155 46.2129 68.8422 48.7863 68.8422 51.9609C68.8422 53.3634 69.3453 54.6482 70.1801 55.646H65.5883C66.4229 54.6482 66.926 53.3634 66.926 51.9609C66.926 51.4552 66.8602 50.9652 66.7375 50.498C66.4621 49.4115 65.8686 48.4517 65.0616 47.7241C64.0387 46.786 62.6753 46.2129 61.178 46.2129C58.0035 46.2129 55.43 48.7863 55.43 51.9609C55.43 53.3634 55.9331 54.6482 56.7679 55.646H22.8686C20.7821 55.646 19.0908 57.3372 19.0908 59.4219C19.0908 61.5066 20.7821 63.1979 22.8686 63.1979H95.2234C97.31 63.1979 99.0011 61.5066 99.0011 59.4219C99.0011 57.3372 97.31 55.646 95.2234 55.646Z" fill="#CAAA3B"/>
<path d="M75.6348 41.923C75.6348 45.0089 78.1357 47.5115 81.2235 47.5115C84.3106 47.5115 86.8116 45.0089 86.8116 41.923C86.8116 38.8371 84.3106 36.3345 81.2235 36.3345C78.1357 36.3345 75.6348 38.8371 75.6348 41.923Z" fill="#CAAA3B"/>
<path d="M74.59 37.5599C77.6773 37.5599 80.1783 35.0572 80.1783 31.9713C80.1783 28.8854 77.6773 26.3828 74.59 26.3828C71.5025 26.3828 69.0015 28.8854 69.0015 31.9713C69.0015 35.057 71.5025 37.5599 74.59 37.5599Z" fill="#CAAA3B"/>
<path d="M67.9542 47.5115C71.0416 47.5115 73.5426 45.0089 73.5426 41.923C73.5426 38.8371 71.0416 36.3345 67.9542 36.3345C64.8667 36.3345 62.3657 38.8371 62.3657 41.923C62.3657 45.0087 64.8667 47.5115 67.9542 47.5115Z" fill="#CAAA3B"/>
</g>
<defs>
<clipPath id="clip0">
<rect width="99" height="99" fill="white"/>
</clipPath>
</defs>
</svg>
