<svg width="14" height="14" viewBox="0 0 14 14" fill="none" xmlns="http://www.w3.org/2000/svg">
<g clip-path="url(#clip0)">
<path d="M5.9182 12.6596C5.73495 12.8429 5.73495 13.14 5.9182 13.323C6.00981 13.4147 6.12988 13.4605 6.24987 13.4605C6.36992 13.4605 6.48996 13.4147 6.58157 13.323L8.01784 11.8866L7.3544 11.2231L5.9182 12.6596Z" fill="white"/>
<path d="M9.17044 9.40625L8.68115 9.89574L9.3445 10.5591L10.4972 9.40625H9.17044Z" fill="white"/>
<path d="M7.52891 9.40625H6.20215L10.1179 13.3226C10.2095 13.4142 10.3296 13.4601 10.4495 13.4601C10.5696 13.4601 10.6896 13.4142 10.7812 13.3226C10.9645 13.1396 10.9645 12.8425 10.7812 12.6592L7.52891 9.40625Z" fill="white"/>
<path d="M2.95349 3.10809C3.57338 3.10809 4.07595 2.53312 4.07595 1.82395C4.07595 1.11476 3.57338 0.539551 2.95349 0.539551C2.33316 0.539551 1.83105 1.11476 1.83105 1.82395C1.83105 2.53312 2.33316 3.10809 2.95349 3.10809Z" fill="white"/>
<path d="M2.51514 3.56582V4.49747C2.51514 4.59552 2.59485 4.67523 2.6929 4.67523H3.21333C3.31138 4.67523 3.39107 4.59552 3.39107 4.49747V3.56582C3.11162 3.564 2.79461 3.564 2.51514 3.56582Z" fill="white"/>
<path d="M2.2451 8.55005H2.03801C1.83966 8.55005 1.67885 8.38924 1.67885 8.19083V7.00543H1.19182L1.27017 6.62837H2.15162V3.56982C1.94773 3.57352 1.80707 3.57854 1.79246 3.58539C1.63211 3.6248 1.48916 3.72833 1.42045 3.89304L0.0410313 7.22832C-0.0726354 7.50321 0.0579499 7.81842 0.332834 7.93226C0.400163 7.95992 0.470262 7.97326 0.538976 7.97326C0.750171 7.97326 0.950856 7.84796 1.03698 7.64017L1.08418 7.52567L0.759352 9.08954C0.734638 9.20818 0.764895 9.33166 0.840913 9.42558C0.917423 9.5195 1.03196 9.57401 1.15336 9.57401H1.53088V12.8133C1.53088 13.1704 1.8204 13.4599 2.17728 13.4599C2.53416 13.4599 2.82371 13.1704 2.82371 12.8133V9.57398H3.08304V12.8132C3.08304 13.1703 3.37259 13.4599 3.72947 13.4599C4.08635 13.4599 4.3759 13.1703 4.3759 12.8132V9.57398H4.75342C4.87483 9.57398 4.98933 9.51947 5.06584 9.42555C5.07043 9.41983 5.07132 9.41204 5.07548 9.40609H3.2338C2.73072 9.40609 2.31708 9.03313 2.2451 8.55005Z" fill="white"/>
<path d="M3.75537 6.62837H4.63638L4.71474 7.00543H4.22915V7.39988H5.89902C5.89535 7.34236 5.88894 7.28442 5.86558 7.22832L4.48616 3.89307C4.41788 3.72836 4.27494 3.62482 4.11462 3.58521C4.09995 3.57854 3.95932 3.57329 3.75543 3.56982V6.62837H3.75537Z" fill="white"/>
<path d="M13.4659 7.86913H13.058C13.176 7.72803 13.2472 7.54635 13.2472 7.348C13.2472 6.89908 12.8833 6.53516 12.4343 6.53516C11.9854 6.53516 11.6215 6.89908 11.6215 7.348C11.6215 7.54635 11.6926 7.72803 11.8107 7.86913H11.1717C11.2898 7.72803 11.3609 7.54635 11.3609 7.348C11.3609 6.89908 10.997 6.53516 10.5481 6.53516C10.0992 6.53516 9.73526 6.89908 9.73526 7.348C9.73526 7.54635 9.8064 7.72803 9.92446 7.86913H9.27511C9.39314 7.72803 9.46428 7.54635 9.46428 7.348C9.46428 7.27649 9.45498 7.20719 9.43763 7.14114C9.39868 6.98748 9.31475 6.85176 9.20062 6.74886C9.05598 6.6162 8.86317 6.53516 8.65143 6.53516C8.20251 6.53516 7.83858 6.89908 7.83858 7.348C7.83858 7.54635 7.90972 7.72803 8.02778 7.86913H3.23394C2.93888 7.86913 2.69971 8.1083 2.69971 8.4031C2.69971 8.69791 2.93888 8.93708 3.23394 8.93708H13.4659C13.761 8.93708 14.0001 8.69791 14.0001 8.4031C14.0001 8.1083 13.761 7.86913 13.4659 7.86913Z" fill="white"/>
<path d="M10.6958 5.92848C10.6958 6.36487 11.0495 6.71878 11.4861 6.71878C11.9227 6.71878 12.2764 6.36487 12.2764 5.92848C12.2764 5.49209 11.9227 5.13818 11.4861 5.13818C11.0495 5.13818 10.6958 5.49209 10.6958 5.92848Z" fill="#CAAA3B"/>
<path d="M10.5481 5.31155C10.9847 5.31155 11.3384 4.95764 11.3384 4.52125C11.3384 4.08486 10.9847 3.73096 10.5481 3.73096C10.1115 3.73096 9.75781 4.08486 9.75781 4.52125C9.75781 4.95762 10.1115 5.31155 10.5481 5.31155Z" fill="white"/>
<path d="M9.60963 6.71878C10.0462 6.71878 10.3999 6.36487 10.3999 5.92848C10.3999 5.49209 10.0462 5.13818 9.60963 5.13818C9.17301 5.13818 8.81934 5.49209 8.81934 5.92848C8.81934 6.36484 9.17301 6.71878 9.60963 6.71878Z" fill="#F30000"/>
</g>
<defs>
<clipPath id="clip0">
<rect width="14" height="14" fill="white"/>
</clipPath>
</defs>
</svg>
