<svg width="15" height="15" viewBox="0 0 15 15" fill="none" xmlns="http://www.w3.org/2000/svg">
<path d="M4 1.5L3 0.500004C1.28571 1.78572 0.142857 3.78572 0 6.07143H1.42857C1.57143 4.14286 2.5 2.5 4 1.5ZM13.5714 6.07143H15C14.8571 3.78572 13.7857 1.78572 12.0714 0.500004L11.0714 1.5C12.5 2.5 13.4286 4.14286 13.5714 6.07143ZM12.1429 6.42858C12.1429 4.21429 10.6429 2.42858 8.57143 1.92858V1.42858C8.57143 0.857147 8.07143 0.357147 7.5 0.357147C6.92857 0.357147 6.42857 0.857147 6.42857 1.42858V1.92858C4.35714 2.42858 2.85714 4.21429 2.85714 6.42858V10.3571L1.42857 11.7857V12.5H13.5714V11.7857L12.1429 10.3571V6.42858ZM7.5 14.6429C7.57143 14.6429 7.71429 14.6429 7.78571 14.6429C8.28572 14.5714 8.64286 14.2143 8.78571 13.7857C8.85714 13.6428 8.92857 13.4286 8.92857 13.2143H6.07143C6.07143 14 6.71429 14.6429 7.5 14.6429Z" fill="white"/>
</svg>
