<svg width="50" height="50" viewBox="0 0 50 50" fill="none" xmlns="http://www.w3.org/2000/svg">
<path d="M47.4294 30.0409C48.088 30.678 48.32 31.6372 48.0348 32.5079C44.8626 42.1996 35.7353 49.2205 25.0034 49.2205C16.6831 49.2205 9.07219 45.0176 4.63591 38.1085C4.44481 37.8109 4.08648 37.6688 3.74636 37.7658L1.02021 38.5427C0.427729 38.7115 -0.125294 38.1755 0.0249509 37.578L2.38329 28.2007L2.84693 26.3459C2.99636 25.7481 3.73721 25.5365 4.17986 25.9653L6.48795 28.2007L12.5015 34.0222C12.9441 34.4506 12.7568 35.1974 12.1646 35.3664L9.1525 36.2262C12.7611 41.3312 18.6262 44.4197 25.0034 44.4197C33.61 44.4197 40.9252 38.7946 43.4616 31.0266C44.0142 29.3341 46.1078 28.7625 47.3875 30.0003L47.4294 30.0409ZM45.6873 12.3899C41.2945 5.18862 33.517 0.779785 25.0035 0.779785C14.264 0.779785 5.14359 7.80087 1.97201 17.4926C1.68704 18.3634 1.91891 19.3225 2.57757 19.9595L2.61907 19.9997C3.89898 21.2376 5.99261 20.6658 6.54514 18.973C9.08011 11.2055 16.3903 5.58069 25.0035 5.58069C31.3726 5.58069 37.2378 8.66125 40.8464 13.7662L37.8342 14.626C37.2419 14.795 37.0548 15.5418 37.4973 15.9703L43.5189 21.7997L45.8269 24.0352C46.2697 24.464 47.0104 24.2524 47.1599 23.6545L47.6236 21.7998L49.9752 12.4141C50.1249 11.8166 49.5718 11.2812 48.9794 11.4502L45.6873 12.3899ZM24.6063 23.2261L23.2517 25.2829V25.3078H24.9953V23.3012C24.9953 22.8117 25.0704 22.298 25.0704 22.298H25.0456C25.0456 22.298 24.8571 22.8499 24.6063 23.2261ZM37.964 24.9971C37.964 32.1568 32.1599 37.9608 25.0002 37.9608C17.8405 37.9608 12.0365 32.1568 12.0365 24.9971C12.0365 17.8374 17.8405 12.0334 25.0002 12.0334C32.1599 12.0334 37.964 17.8374 37.964 24.9971ZM20.087 27.4154H16.2738C16.3366 26.2614 19.9488 25.7221 19.9488 22.925C19.9488 21.0185 18.3561 20.1781 16.8885 20.1781C14.5557 20.1781 13.7278 22.1095 13.7278 22.1095L15.3585 23.2006C15.3585 23.2006 15.835 22.2476 16.688 22.2476C17.152 22.2476 17.6537 22.5112 17.6537 23.1382C17.6537 24.4298 13.7778 25.0192 13.7778 28.3308C13.7778 28.632 13.8157 28.9452 13.8784 29.2965H20.0871V27.4154H20.087ZM28.2317 25.3078H27.1654V20.3284H24.4809L21.0191 25.7972V27.1265H24.9952V29.2966H27.1653V27.1265H28.2316V25.3078H28.2317ZM36.1055 29.2967V25.1073C36.1055 23.2886 35.0895 22.6864 33.7851 22.6864C32.9322 22.6864 32.1797 23.0753 31.8162 23.7151H31.7907C31.7907 23.7151 31.8162 23.4891 31.8162 23.1632V20.3284H29.6461V29.2967H31.8162V26.4372C31.8162 26.136 31.841 25.8598 31.9288 25.6089C32.1173 25.0449 32.5559 24.656 33.2205 24.656C33.6973 24.656 33.9354 24.9068 33.9354 25.509V29.2967H36.1055Z" fill="url(#paint0_linear)"/>
<defs>
<linearGradient id="paint0_linear" x1="15.625" y1="49.2206" x2="44.0972" y2="49.2206" gradientUnits="userSpaceOnUse">
<stop stop-color="#E6B712"/>
<stop offset="1" stop-color="#CAAA3B"/>
</linearGradient>
</defs>
</svg>
