<svg width="17" height="17" viewBox="0 0 17 17" fill="none" xmlns="http://www.w3.org/2000/svg">
<path d="M13.2418 16.1036L14.4875 13.4392C14.6227 13.1497 14.5305 12.8031 14.2713 12.6181L11.5296 10.6795C11.2897 10.5098 10.9636 10.5191 10.7353 10.7042L9.04961 12.0516C7.19001 10.6397 5.83298 8.57714 5.29495 6.2557L7.21369 5.26809C7.47653 5.13264 7.61764 4.84156 7.56091 4.55327L6.91245 1.25859C6.84742 0.943176 6.5688 0.71737 6.24931 0.722353L3.30844 0.770123C3.003 0.775291 2.73751 0.989071 2.67243 1.29359C1.19741 8.19508 5.5918 14.9928 12.5041 16.4701C12.8059 16.5346 13.1116 16.3829 13.2418 16.1036Z" fill="url(#paint0_linear)"/>
<defs>
<linearGradient id="paint0_linear" x1="2.0274" y1="4.31162" x2="0.34814" y2="12.1687" gradientUnits="userSpaceOnUse">
<stop stop-color="#E6B712"/>
<stop offset="1" stop-color="#CAAA3B"/>
</linearGradient>
</defs>
</svg>
