<svg xmlns="http://www.w3.org/2000/svg" width="255.226" height="222.097" viewBox="0 0 255.226 222.097">
  <g id="quotations" transform="translate(255.226 238.662) rotate(180)">
    <g id="Group_3" data-name="Group 3">
      <g id="Group_2" data-name="Group 2">
        <g id="Group_1" data-name="Group 1">
          <path id="Path_1" data-name="Path 1" d="M76.532,27.975l-7.4-5.244-.254-.191-.477-.191-5.4-2.574.159.381a42.68,42.68,0,0,0-16.336-3.591C20.945,16.565,0,38.336,0,65.192s20.976,48.627,46.816,48.627a44.9,44.9,0,0,0,22.724-6.356c-2.32,26-15.415,63.915-63.406,102.594A16.384,16.384,0,0,0,3.4,232.464a15.039,15.039,0,0,0,21.612,2.861c58.893-47.547,73.608-96.364,75.579-128.973,3.369-41.7-9.28-63.629-20.849-75.07Z" fill="#090509"/>
          <path id="Path_2" data-name="Path 2" d="M233.76,31.28l-3.242-3.305-7.374-5.244-.254-.191-.509-.191-5.4-2.574.159.381a42.84,42.84,0,0,0-16.368-3.591c-25.839,0-46.752,21.771-46.752,48.627s20.913,48.627,46.816,48.627a44.9,44.9,0,0,0,22.724-6.356c-2.288,26-15.383,63.915-63.374,102.594a16.353,16.353,0,0,0-2.733,22.407,15.039,15.039,0,0,0,21.612,2.861c58.925-47.547,73.608-96.364,75.611-128.973C258.042,64.652,245.393,42.722,233.76,31.28Z" fill="#090509"/>
        </g>
      </g>
    </g>
  </g>
</svg>
