<svg width="15" height="15" viewBox="0 0 15 15" fill="none" xmlns="http://www.w3.org/2000/svg">
<g clip-path="url(#clip0)">
<path d="M6.96806 2.88697C7.92161 2.88697 8.69736 3.66272 8.69736 4.61628V5.57566C8.91434 5.61721 9.1212 5.70038 9.30656 5.8188L9.23552 4.95691L10.9904 2.91756L8.37196 2.29922L6.97471 0L5.57745 2.29922L2.95898 2.91759L4.7139 4.95694L4.49285 7.63834L5.23872 7.32615V4.61631C5.23872 3.66275 6.0145 2.88697 6.96806 2.88697Z" fill="white"/>
<path d="M10.8277 13.6226L12.0431 11.4757V8.68231C12.0431 8.21339 11.6616 7.83188 11.1927 7.83188C11.158 7.83188 11.1226 7.83425 11.0843 7.83915L10.7057 7.8874L10.6049 7.51937C10.5039 7.15076 10.1666 6.8933 9.78482 6.8933C9.70208 6.8933 9.6199 6.9054 9.54057 6.92927L9.2447 7.01828L9.06083 6.76999C8.89803 6.55014 8.64877 6.42402 8.37699 6.42402C8.35261 6.42402 8.32706 6.42525 8.29888 6.42783L7.81952 6.47154V4.61632C7.81952 4.14739 7.43805 3.76591 6.96912 3.76591C6.5002 3.76591 6.11869 4.14739 6.11869 4.61632V9.24229L5.45008 8.83372C5.33919 8.76595 5.21146 8.72939 5.08074 8.72801C4.84639 8.72719 4.6242 8.83729 4.48648 9.02643C4.34864 9.21578 4.3107 9.46146 4.38502 9.68359L4.78528 10.8799C4.98731 11.4838 5.31048 12.0256 5.74578 12.4902L6.72874 13.5396V15H10.8277V13.6226H10.8277Z" fill="white"/>
</g>
<defs>
<clipPath id="clip0">
<rect width="15" height="15" fill="white"/>
</clipPath>
</defs>
</svg>
