<svg width="20" height="12" viewBox="0 0 20 12" fill="none" xmlns="http://www.w3.org/2000/svg">
<g clip-path="url(#clip0)">
<path d="M1.60513 10.2718H10.672V8.99029V7.5534C10.672 6.71845 11.1925 5.94175 11.9951 5.5534C12.1036 5.32039 12.2554 5.10679 12.4072 4.8932H1.58344V2.27184H15.3355V3.20388C15.3572 3.20388 15.3789 3.20388 15.4006 3.18447C15.6392 3.14563 15.8778 3.12621 16.1164 3.12621C16.355 3.12621 16.5936 3.14563 16.8322 3.18447V1.41748C16.8322 0.640776 16.1164 0 15.2488 0H1.58344C0.715803 0 0 0.640776 0 1.41748V8.85437C0.021691 9.65048 0.737494 10.2718 1.60513 10.2718Z" fill="#464646"/>
<path d="M19.1524 6.66052C18.8921 5.37896 17.6341 4.38867 16.1157 4.38867C14.5973 4.38867 13.3392 5.35955 13.0789 6.66052C12.6017 6.71877 12.2113 7.0877 12.2113 7.55372V11.1071C12.2113 11.5926 12.6668 12.0003 13.2091 12.0003H19.0006C19.5429 12.0003 19.9984 11.5926 19.9984 11.1071V7.5343C20.0201 7.0877 19.6513 6.71877 19.1524 6.66052ZM16.1157 5.67022C16.8315 5.67022 17.4388 6.07799 17.6774 6.6411H14.5539C14.7925 6.07799 15.3999 5.67022 16.1157 5.67022Z" fill="#464646"/>
</g>
<defs>
<clipPath id="clip0">
<rect width="20" height="12" fill="white"/>
</clipPath>
</defs>
</svg>
