<svg width="105" height="87" viewBox="0 0 105 87" fill="none" xmlns="http://www.w3.org/2000/svg">
<path d="M51.258 42.6085C52.8051 44.0907 55.2455 44.0907 56.7926 42.6085L101.695 -0.412495C104.298 -2.90651 102.533 -7.30079 98.928 -7.30079L9.12262 -7.30079C5.51758 -7.30079 3.75225 -2.90651 6.35536 -0.412495L51.258 42.6085Z" fill="#E6B712"/>
<path d="M51.5364 23.2998C53.1059 24.8523 55.6364 24.8397 57.1904 23.2716L80.7642 -0.515375C83.2666 -3.04039 81.4781 -7.33104 77.9231 -7.33104L30.3003 -7.33104C26.7261 -7.33104 24.9462 -3.00062 27.4874 -0.487167L51.5364 23.2998Z" fill="black"/>
<path d="M41.5839 38.9035C43.139 37.3485 43.147 34.8298 41.602 33.2648L-3.66608 -12.5875C-6.17843 -15.1323 -10.5126 -13.3533 -10.5126 -9.7773L-10.5126 81.3431C-10.5126 84.9068 -6.20402 86.6914 -3.68416 84.1716L41.5839 38.9035Z" fill="black"/>
<path d="M20.5424 36.9583C22.0894 35.3959 22.0854 32.8777 20.5334 31.3203L-3.65173 7.05112C-6.16958 4.52452 -10.4851 6.30767 -10.4851 9.87464L-10.4851 58.5685C-10.4851 62.1417 -6.15683 63.922 -3.64273 61.383L20.5424 36.9583Z" fill="#E6B712"/>
</svg>
