<svg width="100" height="100" viewBox="0 0 100 100" fill="none" xmlns="http://www.w3.org/2000/svg">
<path d="M0 40.625C0 46.4416 3.9918 51.2879 9.375 52.6855V93.75H3.125C1.40371 93.75 0 95.1477 0 96.875C0 98.6023 1.40391 100 3.125 100H96.875C98.6084 100 100 98.6023 100 96.875C100 95.1477 98.6084 93.75 96.875 93.75H90.625V52.6855C96.0082 51.2879 100 46.4416 100 40.625V37.5H0V40.625ZM62.5 53.125C69.4092 53.125 75 47.5281 75 40.625C75 46.4416 78.9918 51.2879 84.375 52.6855V93.75H37.5V53.125C44.4092 53.125 50 47.5281 50 40.625C50 47.5281 55.6031 53.125 62.5 53.125ZM34.375 52.6855V93.75H15.625V52.6855C21.0084 51.2879 25 46.4416 25 40.625C25 46.4416 28.9918 51.2879 34.375 52.6855ZM87.5 9.375H12.5L0 34.375H100L87.5 9.375ZM26.4039 16.3209L20.1539 28.8209C19.873 29.3703 19.3238 29.6877 18.75 29.6877C18.518 29.6877 18.2801 29.6389 18.0541 29.5229C17.285 29.1383 16.9676 28.1984 17.3582 27.4293L23.6082 14.9293C23.9988 14.1602 24.9326 13.849 25.7018 14.2273C26.4771 14.6119 26.7822 15.5518 26.4039 16.3209ZM38.9039 16.3209L32.6539 28.8209C32.373 29.3703 31.8238 29.6877 31.25 29.6877C31.018 29.6877 30.7801 29.6389 30.5541 29.5229C29.785 29.1383 29.4676 28.1984 29.8582 27.4293L36.1082 14.9293C36.4988 14.1602 37.4389 13.849 38.2018 14.2273C38.9771 14.6119 39.2822 15.5518 38.9039 16.3209ZM51.5625 28.125C51.5625 28.9918 50.8668 29.6875 50 29.6875C49.1395 29.6875 48.4375 28.9916 48.4375 28.125V15.625C48.4375 14.7582 49.1395 14.0625 50 14.0625C50.8668 14.0625 51.5625 14.7584 51.5625 15.625V28.125ZM69.5068 29.4922C69.2627 29.6266 69.0064 29.6875 68.75 29.6875C68.2008 29.6875 67.6637 29.3945 67.3828 28.8758L60.5469 16.3758C60.1318 15.6189 60.4125 14.6668 61.1695 14.2578C61.9143 13.8428 62.8785 14.1113 63.2936 14.8742L70.1295 27.3742C70.5322 28.1311 70.2637 29.0832 69.5068 29.4922ZM81.9457 29.5227C81.7262 29.6387 81.4941 29.6875 81.25 29.6875C80.6762 29.6875 80.127 29.3701 79.8584 28.8207L73.6084 16.3207C73.2178 15.5516 73.5352 14.6117 74.3041 14.2271C75.0609 13.8426 76.0131 14.1539 76.4037 14.9291L82.6537 27.4291C83.0322 28.1982 82.727 29.1383 81.9457 29.5227ZM26.5625 75.4762V68.274C25.6469 67.7248 25 66.7725 25 65.6252C25 63.8979 26.4039 62.5002 28.125 62.5002C29.8584 62.5002 31.25 63.8979 31.25 65.6252C31.25 66.7727 30.6092 67.7248 29.6875 68.274V75.4762C30.6092 76.0256 31.25 76.9777 31.25 78.1252C31.25 79.8525 29.8584 81.2502 28.125 81.2502C26.4037 81.2502 25 79.8525 25 78.1252C25 76.9775 25.6471 76.0254 26.5625 75.4762ZM12.5 3.125C12.5 1.39766 13.9039 0 15.625 0H84.375C86.1084 0 87.5 1.39766 87.5 3.125C87.5 4.85234 86.1084 6.25 84.375 6.25H15.625C13.9039 6.25 12.5 4.85234 12.5 3.125ZM54.773 69.8547L52.5637 67.6451L61.4016 58.8072L63.6109 61.0168L54.773 69.8547ZM54.773 78.6926L52.5637 76.483L70.2395 58.8072L72.4488 61.0168L54.773 78.6926ZM70.2393 67.6453L72.4486 69.8549L63.6107 78.6928L61.4014 76.4832L70.2393 67.6453Z" fill="#CAAA3B"/>
</svg>
