<svg width="14" height="14" viewBox="0 0 14 14" fill="none" xmlns="http://www.w3.org/2000/svg">
<path d="M0 5.6875C0 6.50182 0.558852 7.1803 1.3125 7.37598V13.125H0.4375C0.19652 13.125 0 13.3207 0 13.5625C0 13.8043 0.196547 14 0.4375 14H13.5625C13.8052 14 14 13.8043 14 13.5625C14 13.3207 13.8052 13.125 13.5625 13.125H12.6875V7.37598C13.4411 7.1803 14 6.50182 14 5.6875V5.25H0V5.6875ZM8.75 7.4375C9.71729 7.4375 10.5 6.65394 10.5 5.6875C10.5 6.50182 11.0589 7.1803 11.8125 7.37598V13.125H5.25V7.4375C6.21729 7.4375 7 6.65394 7 5.6875C7 6.65394 7.78444 7.4375 8.75 7.4375ZM4.8125 7.37598V13.125H2.1875V7.37598C2.94118 7.1803 3.5 6.50182 3.5 5.6875C3.5 6.50182 4.05885 7.1803 4.8125 7.37598ZM12.25 1.3125H1.75L0 4.8125H14L12.25 1.3125ZM3.69655 2.28493L2.82155 4.03493C2.78223 4.11184 2.70534 4.15628 2.625 4.15628C2.59252 4.15628 2.55921 4.14944 2.52757 4.1332C2.41989 4.07936 2.37546 3.94778 2.43015 3.8401L3.30515 2.0901C3.35984 1.98242 3.49057 1.93886 3.59825 1.99183C3.7068 2.04567 3.74951 2.17725 3.69655 2.28493ZM5.44655 2.28493L4.57155 4.03493C4.53223 4.11184 4.45534 4.15628 4.375 4.15628C4.34252 4.15628 4.30921 4.14944 4.27757 4.1332C4.16989 4.07936 4.12546 3.94778 4.18015 3.8401L5.05515 2.0901C5.10984 1.98242 5.24144 1.93886 5.34825 1.99183C5.4568 2.04567 5.49951 2.17725 5.44655 2.28493ZM7.21875 3.9375C7.21875 4.05885 7.12135 4.15625 7 4.15625C6.87952 4.15625 6.78125 4.05882 6.78125 3.9375V2.1875C6.78125 2.06615 6.87952 1.96875 7 1.96875C7.12135 1.96875 7.21875 2.06618 7.21875 2.1875V3.9375ZM9.73096 4.12891C9.69678 4.14772 9.6609 4.15625 9.625 4.15625C9.54811 4.15625 9.47291 4.11523 9.43359 4.04261L8.47656 2.29261C8.41846 2.18665 8.45775 2.05335 8.56373 1.99609C8.668 1.93799 8.80299 1.97559 8.8611 2.08239L9.81813 3.83239C9.87451 3.93835 9.83691 4.07165 9.73096 4.12891ZM11.4724 4.13317C11.4417 4.14941 11.4092 4.15625 11.375 4.15625C11.2947 4.15625 11.2178 4.11182 11.1802 4.0349L10.3052 2.2849C10.2505 2.17722 10.2949 2.04564 10.4026 1.9918C10.5085 1.93796 10.6418 1.98155 10.6965 2.09007L11.5715 3.84007C11.6245 3.94775 11.5818 4.07936 11.4724 4.13317ZM3.71875 10.5667V9.55836C3.59056 9.48147 3.5 9.34814 3.5 9.18753C3.5 8.9457 3.69655 8.75003 3.9375 8.75003C4.18018 8.75003 4.375 8.9457 4.375 9.18753C4.375 9.34817 4.28528 9.48147 4.15625 9.55836V10.5667C4.28528 10.6436 4.375 10.7769 4.375 10.9375C4.375 11.1794 4.18018 11.375 3.9375 11.375C3.69652 11.375 3.5 11.1794 3.5 10.9375C3.5 10.7769 3.59059 10.6436 3.71875 10.5667ZM1.75 0.4375C1.75 0.195672 1.94655 0 2.1875 0H11.8125C12.0552 0 12.25 0.195672 12.25 0.4375C12.25 0.679328 12.0552 0.875 11.8125 0.875H2.1875C1.94655 0.875 1.75 0.679328 1.75 0.4375ZM7.66823 9.77966L7.35891 9.47032L8.59622 8.23301L8.90553 8.54235L7.66823 9.77966ZM7.66823 11.017L7.35891 10.7076L9.83352 8.23301L10.1428 8.54235L7.66823 11.017ZM9.8335 9.47034L10.1428 9.77968L8.9055 11.017L8.59619 10.7076L9.8335 9.47034Z" fill="white"/>
</svg>
