<svg width="93" height="93" viewBox="0 0 93 93" fill="none" xmlns="http://www.w3.org/2000/svg">
<g clip-path="url(#clip0)">
<path d="M51.4827 51.4811C52.3998 51.4811 53.1434 50.7375 53.1434 49.8204C53.1434 48.9032 52.3998 48.1597 51.4827 48.1597H41.5186C40.6015 48.1597 39.8579 48.9032 39.8579 49.8204C39.8579 50.7375 40.6015 51.4811 41.5186 51.4811H51.4827Z" fill="#CAAA3B"/>
<path d="M43.2756 59.3095C44.3971 58.3591 45.8802 57.9496 47.3308 58.1904C49.7651 58.66 51.5133 60.8047 51.4825 63.2836V63.106H64.768C65.6851 63.106 66.4287 62.3624 66.4287 61.4453V1.66068C66.4287 0.743578 65.6851 0 64.768 0H28.2329C27.3158 0 26.5723 0.743578 26.5723 1.66068V61.4453C26.5723 62.3624 27.3158 63.106 28.2329 63.106H41.5184C41.5168 61.644 42.1598 60.255 43.2756 59.3095ZM56.4646 28.2316H44.8398V24.9103H56.4646V28.2316ZM44.8398 19.9282V13.2855H48.1612V19.9282H44.8398ZM51.4825 19.9282V13.2855H54.8039V19.9282H51.4825ZM58.1253 13.2855H61.4466V19.9282H58.1253V13.2855ZM43.1791 4.98205H56.4646V8.30342H43.1791V4.98205ZM36.5364 4.98205H39.8577V8.30342H36.5364V4.98205ZM41.5184 13.2855V19.9282H38.1971V13.2855H41.5184ZM36.5364 24.9103H41.5184V28.2316H36.5364V24.9103ZM36.5364 31.553H56.4646V34.8744H36.5364V31.553ZM53.1432 38.1957V41.5171H39.8577V38.1957H53.1432ZM34.8757 19.9282H31.5543V13.2855H34.8757V19.9282ZM36.5364 49.8205C36.5364 47.0692 38.7671 44.8385 41.5184 44.8385H51.4825C54.2338 44.8385 56.4646 47.0692 56.4646 49.8205C56.4646 52.5719 54.2338 54.8026 51.4825 54.8026H41.5184C38.7671 54.8026 36.5364 52.5719 36.5364 49.8205Z" fill="#CAAA3B"/>
<path d="M66.7192 74.756C66.2359 74.67 65.7388 74.8022 65.3617 75.1184C64.9855 75.4339 64.7682 75.9001 64.7682 76.3915C64.7682 77.3086 64.0246 78.0522 63.1075 78.0522C62.1904 78.0522 61.4468 77.3086 61.4468 76.3915C61.4468 75.4744 60.7032 74.7308 59.7861 74.7308C58.869 74.7308 58.1254 75.4744 58.1254 76.3915C58.1254 77.3086 57.3819 78.0522 56.4648 78.0522C55.5476 78.0522 54.8041 77.3086 54.8041 76.3915C54.8041 75.4744 54.0605 74.7308 53.1434 74.7308C52.2263 74.7308 51.4827 75.4744 51.4827 76.3915C51.4827 77.3086 50.7391 78.0522 49.822 78.0522C48.9049 78.0522 48.1613 77.3086 48.1613 76.3915V63.2836C48.193 62.4306 47.6205 61.6732 46.7909 61.4705C46.3077 61.3845 45.8106 61.5167 45.4335 61.833C45.0573 62.1484 44.84 62.6146 44.84 63.106V86.3556C44.84 86.9541 44.518 87.5063 43.9966 87.8006C43.4761 88.0958 42.8371 88.0869 42.3238 87.7787L35.4005 83.627C35.0291 83.4024 34.5677 83.3854 34.1801 83.5808L33.9158 83.7105C33.5176 83.9108 33.2541 84.3057 33.22 84.7501C33.186 85.1953 33.3871 85.625 33.7495 85.8837L43.7136 93H68.0895V76.5691C68.1212 75.7161 67.5487 74.9587 66.7192 74.756Z" fill="#CAAA3B"/>
<path d="M1.66264 6.64258C0.745531 6.64258 0.00195312 7.38616 0.00195312 8.30326V54.8024C0.00195312 55.7195 0.745531 56.4631 1.66264 56.4631H19.9302V6.64258H1.66264ZM6.64469 9.96395H9.96606V13.2853H6.64469V9.96395ZM13.2874 18.2674V23.2494H9.96606V18.2674H13.2874ZM3.32332 18.2674H6.64469V23.2494H3.32332V18.2674ZM16.6088 44.8383H9.96606C9.04895 44.8383 8.30538 45.5819 8.30538 46.499C8.30538 47.4161 9.04895 48.1597 9.96606 48.1597H16.6088V51.4811H9.96606C7.21474 51.4811 4.98401 49.2503 4.98401 46.499C4.98401 43.7477 7.21474 41.5169 9.96606 41.5169H16.6088V44.8383ZM16.6088 38.1956H13.2874V34.8742H16.6088V38.1956ZM16.6088 31.5528H9.96606V28.2315H16.6088V31.5528ZM16.6088 13.2853H13.2874V9.96395H16.6088V13.2853Z" fill="#CAAA3B"/>
<path d="M91.3393 6.64258H73.0718V56.4631H91.3393C92.2564 56.4631 93 55.7195 93 54.8024V8.30326C93 7.38616 92.2564 6.64258 91.3393 6.64258ZM76.3931 9.96395H84.6966V13.2853H76.3931V9.96395ZM83.0359 18.2674V23.2494H79.7145V18.2674H83.0359ZM76.3931 28.2315H81.3752V31.5528H76.3931V28.2315ZM76.3931 34.8742H79.7145V38.1956H76.3931V34.8742ZM83.0359 51.4811H76.3931V48.1597H83.0359C83.953 48.1597 84.6966 47.4161 84.6966 46.499C84.6966 45.5819 83.953 44.8383 83.0359 44.8383H76.3931V41.5169H83.0359C85.7872 41.5169 88.0179 43.7477 88.0179 46.499C88.0179 49.2503 85.7872 51.4811 83.0359 51.4811ZM89.6786 23.2494H86.3572V18.2674H89.6786V23.2494Z" fill="#CAAA3B"/>
</g>
<defs>
<clipPath id="clip0">
<rect width="93" height="93" fill="white"/>
</clipPath>
</defs>
</svg>
