<svg width="14" height="14" viewBox="0 0 14 14" fill="none" xmlns="http://www.w3.org/2000/svg">
<path d="M7.74997 7.75C7.88803 7.75 7.99996 7.63806 7.99996 7.5C7.99996 7.36194 7.88803 7.25 7.74997 7.25H6.25C6.11194 7.25 6 7.36194 6 7.5C6 7.63806 6.11194 7.75 6.25 7.75H7.74997Z" fill="white"/>
<path d="M6.51497 8.92831C6.68379 8.78524 6.90705 8.7236 7.12543 8.75985C7.49188 8.83053 7.75506 9.1534 7.75042 9.52656V9.49983H9.75038C9.88844 9.49983 10.0004 9.38789 10.0004 9.24983V0.249996C10.0004 0.111936 9.88844 0 9.75038 0H4.25048C4.11242 0 4.00049 0.111936 4.00049 0.249996V9.24983C4.00049 9.38789 4.11242 9.49983 4.25048 9.49983H6.25045C6.2502 9.27974 6.347 9.07064 6.51497 8.92831ZM8.50041 4.24992H6.75044V3.74993H8.50041V4.24992ZM6.75044 2.99995V1.99996H7.25043V2.99995H6.75044ZM7.75042 2.99995V1.99996H8.25041V2.99995H7.75042ZM8.7504 1.99996H9.25039V2.99995H8.7504V1.99996ZM6.50044 0.749987H8.50041V1.24998H6.50044V0.749987ZM5.50046 0.749987H6.00045V1.24998H5.50046V0.749987ZM6.25045 1.99996V2.99995H5.75046V1.99996H6.25045ZM5.50046 3.74993H6.25045V4.24992H5.50046V3.74993ZM5.50046 4.74991H8.50041V5.24991H5.50046V4.74991ZM8.00041 5.7499V6.24989H6.00045V5.7499H8.00041ZM5.25047 2.99995H4.75047V1.99996H5.25047V2.99995ZM5.50046 7.49987C5.50046 7.08569 5.83627 6.74988 6.25045 6.74988H7.75042C8.1646 6.74988 8.50041 7.08569 8.50041 7.49987C8.50041 7.91404 8.1646 8.24985 7.75042 8.24985H6.25045C5.83627 8.24985 5.50046 7.91404 5.50046 7.49987Z" fill="white"/>
<path d="M10.0439 11.2533C9.97118 11.2404 9.89635 11.2603 9.83959 11.3079C9.78295 11.3554 9.75023 11.4256 9.75023 11.4996C9.75023 11.6376 9.6383 11.7495 9.50024 11.7495C9.36218 11.7495 9.25024 11.6376 9.25024 11.4996C9.25024 11.3615 9.1383 11.2496 9.00025 11.2496C8.86219 11.2496 8.75025 11.3615 8.75025 11.4996C8.75025 11.6376 8.63831 11.7495 8.50025 11.7495C8.3622 11.7495 8.25026 11.6376 8.25026 11.4996C8.25026 11.3615 8.13832 11.2496 8.00026 11.2496C7.8622 11.2496 7.75027 11.3615 7.75027 11.4996C7.75027 11.6376 7.63833 11.7495 7.50027 11.7495C7.36221 11.7495 7.25028 11.6376 7.25028 11.4996V9.52632C7.25504 9.3979 7.16886 9.28389 7.04398 9.25338C6.97123 9.24044 6.8964 9.26033 6.83964 9.30794C6.783 9.35542 6.75029 9.42561 6.75029 9.49959V12.9995C6.75029 13.0896 6.70182 13.1727 6.62334 13.2171C6.54497 13.2615 6.44878 13.2601 6.37151 13.2138L5.32929 12.5888C5.27338 12.555 5.20393 12.5524 5.14558 12.5818L5.10578 12.6013C5.04585 12.6315 5.00618 12.6909 5.00105 12.7578C4.99592 12.8248 5.0262 12.8895 5.08076 12.9285L6.58073 13.9998H10.2502V11.5263C10.255 11.3979 10.1688 11.2839 10.0439 11.2533Z" fill="white"/>
<path d="M0.250484 1C0.112425 1 0.000488281 1.11194 0.000488281 1.25V8.24987C0.000488281 8.38793 0.112425 8.49986 0.250484 8.49986H3.00043V1H0.250484ZM1.00047 1.49999H1.50046V1.99998H1.00047V1.49999ZM2.00045 2.74997V3.49995H1.50046V2.74997H2.00045ZM0.500479 2.74997H1.00047V3.49995H0.500479V2.74997ZM2.50044 6.7499H1.50046C1.3624 6.7499 1.25047 6.86183 1.25047 6.99989C1.25047 7.13795 1.3624 7.24989 1.50046 7.24989H2.50044V7.74988H1.50046C1.08628 7.74988 0.750475 7.41407 0.750475 6.99989C0.750475 6.58571 1.08628 6.2499 1.50046 6.2499H2.50044V6.7499ZM2.50044 5.74991H2.00045V5.24992H2.50044V5.74991ZM2.50044 4.74993H1.50046V4.24994H2.50044V4.74993ZM2.50044 1.99998H2.00045V1.49999H2.50044V1.99998Z" fill="white"/>
<path d="M13.75 1H11V8.49986H13.75C13.888 8.49986 13.9999 8.38793 13.9999 8.24987V1.25C13.9999 1.11194 13.888 1 13.75 1ZM11.5 1.49999H12.75V1.99998H11.5V1.49999ZM12.5 2.74997V3.49995H12V2.74997H12.5ZM11.5 4.24994H12.25V4.74993H11.5V4.24994ZM11.5 5.24992H12V5.74991H11.5V5.24992ZM12.5 7.74988H11.5V7.24989H12.5C12.638 7.24989 12.75 7.13795 12.75 6.99989C12.75 6.86183 12.638 6.7499 12.5 6.7499H11.5V6.2499H12.5C12.9142 6.2499 13.25 6.58571 13.25 6.99989C13.25 7.41407 12.9142 7.74988 12.5 7.74988ZM13.5 3.49995H13V2.74997H13.5V3.49995Z" fill="white"/>
</svg>
