<svg width="30" height="30" viewBox="0 0 30 30" fill="none" xmlns="http://www.w3.org/2000/svg">
<path fill-rule="evenodd" clip-rule="evenodd" d="M15 30C23.2843 30 30 23.2843 30 15C30 6.71573 23.2843 0 15 0C6.71573 0 0 6.71573 0 15C0 23.2843 6.71573 30 15 30ZM15 28.5C22.4558 28.5 28.5 22.4558 28.5 15C28.5 7.54416 22.4558 1.5 15 1.5C7.54416 1.5 1.5 7.54416 1.5 15C1.5 22.4558 7.54416 28.5 15 28.5ZM12.8866 22.2499C12.8866 23.3924 13.699 24.2302 14.7653 24.2302C15.8316 24.2302 16.6694 23.3924 16.6694 22.2499C16.6694 21.1074 15.8316 20.2696 14.7653 20.2696C13.699 20.2696 12.8866 21.1074 12.8866 22.2499ZM13.4705 18.467H16.0347C15.6793 15.1918 19.6399 14.0494 19.6399 10.825C19.6399 8.05765 17.685 6.61052 14.943 6.61052C13.0896 6.61052 11.5917 7.5245 10.5 8.81932L12.1249 10.3172C12.8611 9.50478 13.699 8.99702 14.7399 8.99702C16.0347 8.99702 16.7964 9.80947 16.7964 11.0281C16.7964 13.3131 12.9373 14.7602 13.4705 18.467Z" fill="white"/>
</svg>
