<svg width="100" height="100" viewBox="0 0 100 100" fill="none" xmlns="http://www.w3.org/2000/svg">
<g clip-path="url(#clip0)">
<path d="M97.1236 36.4847L94.579 35.9422C94.2562 35.513 93.9106 35.1017 93.517 34.7255C93.3237 34.5407 93.1132 34.3735 92.9043 34.205C90.8151 32.5256 87.955 31.6657 84.3701 31.6657H80.9925H74.5195L68.806 30.4479L53.003 4.30055C52.1739 2.9284 51.0868 2.24268 50.0001 2.24268C48.9134 2.24268 47.8261 2.92875 46.997 4.30055L31.1942 30.4476L25.4806 31.6654H19.0076H12.535H5.92583C4.6934 31.6654 3.66562 32.4961 3.34207 33.625C3.27468 33.8614 3.22652 34.1059 3.22652 34.3645V35.0296V36.4093L2.87616 36.4838C-0.259598 37.152 -0.936146 39.5036 1.36623 41.7358L12.3575 52.3935V54.2737V56.1536V63.3388C12.3575 64.8289 13.5663 66.0377 15.0567 66.0377H19.3397H20.7023H22.0647L18.1672 94.0167C17.8405 96.3621 18.8333 97.7565 20.5349 97.7565C21.1368 97.7565 21.8278 97.5822 22.5802 97.2135L49.9997 83.788L77.4187 97.2138C78.1713 97.5822 78.8621 97.7572 79.4641 97.7572C81.1661 97.7572 82.1588 96.3631 81.8319 94.017L77.9342 66.0384H78.4795C78.7596 66.0384 79.0241 65.9839 79.2783 65.9044C79.7712 65.751 80.1993 65.464 80.5264 65.0805C80.9274 64.6095 81.179 64.0065 81.179 63.3391V62.4205V60.5414V58.6613L84.703 55.2444C85.4697 55.2017 86.1967 55.1172 86.8943 54.9997C87.8411 54.8405 88.7226 54.6114 89.5389 54.3147C90.9954 53.7851 92.2525 53.0491 93.2805 52.0871C94.4734 50.9697 95.3581 49.6369 95.9411 48.1066C96.2396 47.3228 96.454 46.4845 96.5907 45.597C96.6916 44.9428 96.7484 44.261 96.7613 43.5522L98.6339 41.7361C100.936 39.5043 100.26 37.1529 97.1236 36.4847ZM93.5906 46.6269C93.1609 47.9997 92.4494 49.1679 91.4362 50.1169C90.5504 50.9466 89.4279 51.5665 88.0725 51.9775C86.7371 52.3838 85.1742 52.587 83.3826 52.587H78.4809V61.2779V63.3391H77.5598H69.4878V34.3649H84.3703C87.6114 34.3649 90.039 35.1358 91.653 36.6775C93.267 38.2193 94.0743 40.413 94.0743 43.2591C94.0743 44.4988 93.9064 45.6169 93.5906 46.6269ZM15.057 58.7716V56.8917V55.0113V41.5195H5.92583V35.8346V34.4548V34.3652H6.34623H12.8187H33.1411V41.52H24.0099V63.34H22.4405H21.078H19.7154H15.057V58.7716ZM50.0001 63.8334C46.7325 63.8334 44.0279 63.3128 41.887 62.2722C39.746 61.2313 38.0099 59.5843 36.6792 57.3312C35.3487 55.0778 34.6831 52.2582 34.6831 48.8719C34.6831 44.1416 36.0007 40.4587 38.6357 37.8238C41.2711 35.1884 44.9402 33.8713 49.6442 33.8713C54.4665 33.8713 58.1822 35.1658 60.7912 37.7548C63.4001 40.3439 64.7045 43.971 64.7045 48.635C64.7045 52.0213 64.1346 54.7984 62.9949 56.9656C61.8553 59.1329 60.2083 60.8196 58.0539 62.0255C55.8992 63.2315 53.2152 63.8334 50.0001 63.8334Z" fill="#CAAA3B"/>
<path d="M49.6235 40.6494C47.8184 40.6494 46.3688 41.2886 45.2752 42.5663C44.1816 43.8446 43.6348 45.9591 43.6348 48.9109C43.6348 51.8364 44.1785 53.9378 45.2657 55.2154C46.353 56.4937 47.8315 57.1325 49.7025 57.1325C51.626 57.1325 53.1153 56.5068 54.1692 55.2549C55.2234 54.0027 55.7504 51.7566 55.7504 48.515C55.7504 45.7878 55.2003 43.7949 54.1002 42.5365C53.0002 41.279 51.5081 40.6494 49.6235 40.6494Z" fill="#CAAA3B"/>
<path d="M81.03 40.252H78.4805V46.7147H80.6744C82.4002 46.7147 83.6127 46.4151 84.3111 45.8153C85.0097 45.2155 85.3585 44.4485 85.3585 43.513C85.3585 42.6039 85.0556 41.8332 84.4494 41.2004C83.8433 40.5683 82.7036 40.252 81.03 40.252Z" fill="#CAAA3B"/>
</g>
<defs>
<clipPath id="clip0">
<rect width="100" height="100" fill="white"/>
</clipPath>
</defs>
</svg>
