<svg width="50" height="50" viewBox="0 0 50 50" fill="none" xmlns="http://www.w3.org/2000/svg">
<path d="M38.5853 18.4014C38.117 11.3047 32.1941 5.67383 24.981 5.67383C17.7659 5.67383 11.842 11.3071 11.3763 18.4064C4.92562 19.2178 0 24.7134 0 31.3075C0 38.4863 5.84044 44.327 13.0195 44.327H32.819C33.3821 44.327 33.8388 43.8702 33.8388 43.3071C33.8388 42.7439 33.3821 42.2872 32.819 42.2872H13.0195C6.96518 42.287 2.03973 37.3616 2.03973 31.3075C2.03973 25.4815 6.60075 20.6723 12.4232 20.3591C12.9644 20.33 13.3883 19.8826 13.3883 19.3407C13.3883 19.3205 13.3878 19.3006 13.3866 19.2804C13.4019 12.9001 18.5971 7.71356 24.981 7.71356C31.3658 7.71356 36.5619 12.9009 36.5753 19.2828C36.5745 19.3025 36.5738 19.3232 36.5738 19.3387C36.5738 19.8819 36.9996 20.3298 37.542 20.3572C43.3841 20.6531 47.9603 25.463 47.9603 31.3073C47.9603 34.6263 46.4818 37.7327 43.9039 39.8297C43.4669 40.1851 43.401 40.8274 43.7564 41.2643C44.1118 41.7013 44.7541 41.7673 45.191 41.4118C48.2472 38.9257 50 35.2428 50 31.3072C50 24.6928 45.0577 19.1952 38.5853 18.4014Z" fill="url(#paint0_linear)"/>
<path d="M23.9611 23.9808V36.986C23.9611 37.5491 24.4178 38.0059 24.9809 38.0059C25.5441 38.0059 26.0008 37.5491 26.0008 36.986V23.9808C26.0008 23.4177 25.5441 22.9609 24.9809 22.9609C24.4178 22.9609 23.9611 23.4177 23.9611 23.9808Z" fill="url(#paint1_linear)"/>
<path d="M30.8141 25.8708C31.0752 25.8708 31.3361 25.7712 31.5353 25.5721C31.9336 25.1739 31.9336 24.5281 31.5353 24.1299L25.7022 18.2967C25.304 17.8985 24.658 17.8985 24.26 18.2967L18.4268 24.1299C18.0286 24.5281 18.0286 25.1739 18.4268 25.5721C18.8251 25.9704 19.471 25.9704 19.8691 25.5721L24.981 20.4602L30.0929 25.5721C30.2921 25.7712 30.5532 25.8708 30.8141 25.8708Z" fill="url(#paint2_linear)"/>
<defs>
<linearGradient id="paint0_linear" x1="15.625" y1="44.327" x2="44.0972" y2="44.327" gradientUnits="userSpaceOnUse">
<stop stop-color="#E6B712"/>
<stop offset="1" stop-color="#CAAA3B"/>
</linearGradient>
<linearGradient id="paint1_linear" x1="24.5985" y1="38.0059" x2="25.76" y2="38.0059" gradientUnits="userSpaceOnUse">
<stop stop-color="#E6B712"/>
<stop offset="1" stop-color="#CAAA3B"/>
</linearGradient>
<linearGradient id="paint2_linear" x1="22.4112" y1="25.8708" x2="30.216" y2="25.8708" gradientUnits="userSpaceOnUse">
<stop stop-color="#E6B712"/>
<stop offset="1" stop-color="#CAAA3B"/>
</linearGradient>
</defs>
</svg>
