<svg width="17" height="19" viewBox="0 0 17 19" fill="none" xmlns="http://www.w3.org/2000/svg">
<g clip-path="url(#clip0)">
<path d="M4.50358 3.22799C4.50358 1.88292 5.44532 0.79248 6.60712 0.79248C7.76877 0.79248 8.7106 1.88292 8.7106 3.22799C8.7106 4.57306 7.76877 5.66347 6.60712 5.66347C5.44532 5.6635 4.50358 4.57306 4.50358 3.22799ZM7.61798 7.32277C7.63907 6.79243 7.79674 6.30158 8.05041 5.89579C7.87238 5.85262 7.68839 5.82969 7.49958 5.82969H5.7149C5.52665 5.82969 5.3429 5.85245 5.16579 5.89509C5.43574 6.32863 5.59721 6.85811 5.59984 7.4313C5.92798 7.22232 6.30448 7.10334 6.7044 7.10334C7.0288 7.10334 7.33763 7.1816 7.61798 7.32277ZM7.97404 7.54138C8.58501 7.98502 9.01346 8.73539 9.09182 9.6068C9.34077 9.74152 9.61742 9.81924 9.91051 9.81924C10.9809 9.81924 11.8485 8.81457 11.8485 7.57523C11.8485 6.33575 10.9809 5.33129 9.91051 5.33129C8.84994 5.33133 7.99014 6.31796 7.97404 7.54138ZM6.70437 12.1361C7.77455 12.1361 8.64219 11.1311 8.64219 9.89215C8.64219 8.65299 7.77455 7.64821 6.70437 7.64821C5.63409 7.64821 4.76609 8.65295 4.76609 9.89215C4.76612 11.1311 5.63409 12.1361 6.70437 12.1361ZM7.52643 12.2888H5.88216C4.51398 12.2888 3.40064 13.5778 3.40064 15.1623V17.491L3.40587 17.5274L3.54429 17.5773C4.85005 18.0495 5.98445 18.2074 6.91824 18.2074C8.7417 18.2074 9.79906 17.6054 9.8642 17.5668L9.99371 17.4909H10.0075V15.1622C10.0075 13.5778 8.89478 12.2888 7.52643 12.2888ZM10.733 9.97239H9.10106C9.08334 10.7285 8.80467 11.4093 8.36395 11.8987C9.58014 12.3175 10.47 13.6233 10.47 15.1658V15.8833C12.0809 15.8147 13.0095 15.2863 13.0706 15.2507L13.2002 15.1744H13.2139V12.8452C13.2141 11.2612 12.1008 9.97239 10.733 9.97239ZM11.1692 5.28344C11.7802 5.72716 12.2086 6.47756 12.2868 7.34896C12.5358 7.48368 12.8124 7.56127 13.1055 7.56127C14.1761 7.56127 15.0436 6.55674 15.0436 5.31758C15.0436 4.07806 14.1761 3.07364 13.1055 3.07364C12.0451 3.07349 11.1854 4.06034 11.1692 5.28344ZM13.9278 7.71445H12.2962C12.2785 8.47053 11.9999 9.15139 11.5591 9.64075C12.7753 10.0594 13.6651 11.3653 13.6651 12.9079V13.6254C15.2759 13.5569 16.2046 13.0285 16.2658 12.9927L16.3952 12.9167H16.4091V10.5872C16.4093 9.00338 15.296 7.71445 13.9278 7.71445ZM3.30394 9.81928C3.68308 9.81928 4.03561 9.69104 4.33458 9.47275C4.42965 8.75535 4.76183 8.12832 5.23616 7.70148C5.23815 7.65937 5.24149 7.6178 5.24149 7.57527C5.24149 6.33579 4.37367 5.33133 3.30394 5.33133C2.2333 5.33133 1.36585 6.33575 1.36585 7.57527C1.36585 8.81482 2.23327 9.81928 3.30394 9.81928ZM5.04436 11.8987C4.60569 11.4117 4.32797 10.7345 4.30752 9.98285C4.24719 9.97764 4.18728 9.97239 4.12561 9.97239H2.48152C1.11316 9.97239 0 11.2612 0 12.8454V15.1744L0.00508125 15.2106L0.143683 15.2607C1.19097 15.6399 2.12601 15.8142 2.93812 15.8686V15.1656C2.93828 13.6233 3.82789 12.3173 5.04436 11.8987Z" fill="#CAAA3B"/>
</g>
<defs>
<clipPath id="clip0">
<rect width="16.4091" height="19" fill="white"/>
</clipPath>
</defs>
</svg>
