<svg width="35" height="35" viewBox="0 0 35 35" fill="none" xmlns="http://www.w3.org/2000/svg">
<path d="M12.2916 27.4395L7.06995 30.2877C6.76354 30.4548 6.48816 30.6602 6.23193 30.8841C9.27627 33.4509 13.2062 34.9995 17.5 34.9995C21.762 34.9995 25.6668 33.4741 28.7026 30.9422C28.4226 30.7057 28.1188 30.4931 27.782 30.3254L22.1906 27.53C21.4682 27.1688 21.0118 26.4305 21.0118 25.6228V23.4291C21.169 23.2501 21.3486 23.0203 21.5408 22.7489C22.3029 21.6724 22.8794 20.4884 23.2789 19.2462C23.9961 19.025 24.5244 18.3626 24.5244 17.5755V15.2338C24.5244 14.7187 24.2952 14.2584 23.9393 13.9361V10.551C23.9393 10.551 24.6347 5.2832 17.5006 5.2832C10.3666 5.2832 11.0619 10.551 11.0619 10.551V13.9361C10.7053 14.2584 10.4768 14.7187 10.4768 15.2338V17.5755C10.4768 18.1923 10.8011 18.7351 11.2865 19.0488C11.8716 21.5958 13.4036 23.4291 13.4036 23.4291V25.5687C13.403 26.3479 12.9764 27.0657 12.2916 27.4395Z" fill="#E7ECED"/>
<path d="M17.7991 0.00260596C8.13581 -0.162488 0.167702 7.53751 0.00260768 17.2008C-0.0911659 22.68 2.35091 27.6044 6.23921 30.8792C6.49346 30.6573 6.76619 30.4539 7.06931 30.2888L12.2909 27.4406C12.9757 27.0669 13.4023 26.349 13.4023 25.5685V23.4288C13.4023 23.4288 11.8696 21.5956 11.2852 19.0485C10.8004 18.7349 10.4755 18.1927 10.4755 17.5752V15.2336C10.4755 14.7185 10.7047 14.2582 11.0606 13.9359V10.5508C11.0606 10.5508 10.3652 5.28298 17.4993 5.28298C24.6334 5.28298 23.938 10.5508 23.938 10.5508V13.9359C24.2946 14.2582 24.5231 14.7185 24.5231 15.2336V17.5752C24.5231 18.3624 23.9948 19.0248 23.2776 19.246C22.8781 20.4882 22.3016 21.6722 21.5395 22.7486C21.3473 23.0201 21.1677 23.2499 21.0105 23.4288V25.6226C21.0105 26.4302 21.4669 27.1692 22.1893 27.5298L27.7807 30.3252C28.1162 30.4929 28.4193 30.7049 28.6986 30.9406C32.4694 27.7959 34.9055 23.094 34.996 17.7991C35.1624 8.13581 27.4631 0.1677 17.7991 0.00260596Z" fill="#556080"/>
</svg>
