<svg width="14" height="16" viewBox="0 0 14 16" fill="none" xmlns="http://www.w3.org/2000/svg">
<path d="M3.84239 2.71844C3.84239 1.58575 4.64587 0.66748 5.6371 0.66748C6.6282 0.66748 7.43176 1.58575 7.43176 2.71844C7.43176 3.85112 6.6282 4.76936 5.6371 4.76936C4.64587 4.76939 3.84239 3.85112 3.84239 2.71844ZM6.49955 6.16667C6.51755 5.72007 6.65207 5.30672 6.86849 4.96501C6.7166 4.92865 6.55962 4.90934 6.39854 4.90934H4.87587C4.71526 4.90934 4.55849 4.92851 4.40738 4.96441C4.6377 5.3295 4.77546 5.77538 4.7777 6.25806C5.05767 6.08209 5.37889 5.98189 5.7201 5.98189C5.99687 5.98189 6.26036 6.04779 6.49955 6.16667ZM6.80333 6.35077C7.32461 6.72436 7.69015 7.35625 7.75701 8.09006C7.96941 8.20351 8.20545 8.26896 8.45551 8.26896C9.36873 8.26896 10.1089 7.42293 10.1089 6.37927C10.1089 5.3355 9.36873 4.48964 8.45551 4.48964C7.55064 4.48967 6.81707 5.32051 6.80333 6.35077ZM5.72007 10.22C6.63314 10.22 7.37339 9.37372 7.37339 8.33036C7.37339 7.28685 6.63314 6.44073 5.72007 6.44073C4.80693 6.44073 4.06636 7.28682 4.06636 8.33036C4.06638 9.37372 4.80693 10.22 5.72007 10.22ZM6.42144 10.3486H5.01857C3.85127 10.3486 2.90138 11.4341 2.90138 12.7683V14.7294L2.90584 14.7601L3.02394 14.8021C4.13799 15.1997 5.10585 15.3327 5.90254 15.3327C7.4583 15.3327 8.36042 14.8257 8.41599 14.7932L8.52649 14.7293H8.53822V12.7683C8.53824 11.4341 7.5889 10.3486 6.42144 10.3486ZM9.15724 8.39793H7.7649C7.74978 9.03463 7.51202 9.60798 7.136 10.0201C8.17364 10.3727 8.93283 11.4724 8.93283 12.7713V13.3756C10.3073 13.3177 11.0995 12.8728 11.1517 12.8428L11.2622 12.7786H11.2739V10.8172C11.2741 9.48328 10.3243 8.39793 9.15724 8.39793ZM9.52942 4.44934C10.0507 4.823 10.4162 5.45491 10.4829 6.18873C10.6954 6.30218 10.9314 6.36751 11.1814 6.36751C12.0948 6.36751 12.835 5.52159 12.835 4.47809C12.835 3.43428 12.0948 2.58845 11.1814 2.58845C10.2767 2.58833 9.54318 3.41936 9.52942 4.44934ZM11.883 6.49651H10.491C10.4758 7.1332 10.2381 7.70656 9.86209 8.11866C10.8997 8.47118 11.6589 9.57094 11.6589 10.8699V11.4742C13.0332 11.4164 13.8256 10.9715 13.8778 10.9413L13.9881 10.8773H14V8.91569C14.0002 7.58192 13.0503 6.49651 11.883 6.49651ZM2.81888 8.26899C3.14235 8.26899 3.44313 8.16101 3.6982 7.97718C3.77932 7.37305 4.06273 6.84503 4.46742 6.48559C4.46912 6.45013 4.47196 6.41512 4.47196 6.3793C4.47196 5.33553 3.73155 4.48967 2.81888 4.48967C1.90542 4.48967 1.16532 5.3355 1.16532 6.3793C1.16532 7.42313 1.90539 8.26899 2.81888 8.26899ZM4.30378 10.0201C3.92951 9.60995 3.69256 9.03973 3.67511 8.40674C3.62364 8.40235 3.57253 8.39793 3.51991 8.39793H2.11719C0.949732 8.39793 0 9.48328 0 10.8173V12.7786L0.00433525 12.8091L0.122588 12.8512C1.01612 13.1706 1.81388 13.3173 2.50677 13.3632V12.7711C2.5069 11.4724 3.2659 10.3726 4.30378 10.0201Z" fill="white"/>
</svg>
