<svg width="18" height="18" viewBox="0 0 18 18" fill="none" xmlns="http://www.w3.org/2000/svg">
<g clip-path="url(#clip0)">
<path d="M4.20649 3.65044L11.3822 1.69176L11.0022 0.923655C10.7536 0.424385 10.1472 0.218209 9.64793 0.466833L3.22412 3.65044H4.20649Z" fill="white"/>
<path d="M13.6095 1.74805C13.5206 1.74805 13.4316 1.76017 13.3427 1.78443L11.6569 2.2453L6.50854 3.65012H12.3522H14.8991L14.5838 2.49392C14.4625 2.04316 14.0542 1.74805 13.6095 1.74805Z" fill="white"/>
<path d="M15.9524 4.35742H15.722H15.4086H15.0953H12.7041H3.91735H2.76519H1.79495H1.61505H1.01269C0.693318 4.35742 0.40831 4.50498 0.222347 4.73743C0.137451 4.84456 0.0727681 4.96787 0.0363841 5.1033C0.0141494 5.18819 0 5.27713 0 5.36809V5.48937V6.64153V16.629C0 17.1869 0.452779 17.6396 1.01067 17.6396H15.9504C16.5083 17.6396 16.961 17.1869 16.961 16.629V13.8092H10.9637C10.0157 13.8092 9.24559 13.0391 9.24559 12.0911V11.1653V10.852V10.5387V9.84333C9.24559 9.37842 9.43154 8.95598 9.73274 8.64672C9.99955 8.3718 10.3573 8.18583 10.7576 8.13934C10.8243 8.13128 10.893 8.12721 10.9617 8.12721H16.1202H16.4335H16.7468H16.961V5.36809C16.9631 4.8102 16.5103 4.35742 15.9524 4.35742Z" fill="white"/>
<path d="M17.6706 9.09485C17.5695 9.00187 17.4503 8.93112 17.3169 8.88463C17.2138 8.85029 17.1046 8.83008 16.9894 8.83008H16.9631H16.9429H16.6296H15.4997H10.9638C10.4059 8.83008 9.95312 9.28284 9.95312 9.84075V10.344V10.6573V10.9707V12.0905C9.95312 12.6484 10.4059 13.1011 10.9638 13.1011H16.9631H16.9894C17.1046 13.1011 17.2138 13.0809 17.3169 13.0466C17.4503 13.0021 17.5695 12.9293 17.6706 12.8363C17.8727 12.6524 18.0001 12.3856 18.0001 12.0905V9.84075C18.0001 9.54561 17.8727 9.27877 17.6706 9.09485ZM13.0741 11.1667C13.0741 11.4457 12.8477 11.6721 12.5687 11.6721H12.2332C11.9543 11.6721 11.7279 11.4457 11.7279 11.1667V10.8312C11.7279 10.6695 11.8027 10.5259 11.9219 10.435C12.0088 10.3683 12.116 10.3258 12.2332 10.3258H12.3181H12.5687C12.8477 10.3258 13.0741 10.5522 13.0741 10.8312V11.1667Z" fill="white"/>
</g>
<defs>
<clipPath id="clip0">
<rect width="18" height="18" fill="white"/>
</clipPath>
</defs>
</svg>
