<svg width="14" height="14" viewBox="0 0 14 14" fill="none" xmlns="http://www.w3.org/2000/svg">
<path d="M9.4999 4.29032C9.09054 1.76976 8.12502 0 7.00141 0C5.8778 0 4.91228 1.76976 4.50292 4.29032H9.4999ZM4.29119 7C4.29119 7.62661 4.32507 8.22782 4.38435 8.80645H9.61565C9.67493 8.22782 9.70881 7.62661 9.70881 7C9.70881 6.37339 9.67493 5.77218 9.61565 5.19355H4.38435C4.32507 5.77218 4.29119 6.37339 4.29119 7ZM13.458 4.29032C12.6505 2.37379 11.0159 0.891935 8.99738 0.293548C9.68623 1.24758 10.1605 2.68427 10.409 4.29032H13.458ZM5.00262 0.293548C2.98689 0.891935 1.34947 2.37379 0.544868 4.29032H3.59387C3.83948 2.68427 4.31377 1.24758 5.00262 0.293548ZM13.76 5.19355H10.5219C10.5812 5.78629 10.615 6.39315 10.615 7C10.615 7.60685 10.5812 8.21371 10.5219 8.80645H13.7572C13.9125 8.22782 14 7.62661 14 7C14 6.37339 13.9125 5.77218 13.76 5.19355ZM3.38778 7C3.38778 6.39315 3.42166 5.78629 3.48094 5.19355H0.242791C0.0903408 5.77218 0 6.37339 0 7C0 7.62661 0.0903408 8.22782 0.242791 8.80645H3.47812C3.42166 8.21371 3.38778 7.60685 3.38778 7ZM4.50292 9.70968C4.91228 12.2302 5.8778 14 7.00141 14C8.12502 14 9.09054 12.2302 9.4999 9.70968H4.50292ZM9.0002 13.7065C11.0159 13.1081 12.6534 11.6262 13.4608 9.70968H10.4118C10.1633 11.3157 9.68905 12.7524 9.0002 13.7065ZM0.544868 9.70968C1.35229 11.6262 2.98689 13.1081 5.00544 13.7065C4.3166 12.7524 3.84231 11.3157 3.59387 9.70968H0.544868Z" fill="url(#paint0_linear)"/>
<defs>
<linearGradient id="paint0_linear" x1="4.375" y1="14" x2="12.3472" y2="14" gradientUnits="userSpaceOnUse">
<stop stop-color="#E6B712"/>
<stop offset="1" stop-color="#CAAA3B"/>
</linearGradient>
</defs>
</svg>
