<svg width="46" height="47" viewBox="0 0 46 47" fill="none" xmlns="http://www.w3.org/2000/svg">
<ellipse cx="23.0005" cy="22.5" rx="22.6762" ry="22.5" fill="#CAAA3B"/>
<g clip-path="url(#clip0)">
<path d="M15.4512 18.4307V22.5227V30.4757H30.5838V22.5557V18.4307H15.4512ZM23.1671 20.1797H24.3312V21.0707H23.1671V20.1797ZM23.1671 21.4007H24.3312V22.2917H23.1671V21.4007ZM17.8458 26.9117H16.6817V26.0207H17.8458V26.9117ZM17.8458 25.6907H16.6817V24.7997H17.8458V25.6907ZM17.8458 22.2917H16.6817V21.4007H17.8458V22.2917ZM17.8458 21.0707H16.6817V20.1797H17.8458V21.0707ZM19.3424 26.9117H18.1784V26.0207H19.3424V26.9117ZM19.3424 25.6907H18.1784V24.7997H19.3424V25.6907ZM19.3424 22.2917H18.1784V21.4007H19.3424V22.2917ZM19.3424 21.0707H18.1784V20.1797H19.3424V21.0707ZM22.8346 30.1457H21.0053V24.7997H22.8346V30.1457ZM22.8346 22.2917H21.6705V21.4007H22.8346V22.2917ZM22.8346 21.0707H21.6705V20.1797H22.8346V21.0707ZM24.9964 30.1457H23.1671V24.7997H24.9964V30.1457ZM27.8233 26.9117H26.6593V26.0207H27.8233V26.9117ZM27.8233 25.6907H26.6593V24.7997H27.8233V25.6907ZM27.8233 22.2917H26.6593V21.4007H27.8233V22.2917ZM27.8233 21.0707H26.6593V20.1797H27.8233V21.0707ZM29.32 26.9117H28.1559V26.0207H29.32V26.9117ZM29.32 25.6907H28.1559V24.7997H29.32V25.6907ZM29.32 22.2917H28.1559V21.4007H29.32V22.2917ZM29.32 21.0707H28.1559V20.1797H29.32V21.0707Z" fill="white"/>
<path d="M8.10059 22.8857V30.5087H15.1181V22.8857H8.10059ZM11.4264 27.2417H10.2624V26.3507H11.4264V27.2417ZM11.4264 26.0207H10.2624V25.1297H11.4264V26.0207ZM12.9231 27.2417H11.759V26.3507H12.9231V27.2417ZM12.9231 26.0207H11.759V25.1297H12.9231V26.0207Z" fill="white"/>
<path d="M30.916 22.8857V30.5087H37.9336V22.8857H30.916ZM34.2419 27.2417H33.0778V26.3507H34.2419V27.2417ZM34.2419 26.0207H33.0778V25.1297H34.2419V26.0207ZM35.7385 27.2417H34.5744V26.3507H35.7385V27.2417ZM35.7385 26.0207H34.5744V25.1297H35.7385V26.0207Z" fill="white"/>
<path d="M30.916 19.4873V22.3253V22.6223H39.4302V22.3253L30.916 19.4873Z" fill="white"/>
<path d="M15.0845 19.4873V22.3253V22.6223H6.57031V22.3253L15.0845 19.4873Z" fill="white"/>
<path d="M23.0001 12.5244L19.0423 14.7684V13.5804H19.3084V12.9864H17.3129V13.5804H17.5457V15.5934L13.5547 17.8704V18.2334H32.4455V17.8704L23.0001 12.5244Z" fill="white"/>
</g>
<defs>
<clipPath id="clip0">
<rect width="33.2585" height="41.25" fill="white" transform="translate(6.37109 5)"/>
</clipPath>
</defs>
</svg>
