<svg width="45" height="45" viewBox="0 0 45 45" fill="none" xmlns="http://www.w3.org/2000/svg">
<circle cx="22.5" cy="22.5" r="22.5" fill="#CAAA3B"/>
<g clip-path="url(#clip0)">
<path d="M40.4003 17.1734H37.908C37.7233 17.1734 37.5387 17.2166 37.4003 17.3894L32.231 22.4859L30.2464 23.0906L30.3387 19.6353H32.3695C32.7387 19.6353 33.0618 19.333 33.0618 18.9875C33.0618 18.6419 32.7387 18.3396 32.3695 18.3396H22.8157C22.8618 18.2532 22.908 18.21 22.9541 18.1236C23.3233 17.4758 23.831 17.0007 24.431 16.6119C24.0157 16.6983 23.6464 16.8711 23.3233 17.1302C23.0003 17.3894 22.7695 17.6917 22.4464 18.1236C22.4464 17.4758 22.3541 16.7415 22.308 16.0505C22.4464 16.2232 22.5849 16.3096 22.8157 16.3528C23.0003 16.396 23.1387 16.396 23.3233 16.3528C23.6464 16.3096 23.8772 16.1368 24.0157 15.8345C24.2003 15.4026 24.1541 15.0139 23.9695 14.6251C23.7849 14.2364 23.4157 14.0205 23.0464 13.8477C22.9541 13.8045 22.908 13.8045 22.8157 13.8909V13.9773C23.0003 14.2364 23.1387 14.582 23.1387 14.8843V14.9707L23.0926 14.8843C23.0003 14.7115 22.9541 14.582 22.8618 14.4092C22.8157 14.2796 22.7233 14.1932 22.6772 14.1069C22.631 14.0637 22.631 14.0637 22.5849 14.0637C22.5387 14.0637 22.4464 14.1069 22.4003 14.1069L22.3541 14.15C22.3541 14.2364 22.3541 14.366 22.3541 14.4524C22.3541 14.4956 22.3541 14.582 22.308 14.6251C21.8926 15.7049 22.0772 16.6983 21.9849 17.9077C21.431 17.2598 21.0157 17.0439 17.9233 16.6983C18.2003 16.8711 19.7233 17.7349 19.8618 17.8645C20.0926 18.0373 20.3695 18.21 20.6464 18.3828H7.58489C7.21566 18.3828 6.89258 18.6851 6.89258 19.0307C6.89258 19.3762 7.21566 19.6785 7.58489 19.6785H10.4003L19.031 26.5027L15.7541 27.4961C15.6618 27.4961 15.6157 27.5393 15.5233 27.5825C14.8772 27.0642 14.0464 26.7187 13.1233 26.7187C11.1387 26.7187 9.52335 28.2304 9.52335 30.0876C9.52335 31.9448 11.1387 33.4565 13.1233 33.4565C15.108 33.4565 16.7233 31.9448 16.7233 30.0876C16.7233 29.5693 16.5849 29.051 16.3541 28.6191L22.2157 26.8483L23.5541 28.0144L26.3233 30.3899C26.6003 30.6491 26.8772 30.8218 27.1541 30.9082C27.431 30.9946 27.708 30.9946 27.9849 30.9082C28.2618 30.8218 28.4464 30.6059 28.5849 30.3036C28.7233 30.0444 28.7695 29.6989 28.7695 29.267V24.8183L32.7387 23.6089C32.831 23.5657 32.9695 23.5225 33.0157 23.4362L38.0926 18.3828H40.308C40.6772 18.3828 41.0003 18.0804 41.0003 17.7349C41.0464 17.4326 40.7695 17.1734 40.4003 17.1734ZM13.1233 31.8152C12.108 31.8152 11.231 31.0378 11.231 30.0444C11.231 29.0942 12.0618 28.2736 13.1233 28.2736C13.4926 28.2736 13.8157 28.36 14.0926 28.5327L12.708 29.5261C12.431 29.7421 12.3387 30.1308 12.5695 30.3899C12.8003 30.6491 13.2157 30.7355 13.4926 30.5195L14.8772 29.5261C14.9233 29.6989 14.9695 29.8284 14.9695 30.0012C15.0157 31.0378 14.1387 31.8152 13.1233 31.8152ZM19.8618 17.3462C19.8618 17.3462 20.9233 17.3462 21.708 18.3828H21.6157C21.1541 17.9941 20.3233 17.3462 19.8618 17.3462ZM27.5233 29.1806C27.5233 29.3102 27.5233 29.4397 27.5233 29.5261C27.4772 29.4829 27.3849 29.4397 27.2926 29.3533L23.7387 26.33L27.5233 25.207V29.1806Z" fill="white"/>
<path d="M21.6152 13.632V13.5888C21.569 13.5456 21.569 13.5024 21.569 13.4592L21.5229 13.416C21.3844 13.416 21.2459 13.416 21.1075 13.4592C20.5536 13.5456 20.1382 13.8047 19.8613 14.2798C19.6767 14.5822 19.6306 14.9277 19.8613 15.2732C19.9075 15.3164 19.9536 15.4028 19.9998 15.446C20.0459 15.4892 20.0921 15.5324 20.1844 15.5756L20.2306 15.6188C20.7844 15.9643 21.2459 15.7483 21.5229 15.446C21.6613 15.3164 21.7075 15.1437 21.7536 14.9709C21.8459 14.6686 21.9382 14.4094 22.1229 14.1071V14.0639C22.0306 14.0207 21.9844 14.0207 21.8921 13.9343C21.8459 13.8479 21.7536 13.8911 21.6613 13.8911H21.569C21.4306 13.9775 21.2921 14.0639 21.1536 14.1503C21.1075 14.1935 21.0613 14.1935 21.0152 14.2366L21.0613 14.1503C21.1998 13.9343 21.3844 13.7615 21.6152 13.632Z" fill="white"/>
<path d="M22.2612 11.947C22.3535 12.1197 22.3997 12.2493 22.3997 12.4653C22.3997 12.5084 22.3997 12.5516 22.3997 12.5948L22.5381 12.638C22.6305 12.6812 22.6766 12.638 22.7228 12.5948C22.8612 12.4653 22.9535 12.2925 22.9997 12.0765L23.0458 11.9901V12.0765C23.0458 12.2493 22.9535 12.4221 22.8612 12.5948C22.8151 12.638 22.7689 12.6812 22.7689 12.7244C22.7689 12.7676 22.8612 12.8108 22.8612 12.854H22.9535C23.0458 12.8108 23.092 12.8108 23.1843 12.7676C23.5074 12.5948 23.8305 12.3789 24.0151 12.0765C24.2458 11.6878 24.2458 11.3423 24.0151 10.9536C23.9689 10.9104 23.9689 10.8672 23.9228 10.824C23.8766 10.7808 23.8305 10.7376 23.7843 10.6944L23.692 10.6512C23.3228 10.4785 22.9074 10.4353 22.5381 10.608C22.0766 10.7808 21.892 11.2559 22.0766 11.6878C22.1689 11.7742 22.2151 11.8606 22.2612 11.947Z" fill="white"/>
<path d="M20.6924 13.2433C20.7385 13.2433 20.7847 13.2433 20.8308 13.2433C21.0616 13.2001 21.2924 13.2001 21.5693 13.2001L21.6154 13.1569C21.6154 13.0705 21.6616 12.9842 21.7077 12.8978C21.7539 12.8546 21.7539 12.8114 21.7077 12.8114L21.6616 12.7682C21.5231 12.6386 21.4308 12.5522 21.2924 12.4659C21.2 12.4227 21.1077 12.3363 20.9693 12.2499C21.0616 12.2499 21.1077 12.2499 21.1539 12.2931C21.3847 12.3795 21.6616 12.5091 21.8462 12.6818H21.9385C21.9847 12.6386 22.0308 12.6386 22.077 12.5954C22.1231 12.5954 22.2154 12.5954 22.2154 12.5522C22.2154 12.5091 22.2154 12.4659 22.2154 12.4227C22.077 11.602 21.1539 11.1269 20.3693 11.2565C19.677 11.3861 19.3077 12.0771 19.5847 12.6818C19.7693 12.9842 20.1385 13.2865 20.6924 13.2433Z" fill="white"/>
<path d="M23.2308 13.0266C23.1846 13.0266 23.1385 13.0698 23.0923 13.0698C23.0923 13.113 23.0923 13.1562 23.0923 13.1994L23.1385 13.2426C23.4615 13.1994 23.7846 13.2426 24.0615 13.3289L24.1538 13.3721C24.1077 13.3721 24.0615 13.3721 24.0615 13.3721C23.9231 13.3721 23.8308 13.3721 23.6923 13.3289C23.5077 13.3289 23.3692 13.3289 23.1846 13.3721C23.1385 13.3721 23.0462 13.4153 23.0462 13.5017L23 13.5881C23 13.6313 23 13.6313 23.0462 13.6313C23.2769 13.7177 23.5077 13.804 23.6923 13.9768C23.8769 14.1064 24.0154 14.236 24.2 14.3223C24.6154 14.5815 25.1231 14.4519 25.4 14.236C25.7231 13.9336 25.8154 13.3721 25.6769 13.0266C25.4923 12.6811 25.2154 12.5083 24.8 12.4219C24.4308 12.3787 24.0615 12.4651 23.7385 12.6811C23.6 12.8107 23.4154 12.9402 23.2308 13.0266Z" fill="white"/>
<path d="M22.8159 13.718C23.0466 13.502 23.0466 13.1133 22.8159 12.8973C22.5389 12.6814 22.1236 12.6814 21.8928 12.8973C21.6159 13.1565 21.7082 13.5452 21.9851 13.7611C22.1697 13.9771 22.5851 13.9339 22.8159 13.718Z" fill="white"/>
</g>
<defs>
<clipPath id="clip0">
<rect width="34.1127" height="22.9582" fill="white" transform="translate(6.89258 10.498)"/>
</clipPath>
</defs>
</svg>
