<svg width="45" height="45" viewBox="0 0 45 45" fill="none" xmlns="http://www.w3.org/2000/svg">
<circle cx="22.5" cy="22.5" r="22.5" fill="#CAAA3B"/>
<g clip-path="url(#clip0)">
<path d="M13 35.3349H16.1902L16.9964 33.1852C17.0885 32.9346 17.225 32.7137 17.4022 32.5306L19.2745 30.5659C19.268 30.5617 19.2615 30.5575 19.255 30.5533C18.8196 30.2624 18.6337 29.5842 18.6865 28.4792C18.7484 27.1847 18.3601 26.9255 17.7166 26.4958C17.2916 26.2124 16.7631 25.8596 16.3042 25.1421C15.8543 24.4396 15.8762 23.7238 16.3637 23.1785C17.0865 22.3701 18.663 22.163 19.8074 22.7257C20.8022 23.2106 21.4 22.4322 22.0791 21.3642C22.3403 20.954 22.5464 20.6301 22.7966 20.4672C23.7295 19.8587 24.764 19.8328 25.4331 20.401C25.9962 20.8796 26.1347 21.6564 25.7938 22.4281C25.468 23.1656 25.6001 23.572 25.7444 23.7729L29.9502 19.363C30.2784 19.0174 30.8287 19.0044 31.177 19.3351L31.4776 19.6213V12H13V35.3349V35.3349ZM21.5429 16.6081H29.9963C30.1866 16.6081 30.3406 16.7623 30.3406 16.9524C30.3406 17.1425 30.1866 17.2967 29.9963 17.2967H21.5429C21.3526 17.2967 21.1986 17.1425 21.1986 16.9524C21.1986 16.7623 21.3526 16.6081 21.5429 16.6081ZM17.1006 19.2387C17.1006 19.0486 17.2546 18.8945 17.4449 18.8945C17.6352 18.8945 17.7892 19.0486 17.7892 19.2387V19.2759C17.7892 19.6474 18.0914 19.9496 18.4629 19.9496C18.8344 19.9496 19.1367 19.6474 19.1367 19.2759V18.9323C19.1367 18.6448 18.9783 18.3838 18.7238 18.2506L17.8833 17.8116C17.4005 17.5594 17.1006 17.0645 17.1006 16.5199V16.1761C17.1006 15.5445 17.5348 15.017 18.1187 14.8634V14.3008C18.1187 14.1107 18.2726 13.9565 18.4629 13.9565C18.6532 13.9565 18.8072 14.1107 18.8072 14.3008V14.8634C19.3911 15.017 19.8252 15.5445 19.8252 16.1761V16.2134C19.8252 16.4036 19.6712 16.5577 19.4809 16.5577C19.2907 16.5577 19.1367 16.4036 19.1367 16.2134V16.1761C19.1367 15.8046 18.8344 15.5024 18.4629 15.5024C18.0914 15.5024 17.7892 15.8046 17.7892 16.1761V16.5199C17.7892 16.8072 17.9475 17.0682 18.202 17.2014L19.0425 17.6404C19.5253 17.8926 19.8252 18.3877 19.8252 18.9323V19.2759C19.8252 19.9075 19.3911 20.4351 18.8072 20.5887V21.1514C18.8072 21.3415 18.6532 21.4957 18.4629 21.4957C18.2726 21.4957 18.1187 21.3415 18.1187 21.1514V20.5887C17.5348 20.4351 17.1006 19.9075 17.1006 19.2759V19.2387Z" fill="white"/>
<path d="M32.7011 21.9881C32.7021 21.987 32.7031 21.986 32.7041 21.985C32.7468 21.9415 32.7548 21.8932 32.7542 21.8606C32.7532 21.8131 32.7333 21.7682 32.6977 21.7344L30.7023 19.8333C30.6843 19.8163 30.6637 19.8038 30.6419 19.7954C30.6352 19.7928 30.6281 19.7932 30.6212 19.7914C30.6058 19.7875 30.5904 19.7831 30.5748 19.7832C30.5597 19.7833 30.5454 19.788 30.5309 19.7918C30.5229 19.7939 30.5145 19.7937 30.5069 19.7969C30.4854 19.8059 30.4655 19.8192 30.4485 19.837L20.2751 30.5129C20.2737 30.5144 20.2732 30.5164 20.2717 30.518L18.1367 32.757L20.3943 34.9078L32.7011 21.9881Z" fill="white"/>
<path d="M19.8368 35.4029L19.878 35.3813C19.8815 35.3792 19.8844 35.3766 19.8879 35.3745L17.7061 33.2959C17.6849 33.3383 17.661 33.3784 17.6441 33.4245L16.7558 35.7997C16.7544 35.8034 16.7517 35.8062 16.7502 35.8098L16.3369 36.9126L19.7578 35.4417C19.7897 35.4287 19.8132 35.4155 19.8368 35.4029Z" fill="white"/>
<path d="M33.3982 36.792L29.9353 30.793L26.5928 32.7271L30.0556 38.7261L33.3982 36.792Z" fill="white"/>
<path d="M25.8255 32.7743C25.7307 32.6097 25.7868 32.3994 25.9512 32.3043L29.8895 30.0253C29.9685 29.9796 30.0626 29.9675 30.1507 29.9907C30.2391 30.0144 30.3144 30.0721 30.3602 30.1512L31.4767 32.0844V24.2734L20.9385 35.3351H27.3024L25.8255 32.7743Z" fill="white"/>
</g>
<defs>
<clipPath id="clip0">
<rect width="20.3982" height="26.726" fill="white" transform="translate(13 12)"/>
</clipPath>
</defs>
</svg>
