<svg width="45" height="45" viewBox="0 0 45 45" fill="none" xmlns="http://www.w3.org/2000/svg">
<circle cx="22.5" cy="22.5" r="22.5" fill="#CAAA3B"/>
<g clip-path="url(#clip0)">
<path d="M35.8338 18.5892C35.692 18.4162 35.4803 18.3152 35.2583 18.3152H32.4359C31.7394 16.4781 30.832 14.6782 29.8006 13.9987C26.2327 11.6515 16.769 11.6515 13.2011 13.9987C12.169 14.6789 11.2653 16.4811 10.5651 18.3152H7.74267C7.51842 18.3152 7.30754 18.4162 7.1672 18.5892C7.02612 18.7615 6.96968 18.9895 7.01572 19.2085L7.43377 21.2342C7.50506 21.5795 7.8095 21.8261 8.16072 21.8261H8.99682C8.18968 22.7572 7.79836 23.9297 7.79316 25.103C7.78797 26.5525 8.33819 27.8623 9.34433 28.7891C9.35547 28.7987 9.36661 28.8054 9.37701 28.815V31.6494C9.37701 32.2635 9.87599 32.7632 10.4908 32.7632H13.0942C13.709 32.7632 14.208 32.2635 14.208 31.6494V30.5103H28.7923V31.6494C28.7923 32.2635 29.2913 32.7632 29.9061 32.7632H32.5094C33.1228 32.7632 33.6232 32.2635 33.6232 31.6494V28.8707C34.691 27.8928 35.2012 26.5473 35.2078 25.204C35.2123 23.9906 34.8031 22.775 33.9485 21.8246H34.8403C35.193 21.8246 35.4974 21.578 35.5672 21.232L35.986 19.207C36.0291 18.9895 35.9749 18.763 35.8338 18.5892ZM14.4241 15.8588C17.268 13.9868 25.7322 13.9868 28.5747 15.8588C29.1272 16.2212 29.8378 17.6863 30.489 19.4803H12.5113C13.161 17.687 13.8716 16.2227 14.4241 15.8588ZM11.093 25.3822C11.093 24.1718 12.0747 23.1916 13.2843 23.1916C14.4954 23.1916 15.4755 24.1718 15.4755 25.3822C15.4755 26.5926 14.4954 27.5735 13.2843 27.5735C12.0747 27.5735 11.093 26.5926 11.093 25.3822ZM29.7449 27.5735C28.5353 27.5735 27.5537 26.5926 27.5537 25.3822C27.5537 24.1718 28.5353 23.1916 29.7449 23.1916C30.956 23.1916 31.9362 24.1718 31.9362 25.3822C31.9362 26.5926 30.9546 27.5735 29.7449 27.5735Z" fill="white"/>
</g>
<defs>
<clipPath id="clip0">
<rect width="29" height="29" fill="white" transform="translate(7 8)"/>
</clipPath>
</defs>
</svg>
