<svg width="45" height="45" viewBox="0 0 45 45" fill="none" xmlns="http://www.w3.org/2000/svg">
<circle cx="22.5" cy="22.5" r="22.5" fill="#CAAA3B"/>
<path d="M28.3121 22.8253C28.2511 22.5679 28.0621 22.3611 27.8115 22.2778L24.0743 21.0318L26.7284 15.7236C26.895 15.3896 26.7953 14.9835 26.4926 14.7648C26.1883 14.5468 25.7718 14.5796 25.5084 14.8443L17.8912 22.4615C17.7045 22.6483 17.6279 22.9183 17.6882 23.1749C17.7492 23.4323 17.9381 23.6391 18.1888 23.7224L21.926 24.9684L19.2718 30.2766C19.1052 30.6106 19.2049 31.0167 19.5077 31.2354C19.8109 31.4527 20.2266 31.4209 20.4918 31.1558L28.109 23.5387C28.2957 23.3519 28.3723 23.0819 28.3121 22.8253Z" fill="white"/>
<path d="M23 10C19.134 10 15.4824 11.798 13.0469 14.6987V13.8594C13.0469 13.4383 12.7062 13.0977 12.2852 13.0977C11.8641 13.0977 11.5234 13.4383 11.5234 13.8594V17.0952C11.5234 17.8221 12.4624 17.9262 12.2852 17.8569C12.3008 17.8569 12.3164 17.8562 12.332 17.8555L15.3789 17.6665C15.7992 17.6404 16.1183 17.2789 16.0923 16.8594C16.0662 16.4398 15.6995 16.1237 15.2852 16.146L13.7417 16.242C15.8796 13.3338 19.3387 11.5234 23 11.5234C29.3005 11.5234 34.4766 16.6995 34.4766 23C34.4766 23.421 34.8173 23.7617 35.2383 23.7617C35.6593 23.7617 36 23.421 36 23C36 15.8596 30.1404 10 23 10Z" fill="white"/>
<path d="M33.668 28.1445L30.6211 28.3335C30.2008 28.3596 29.8817 28.7211 29.9077 29.1406C29.9338 29.5602 30.3087 29.88 30.7148 29.854L32.2583 29.758C30.1204 32.6662 26.6613 34.4766 23 34.4766C16.6995 34.4766 11.5234 29.3005 11.5234 23C11.5234 22.579 11.1827 22.2383 10.7617 22.2383C10.3407 22.2383 10 22.579 10 23C10 30.1404 15.8596 36 23 36C26.866 36 30.5176 34.202 32.9531 31.3013V32.1406C32.9531 32.5617 33.2938 32.9023 33.7148 32.9023C34.1359 32.9023 34.4766 32.5617 34.4766 32.1406V28.9048C34.4766 28.4864 34.0753 28.1216 33.668 28.1445Z" fill="white"/>
</svg>
