<svg width="45" height="45" viewBox="0 0 45 45" fill="none" xmlns="http://www.w3.org/2000/svg">
<circle cx="22.5" cy="22.5" r="22.5" fill="#CAAA3B"/>
<g clip-path="url(#clip0)">
<path d="M22.514 31.0972C24.8845 31.0972 26.813 29.1686 26.813 26.798C26.813 24.4275 24.8845 22.499 22.514 22.499C20.1434 22.499 18.2148 24.4275 18.2148 26.798C18.2148 29.1686 20.1434 31.0972 22.514 31.0972ZM19.9814 26.1215C20.2641 25.8386 20.7224 25.8386 21.0053 26.1215L21.9502 27.0664L24.0227 24.9938C24.3056 24.7112 24.7639 24.7112 25.0466 24.9938C25.3293 25.2765 25.3293 25.7348 25.0466 26.0177L22.4621 28.6022C22.3263 28.738 22.1423 28.8141 21.9502 28.8141C21.7581 28.8141 21.5741 28.738 21.4383 28.6022L19.9814 27.1451C19.6988 26.8625 19.6988 26.4041 19.9814 26.1215V26.1215Z" fill="white"/>
<path d="M10.5371 33.6592C10.5371 34.9501 11.5875 36.0005 12.8784 36.0005H32.1498C33.4407 36.0005 34.4911 34.9501 34.4911 33.6592V19.0439H10.5371V33.6592ZM22.5143 21.0514C25.6832 21.0514 28.2611 23.6294 28.2611 26.7983C28.2611 29.9671 25.6832 32.5453 22.5143 32.5453C19.3454 32.5453 16.7673 29.9671 16.7673 26.7983C16.7673 23.6294 19.3454 21.0514 22.5143 21.0514V21.0514Z" fill="white"/>
<path d="M34.4907 17.5959V15.3657C34.4907 14.0746 33.4406 13.0244 32.1495 13.0244H30.8296V14.3247C30.8296 14.7248 30.5051 15.0485 30.1056 15.0485C29.7056 15.0485 29.3817 14.7248 29.3817 14.3247V13.0244H27.9588V14.3247C27.9588 14.7248 27.6352 15.0485 27.235 15.0485C26.8354 15.0485 26.511 14.7248 26.511 14.3247V13.0244H18.5173V14.3247C18.5173 14.7248 18.193 15.0485 17.7934 15.0485C17.3933 15.0485 17.0694 14.7248 17.0694 14.3247V13.0244H15.6467V14.3247C15.6467 14.7248 15.3223 15.0485 14.9227 15.0485C14.5231 15.0485 14.1988 14.7248 14.1988 14.3247V13.0244H12.8784C11.5873 13.0244 10.5371 14.0746 10.5371 15.3657V17.5959H34.4907Z" fill="white"/>
<path d="M30.8297 11.7238C30.8297 11.3242 30.5053 11 30.1057 11C29.7057 11 29.3818 11.3242 29.3818 11.7238V13.0241H30.8297V11.7238Z" fill="white"/>
<path d="M27.9596 11.7238C27.9596 11.3242 27.6359 11 27.2357 11C26.8362 11 26.5117 11.3242 26.5117 11.7238V13.0241H27.9596V11.7238Z" fill="white"/>
<path d="M18.5172 11.7238C18.5172 11.3242 18.193 11 17.7934 11C17.3932 11 17.0693 11.3242 17.0693 11.7238V13.0241H18.5172V11.7238Z" fill="white"/>
<path d="M15.6471 11.7238C15.6471 11.3242 15.3226 11 14.9231 11C14.5235 11 14.1992 11.3242 14.1992 11.7238V13.0241H15.6471V11.7238Z" fill="white"/>
</g>
<defs>
<clipPath id="clip0">
<rect width="25" height="25" fill="white" transform="translate(10 11)"/>
</clipPath>
</defs>
</svg>
