<svg width="45" height="45" viewBox="0 0 45 45" fill="none" xmlns="http://www.w3.org/2000/svg">
<circle cx="22.5" cy="22.5" r="22.5" fill="#CAAA3B"/>
<path d="M12.8594 22.1875C13.4739 22.1875 14.0301 21.9409 14.4411 21.545L16.6959 22.6723C16.6846 22.7641 16.668 22.8544 16.668 22.9492C16.668 24.2092 17.6931 25.2344 18.9531 25.2344C20.2131 25.2344 21.2383 24.2092 21.2383 22.9492C21.2383 22.5975 21.1518 22.2682 21.0092 21.9703L24.0679 18.9115C24.3659 19.0541 24.6952 19.1406 25.0469 19.1406C26.3069 19.1406 27.332 18.1155 27.332 16.8555C27.332 16.6182 27.2854 16.3939 27.218 16.1786L29.8757 14.1859C30.2383 14.4281 30.6729 14.5703 31.1406 14.5703C32.4006 14.5703 33.4258 13.5452 33.4258 12.2852C33.4258 11.0251 32.4006 10 31.1406 10C29.8806 10 28.8555 11.0251 28.8555 12.2852C28.8555 12.5224 28.9021 12.7467 28.9695 12.962L26.3118 14.9547C25.9492 14.7125 25.5146 14.5703 25.0469 14.5703C23.7869 14.5703 22.7617 15.5955 22.7617 16.8555C22.7617 17.2072 22.8482 17.5365 22.9908 17.8344L19.9321 20.8932C19.6341 20.7505 19.3048 20.6641 18.9531 20.6641C18.3386 20.6641 17.7824 20.9106 17.3714 21.3066L15.1166 20.1793C15.1279 20.0874 15.1445 19.9972 15.1445 19.9023C15.1445 18.6423 14.1194 17.6172 12.8594 17.6172C11.5994 17.6172 10.5742 18.6423 10.5742 19.9023C10.5742 21.1624 11.5994 22.1875 12.8594 22.1875V22.1875Z" fill="white"/>
<path d="M34.2383 34.4766H33.4258V18.3789C33.4258 17.958 33.085 17.6172 32.6641 17.6172H29.6172C29.1963 17.6172 28.8555 17.958 28.8555 18.3789V34.4766H27.332V22.9492C27.332 22.5283 26.9912 22.1875 26.5703 22.1875H23.5234C23.1025 22.1875 22.7617 22.5283 22.7617 22.9492V34.4766H21.2383V29.043C21.2383 28.622 20.8975 28.2812 20.4766 28.2812H17.4297C17.0088 28.2812 16.668 28.622 16.668 29.043V34.4766H15.1445V25.9961C15.1445 25.5752 14.8037 25.2344 14.3828 25.2344H11.3359C10.915 25.2344 10.5742 25.5752 10.5742 25.9961V34.4766H9.76172C9.34079 34.4766 9 34.8174 9 35.2383C9 35.6592 9.34079 36 9.76172 36H34.2383C34.6592 36 35 35.6592 35 35.2383C35 34.8174 34.6592 34.4766 34.2383 34.4766Z" fill="white"/>
</svg>
