<svg width="45" height="45" viewBox="0 0 45 45" fill="none" xmlns="http://www.w3.org/2000/svg">
<circle cx="22.5" cy="22.5" r="22.5" fill="#CAAA3B"/>
<path d="M30.7346 15.6363H26.835V13.9705C26.8595 13.2103 26.2632 12.5742 25.503 12.5496C25.4643 12.5484 25.4255 12.5487 25.3868 12.5507H19.6132C18.8536 12.5112 18.2058 13.0948 18.1661 13.8543C18.1641 13.893 18.1637 13.9317 18.165 13.9705V15.6269H14.2654C12.7605 15.6269 11 16.4834 11 18.8923V29.1855C11 31.5944 12.7605 32.4509 14.2654 32.4509H30.7346C32.2395 32.4509 34 31.5944 34 29.1855V18.9018C34 16.4929 32.2442 15.6363 30.7346 15.6363ZM19.1115 13.9705C19.1115 13.8332 19.1115 13.4641 19.6179 13.4641H25.3868C25.8932 13.4641 25.8932 13.8285 25.8932 13.9705V15.6269H19.1115V13.9705ZM33.0535 29.1855C33.0535 31.2773 31.435 31.5044 30.7346 31.5044H14.2654C13.5698 31.5044 11.9465 31.2773 11.9465 29.1855V18.9018C11.9465 16.81 13.565 16.5828 14.2654 16.5828H30.7346C31.4302 16.5828 33.0535 16.81 33.0535 18.9018V29.1855Z" fill="white"/>
<path d="M33.0535 29.1855C33.0535 31.2773 31.435 31.5044 30.7346 31.5044H14.2654C13.5698 31.5044 11.9465 31.2773 11.9465 29.1855V18.9018C11.9465 16.81 13.565 16.5828 14.2654 16.5828H30.7346C31.4302 16.5828 33.0535 16.81 33.0535 18.9018V29.1855Z" fill="white"/>
<path d="M26.2861 25.0593H24.1233C23.862 25.0593 23.6501 25.2712 23.6501 25.5325V27.6953H21.3501V25.5325C21.3501 25.2712 21.1382 25.0593 20.8768 25.0593H18.7141V22.764H20.8768C21.1382 22.764 21.3501 22.5521 21.3501 22.2908V20.1233H23.6454V22.286C23.6454 22.5474 23.8573 22.7593 24.1186 22.7593H26.2861V25.0593Z" fill="#CAAA3B"/>
</svg>
