<svg width="45" height="45" viewBox="0 0 45 45" fill="none" xmlns="http://www.w3.org/2000/svg">
<circle cx="22.5" cy="22.5" r="22.5" fill="#CAAA3B"/>
<g clip-path="url(#clip0)">
<path d="M28.4061 30.0938H25.0313V31.781L23.3438 33.4688H30.0939L28.4061 31.781V30.0938Z" fill="white"/>
<path d="M14.0626 11.5312H10.6876C9.75478 11.5312 9 12.2876 9 13.2188V31.7812C9 32.7143 9.75478 33.469 10.6876 33.469H14.0626C14.9953 33.469 15.7501 32.7143 15.7501 31.7812V13.2188C15.7501 12.2876 14.9952 11.5312 14.0626 11.5312ZM12.375 28.4063H10.6876V26.7185H12.375V28.4063ZM14.0626 19.9688H10.6876V18.2814H14.0626V19.9688V19.9688ZM14.0626 16.5938H10.6876V14.9062H14.0626V16.5938V16.5938Z" fill="white"/>
<path d="M34.3127 14.9062H19.1251C18.1923 14.9062 17.4375 15.6626 17.4375 16.5938V26.7185C17.4375 27.6516 18.1923 28.4063 19.1251 28.4063H34.3127C35.2453 28.4063 36 27.6516 36 26.7185V16.5938C36 15.6626 35.2452 14.9062 34.3127 14.9062ZM27.5627 27.5626H25.8749V25.875H27.5627V27.5626ZM34.3127 25.0312H19.1251V16.5938H34.3127V25.0312Z" fill="white"/>
</g>
<defs>
<clipPath id="clip0">
<rect width="27" height="27" fill="white" transform="translate(9 9)"/>
</clipPath>
</defs>
</svg>
